FiraSans-Regular.ufo
<glyph name="A" format="2">
  <advance width="573"/>
  <unicode hex="0041"/>
  <anchor x="287" y="0" name="bottom"/>
  <anchor x="537" y="0" name="ogonek"/>
  <anchor x="287" y="689" name="top"/>
  <anchor x="170" y="689" name="topleft"/>
  <outline>
    <contour>
      <point x="347" y="689" type="line"/>
      <point x="227" y="689" type="line"/>
      <point x="6" y="0" type="line"/>
      <point x="102" y="0" type="line"/>
      <point x="285" y="610" type="line"/>
      <point x="467" y="0" type="line"/>
      <point x="567" y="0" type="line"/>
    </contour>
    <contour>
      <point x="407" y="250" type="line"/>
      <point x="162" y="250" type="line"/>
      <point x="139" y="173" type="line"/>
      <point x="430" y="173" type="line"/>
    </contour>
  </outline>
</glyph>
<glyph name="E" format="2">
  <advance width="535"/>
  <unicode hex="0045"/>
  <anchor x="291" y="0" name="bottom"/>
  <anchor x="451" y="0" name="ogonek"/>
  <anchor x="290" y="689" name="top"/>
  <anchor x="90" y="689" name="topleft"/>
  <outline>
    <contour>
      <point x="473" y="689" type="line"/>
      <point x="100" y="689" type="line"/>
      <point x="100" y="0" type="line"/>
      <point x="481" y="0" type="line"/>
      <point x="481" y="76" type="line"/>
      <point x="195" y="76" type="line"/>
      <point x="195" y="312" type="line"/>
      <point x="427" y="312" type="line"/>
      <point x="427" y="388" type="line"/>
      <point x="195" y="388" type="line"/>
      <point x="195" y="613" type="line"/>
      <point x="462" y="613" type="line"/>
    </contour>
  </outline>
</glyph>
<glyph name="F" format="2">
  <advance width="491"/>
  <unicode hex="0046"/>
  <anchor x="148" y="0" name="bottom"/>
  <anchor x="293" y="689" name="top"/>
  <outline>
    <contour>
      <point x="100" y="0" type="line"/>
      <point x="195" y="0" type="line"/>
      <point x="195" y="303" type="line"/>
      <point x="420" y="303" type="line"/>
      <point x="420" y="378" type="line"/>
      <point x="195" y="378" type="line"/>
      <point x="195" y="613" type="line"/>
      <point x="455" y="613" type="line"/>
      <point x="466" y="689" type="line"/>
      <point x="100" y="689" type="line"/>
    </contour>
  </outline>
</glyph>
<glyph name="H" format="2">
  <advance width="680"/>
  <unicode hex="0048"/>
  <anchor x="340" y="0" name="bottom"/>
  <anchor x="590" y="0" name="bottomright"/>
  <anchor x="340" y="345" name="center"/>
  <anchor x="340" y="689" name="top"/>
  <anchor x="90" y="689" name="topleft"/>
  <outline>
    <contour>
      <point x="485" y="0" type="line"/>
      <point x="580" y="0" type="line"/>
      <point x="580" y="689" type="line"/>
      <point x="485" y="689" type="line"/>
      <point x="485" y="401" type="line"/>
      <point x="195" y="401" type="line"/>
      <point x="195" y="689" type="line"/>
      <point x="100" y="689" type="line"/>
      <point x="100" y="0" type="line"/>
      <point x="195" y="0" type="line"/>
      <point x="195" y="323" type="line"/>
      <point x="485" y="323" type="line"/>
    </contour>
  </outline>
</glyph>
<glyph name="I" format="2">
  <advance width="295"/>
  <unicode hex="0049"/>
  <anchor x="147" y="0" name="bottom"/>
  <anchor x="205" y="0" name="ogonek"/>
  <anchor x="147" y="689" name="top"/>
  <anchor x="90" y="689" name="topleft"/>
  <outline>
    <contour>
      <point x="195" y="689" type="line"/>
      <point x="100" y="689" type="line"/>
      <point x="100" y="0" type="line"/>
      <point x="195" y="0" type="line"/>
    </contour>
  </outline>
</glyph>
<glyph name="K" format="2">
  <advance width="589"/>
  <unicode hex="004B"/>
  <anchor x="315" y="0" name="bottom"/>
  <anchor x="328" y="689" name="top"/>
  <outline>
    <contour>
      <point x="570" y="689" type="line"/>
      <point x="462" y="689" type="line"/>
      <point x="200" y="368" type="line"/>
      <point x="472" y="0" type="line"/>
      <point x="589" y="0" type="line"/>
      <point x="309" y="374" type="line"/>
    </contour>
    <contour>
      <point x="195" y="689" type="line"/>
      <point x="100" y="689" type="line"/>
      <point x="100" y="0" type="line"/>
      <point x="195" y="0" type="line"/>
    </contour>
  </outline>
</glyph>
<glyph name="L" format="2">
  <advance width="498"/>
  <unicode hex="004C"/>
  <anchor x="284" y="0" name="bottom"/>
  <anchor x="390" y="390" name="center"/>
  <anchor x="148" y="689" name="top"/>
  <anchor x="215" y="689" name="topright"/>
  <outline>
    <contour>
      <point x="195" y="689" type="line"/>
      <point x="100" y="689" type="line"/>
      <point x="100" y="0" type="line"/>
      <point x="467" y="0" type="line"/>
      <point x="478" y="83" type="line"/>
      <point x="195" y="83" type="line"/>
    </contour>
  </outline>
</glyph>
<glyph name="U" format="2">
  <advance width="662"/>
  <unicode hex="0055"/>
  <anchor x="331" y="0" name="bottom"/>
  <anchor x="428" y="0" name="ogonek"/>
  <anchor x="331" y="689" name="top"/>
  <anchor x="582" y="689" name="topright"/>
  <outline>
    <contour>
      <point x="572" y="689" type="line"/>
      <point x="476" y="689" type="line"/>
      <point x="476" y="228" type="line" smooth="yes"/>
      <point x="476" y="121"/>
      <point x="429" y="68"/>
      <point x="330" y="68" type="curve" smooth="yes"/>
      <point x="232" y="68"/>
      <point x="185" y="121"/>
      <point x="185" y="228" type="curve" smooth="yes"/>
      <point x="185" y="689" type="line"/>
      <point x="90" y="689" type="line"/>
      <point x="90" y="221" type="line" smooth="yes"/>
      <point x="90" y="84"/>
      <point x="173" y="-12"/>
      <point x="330" y="-12" type="curve" smooth="yes"/>
      <point x="485" y="-12"/>
      <point x="572" y="84"/>
      <point x="572" y="221" type="curve" smooth="yes"/>
    </contour>
  </outline>
</glyph>
<glyph name="W" format="2">
  <advance width="826"/>
  <unicode hex="0057"/>
  <anchor x="413" y="0" name="bottom"/>
  <anchor x="413" y="689" name="top"/>
  <outline>
    <contour>
      <point x="801" y="689" type="line"/>
      <point x="714" y="689" type="line"/>
      <point x="599" y="83" type="line"/>
      <point x="463" y="689" type="line"/>
      <point x="362" y="689" type="line"/>
      <point x="229" y="83" type="line"/>
      <point x="118" y="689" type="line"/>
      <point x="25" y="689" type="line"/>
      <point x="165" y="0" type="line"/>
      <point x="284" y="0" type="line"/>
      <point x="412" y="577" type="line"/>
      <point x="539" y="0" type="line"/>
      <point x="661" y="0" type="line"/>
    </contour>
  </outline>
</glyph>
<glyph name="Y" format="2">
  <advance width="550"/>
  <unicode hex="0059"/>
  <anchor x="275" y="0" name="bottom"/>
  <anchor x="275" y="689" name="top"/>
  <anchor x="5" y="689" name="topleft"/>
  <outline>
    <contour>
      <point x="545" y="689" type="line"/>
      <point x="446" y="689" type="line"/>
      <point x="278" y="348" type="line"/>
      <point x="110" y="689" type="line"/>
      <point x="5" y="689" type="line"/>
      <point x="227" y="264" type="line"/>
      <point x="227" y="0" type="line"/>
      <point x="323" y="0" type="line"/>
      <point x="323" y="265" type="line"/>
    </contour>
  </outline>
</glyph>
<glyph name="l" format="2">
  <advance width="293"/>
  <unicode hex="006C"/>
  <anchor x="178" y="0" name="bottom"/>
  <anchor x="297" y="380" name="center"/>
  <anchor x="136" y="739" name="top"/>
  <anchor x="193" y="739" name="topright"/>
  <outline>
    <contour>
      <point x="200" y="-12" type="curve"/>
      <point x="227" y="-12"/>
      <point x="253" y="-5"/>
      <point x="273" y="6" type="curve"/>
      <point x="249" y="70" type="line"/>
      <point x="239" y="66"/>
      <point x="228" y="64"/>
      <point x="215" y="64" type="curve" smooth="yes"/>
      <point x="191" y="64"/>
      <point x="182" y="78"/>
      <point x="182" y="106" type="curve" smooth="yes"/>
      <point x="182" y="750" type="line"/>
      <point x="90" y="739" type="line"/>
      <point x="90" y="104" type="line" smooth="yes"/>
      <point x="90" y="29"/>
      <point x="133" y="-12"/>
    </contour>
  </outline>
</glyph>
<glyph name="v" format="2">
  <advance width="492"/>
  <unicode hex="0076"/>
  <anchor x="248" y="0" name="bottom"/>
  <anchor x="248" y="527" name="top"/>
  <outline>
    <contour>
      <point x="482" y="527" type="line"/>
      <point x="385" y="527" type="line"/>
      <point x="248" y="82" type="line"/>
      <point x="110" y="527" type="line"/>
      <point x="10" y="527" type="line"/>
      <point x="192" y="0" type="line"/>
      <point x="303" y="0" type="line"/>
    </contour>
  </outline>
</glyph>
<glyph name="cent" format="2">
  <advance width="478"/>
  <unicode hex="00A2"/>
  <anchor x="284" y="0" name="bottom"/>
  <anchor x="289" y="527" name="top"/>
  <outline>
    <contour>
      <point x="329" y="684" type="line"/>
      <point x="250" y="684" type="line"/>
      <point x="250" y="533" type="line"/>
      <point x="329" y="534" type="line"/>
    </contour>
    <contour>
      <point x="249" y="-6" type="line"/>
      <point x="249" y="-154" type="line"/>
      <point x="329" y="-154" type="line"/>
      <point x="329" y="-7" type="line"/>
    </contour>
    <component base="c"/>
  </outline>
</glyph>
<glyph name="currency" format="2">
  <advance width="560"/>
  <unicode hex="00A4"/>
  <outline>
    <contour>
      <point x="278" y="549" type="curve" smooth="yes"/>
      <point x="157" y="549"/>
      <point x="71" y="456"/>
      <point x="71" y="341" type="curve" smooth="yes"/>
      <point x="71" y="225"/>
      <point x="157" y="132"/>
      <point x="278" y="132" type="curve" smooth="yes"/>
      <point x="409" y="132"/>
      <point x="492" y="225"/>
      <point x="492" y="341" type="curve" smooth="yes"/>
      <point x="492" y="456"/>
      <point x="409" y="549"/>
    </contour>
    <contour>
      <point x="82" y="88" type="line"/>
      <point x="169" y="176" type="line"/>
      <point x="117" y="231" type="line"/>
      <point x="29" y="143" type="line"/>
    </contour>
    <contour>
      <point x="476" y="88" type="line"/>
      <point x="531" y="143" type="line"/>
      <point x="445" y="228" type="line"/>
      <point x="388" y="174" type="line"/>
    </contour>
    <contour>
      <point x="84" y="595" type="line"/>
      <point x="29" y="540" type="line"/>
      <point x="115" y="451" type="line"/>
      <point x="171" y="506" type="line"/>
    </contour>
    <contour>
      <point x="478" y="595" type="line"/>
      <point x="391" y="508" type="line"/>
      <point x="446" y="454" type="line"/>
      <point x="531" y="540" type="line"/>
    </contour>
    <contour>
      <point x="281" y="479" type="curve" smooth="yes"/>
      <point x="362" y="479"/>
      <point x="404" y="427"/>
      <point x="404" y="342" type="curve" smooth="yes"/>
      <point x="404" y="256"/>
      <point x="362" y="205"/>
      <point x="281" y="205" type="curve" smooth="yes"/>
      <point x="202" y="205"/>
      <point x="159" y="256"/>
      <point x="159" y="342" type="curve" smooth="yes"/>
      <point x="159" y="427"/>
      <point x="202" y="479"/>
    </contour>
  </outline>
</glyph>
<glyph name="paragraph" format="2">
  <advance width="734"/>
  <unicode hex="00B6"/>
  <outline>
    <contour>
      <point x="594" y="689" type="line"/>
      <point x="336" y="689" type="line"/>
      <point x="314" y="643" type="line"/>
      <point x="314" y="-215" type="line"/>
      <point x="397" y="-202" type="line"/>
      <point x="397" y="616" type="line"/>
      <point x="511" y="616" type="line"/>
      <point x="511" y="-215" type="line"/>
      <point x="594" y="-202" type="line"/>
    </contour>
    <contour>
      <point x="336" y="689" type="line"/>
      <point x="185" y="689"/>
      <point x="90" y="616"/>
      <point x="90" y="486" type="curve" smooth="yes"/>
      <point x="90" y="370"/>
      <point x="163" y="282"/>
      <point x="336" y="282" type="curve"/>
    </contour>
  </outline>
</glyph>
<glyph name="Eth" format="2">
  <advance width="656"/>
  <unicode hex="00D0"/>
  <anchor x="312" y="0" name="bottom"/>
  <anchor x="335" y="345" name="center"/>
  <anchor x="315" y="689" name="top"/>
  <outline>
    <contour>
      <point x="364" y="388" type="line"/>
      <point x="112" y="388" type="line"/>
      <point x="20" y="388" type="line"/>
      <point x="20" y="318" type="line"/>
      <point x="364" y="318" type="line"/>
    </contour>
    <component base="D" xOffset="12"/>
  </outline>
</glyph>
<glyph name="multiply" format="2">
  <advance width="500"/>
  <unicode hex="00D7"/>
  <outline>
    <contour>
      <point x="372" y="486" type="line"/>
      <point x="248" y="361" type="line"/>
      <point x="128" y="486" type="line"/>
      <point x="72" y="429" type="line"/>
      <point x="192" y="305" type="line"/>
      <point x="72" y="185" type="line"/>
      <point x="128" y="129" type="line"/>
      <point x="252" y="253" type="line"/>
      <point x="372" y="129" type="line"/>
      <point x="428" y="185" type="line"/>
      <point x="308" y="309" type="line"/>
      <point x="428" y="429" type="line"/>
    </contour>
  </outline>
</glyph>
<glyph name="Thorn" format="2">
  <advance width="581"/>
  <unicode hex="00DE"/>
  <anchor x="290.5" y="0" name="bottom"/>
  <anchor x="290.5" y="689" name="top"/>
  <outline>
    <contour>
      <point x="281" y="571" type="curve" smooth="yes"/>
      <point x="180" y="571" type="line"/>
      <point x="195" y="497" type="line"/>
      <point x="280" y="497" type="line" smooth="yes"/>
      <point x="382" y="497"/>
      <point x="448" y="460"/>
      <point x="448" y="353" type="curve" smooth="yes"/>
      <point x="448" y="232"/>
      <point x="380" y="202"/>
      <point x="278" y="202" type="curve" smooth="yes"/>
      <point x="179" y="202" type="line"/>
      <point x="179" y="127" type="line"/>
      <point x="282" y="127" type="line" smooth="yes"/>
      <point x="434" y="127"/>
      <point x="549" y="192"/>
      <point x="549" y="354" type="curve" smooth="yes"/>
      <point x="549" y="503"/>
      <point x="447" y="571"/>
    </contour>
    <contour>
      <point x="195" y="689" type="line"/>
      <point x="100" y="689" type="line"/>
      <point x="100" y="0" type="line"/>
      <point x="195" y="0" type="line"/>
    </contour>
  </outline>
</glyph>
<glyph name="dcroat" format="2">
  <advance width="607"/>
  <unicode hex="0111"/>
  <anchor x="308" y="0" name="bottom"/>
  <anchor x="303" y="264" name="center"/>
  <anchor x="301" y="739" name="top"/>
  <anchor x="513" y="739" name="topright"/>
  <outline>
    <contour>
      <point x="582" y="676" type="line"/>
      <point x="253" y="676" type="line"/>
      <point x="253" y="606" type="line"/>
      <point x="503" y="606" type="line"/>
      <point x="582" y="606" type="line"/>
    </contour>
    <component base="d"/>
  </outline>
</glyph>
<glyph name="Hbar" format="2">
  <advance width="688"/>
  <unicode hex="0126"/>
  <anchor x="344" y="0" name="bottom"/>
  <anchor x="594" y="0" name="bottomright"/>
  <anchor x="344" y="345" name="center"/>
  <anchor x="344" y="689" name="top"/>
  <anchor x="94" y="689" name="topleft"/>
  <outline>
    <contour>
      <point x="653" y="577" type="line"/>
      <point x="584" y="577" type="line"/>
      <point x="35" y="577" type="line"/>
      <point x="35" y="508" type="line"/>
      <point x="104" y="508" type="line"/>
      <point x="653" y="508" type="line"/>
    </contour>
    <component base="H" xOffset="4"/>
  </outline>
</glyph>
<glyph name="hbar" format="2">
  <advance width="592"/>
  <unicode hex="0127"/>
  <anchor x="302" y="0" name="bottom"/>
  <anchor x="298" y="264" name="center"/>
  <anchor x="298" y="739" name="top"/>
  <outline>
    <contour>
      <point x="344" y="676" type="line"/>
      <point x="25" y="676" type="line"/>
      <point x="25" y="606" type="line"/>
      <point x="104" y="606" type="line"/>
      <point x="344" y="606" type="line"/>
    </contour>
    <component base="h" xOffset="6"/>
  </outline>
</glyph>
<glyph name="dotlessi" format="2">
  <advance width="282"/>
  <unicode hex="0131"/>
  <anchor x="141" y="0" name="bottom"/>
  <anchor x="197" y="0" name="ogonek"/>
  <anchor x="141" y="527" name="top"/>
  <outline>
    <contour>
      <point x="187" y="527" type="line"/>
      <point x="95" y="527" type="line"/>
      <point x="95" y="0" type="line"/>
      <point x="187" y="0" type="line"/>
    </contour>
  </outline>
</glyph>
<glyph name="kgreenlandic" format="2">
  <advance width="509"/>
  <unicode hex="0138"/>
  <anchor x="254.5" y="0" name="bottom"/>
  <anchor x="254.5" y="527" name="top"/>
  <outline>
    <contour>
      <point x="487" y="527" type="line"/>
      <point x="384" y="527" type="line"/>
      <point x="190" y="278" type="line"/>
      <point x="399" y="0" type="line"/>
      <point x="509" y="0" type="line"/>
      <point x="293" y="284" type="line"/>
    </contour>
    <contour>
      <point x="187" y="527" type="line"/>
      <point x="95" y="527" type="line"/>
      <point x="95" y="0" type="line"/>
      <point x="187" y="0" type="line"/>
    </contour>
  </outline>
</glyph>
<glyph name="Lslash" format="2">
  <advance width="514"/>
  <unicode hex="0141"/>
  <anchor x="300" y="0" name="bottom"/>
  <anchor x="406" y="390" name="center"/>
  <anchor x="164" y="689" name="top"/>
  <anchor x="231" y="689" name="topright"/>
  <outline>
    <contour>
      <point x="371" y="498" type="line"/>
      <point x="116" y="340" type="line"/>
      <point x="22" y="282" type="line"/>
      <point x="60" y="222" type="line"/>
      <point x="409" y="438" type="line"/>
    </contour>
    <component base="L" xOffset="16"/>
  </outline>
</glyph>
<glyph name="lslash" format="2">
  <advance width="312"/>
  <unicode hex="0142"/>
  <anchor x="184" y="0" name="bottom"/>
  <anchor x="303" y="380" name="center"/>
  <anchor x="142" y="739" name="top"/>
  <anchor x="199" y="739" name="topright"/>
  <outline>
    <contour>
      <point x="45" y="269" type="line"/>
      <point x="312" y="432" type="line"/>
      <point x="279" y="492" type="line"/>
      <point x="96" y="382" type="line"/>
      <point x="10" y="328" type="line"/>
    </contour>
    <component base="l" xOffset="6"/>
  </outline>
</glyph>
<glyph name="napostrophe" format="2">
  <advance width="695"/>
  <unicode hex="0149"/>
  <anchor x="402" y="0" name="bottom"/>
  <anchor x="407" y="527" name="top"/>
  <anchor x="194" y="527" name="topleft"/>
  <outline>
    <contour>
      <point x="103" y="753" type="curve" smooth="yes"/>
      <point x="71" y="753"/>
      <point x="45" y="729"/>
      <point x="45" y="697" type="curve" smooth="yes"/>
      <point x="45" y="678"/>
      <point x="55" y="662"/>
      <point x="69" y="650" type="curve"/>
      <point x="40" y="534" type="line"/>
      <point x="93" y="534" type="line"/>
      <point x="134" y="620" type="line" smooth="yes"/>
      <point x="155" y="664"/>
      <point x="160" y="680"/>
      <point x="160" y="697" type="curve" smooth="yes"/>
      <point x="160" y="729"/>
      <point x="135" y="753"/>
    </contour>
    <component base="n" xOffset="109"/>
  </outline>
</glyph>
<glyph name="Tbar" format="2">
  <advance width="517"/>
  <unicode hex="0166"/>
  <anchor x="259" y="-2" name="bottom"/>
  <anchor x="316" y="-2" name="bottomright"/>
  <anchor x="259" y="343" name="center"/>
  <anchor x="259" y="687" name="top"/>
  <outline>
    <contour>
      <point x="431" y="387" type="line"/>
      <point x="88" y="387" type="line"/>
      <point x="88" y="317" type="line"/>
      <point x="211" y="317" type="line"/>
      <point x="431" y="317" type="line"/>
    </contour>
    <component base="T" yOffset="-2"/>
  </outline>
</glyph>
<glyph name="tbar" format="2">
  <advance width="361"/>
  <unicode hex="0167"/>
  <anchor x="234" y="0" name="bottom"/>
  <anchor x="180" y="264" name="center"/>
  <anchor x="147" y="646" name="top"/>
  <anchor x="189" y="748" name="topright"/>
  <outline>
    <contour>
      <point x="303" y="357" type="line"/>
      <point x="101" y="357" type="line"/>
      <point x="20" y="357" type="line"/>
      <point x="20" y="286" type="line"/>
      <point x="303" y="286" type="line"/>
    </contour>
    <component base="t"/>
  </outline>
</glyph>
<glyph name="bstroke" format="2">
  <advance width="603"/>
  <unicode hex="0180"/>
  <anchor x="317" y="0" name="bottom"/>
  <anchor x="322" y="739" name="top"/>
  <outline>
    <contour>
      <point x="344" y="676" type="line"/>
      <point x="25" y="676" type="line"/>
      <point x="25" y="606" type="line"/>
      <point x="104" y="606" type="line"/>
      <point x="344" y="606" type="line"/>
    </contour>
    <component base="b" xOffset="9"/>
  </outline>
</glyph>
<glyph name="Dtopbar" format="2">
  <advance width="579"/>
  <unicode hex="018B"/>
  <anchor x="289.5" y="0" name="bottom"/>
  <anchor x="289.5" y="689" name="top"/>
  <outline>
    <contour>
      <point x="109" y="689" type="line"/>
      <point x="109" y="611" type="line"/>
      <point x="400" y="611" type="line"/>
      <point x="479" y="689" type="line"/>
    </contour>
    <component base="Komide-cy" xOffset="5"/>
  </outline>
</glyph>
<glyph name="Ereversed" format="2">
  <advance width="535"/>
  <unicode hex="018E"/>
  <outline>
    <contour>
      <point x="60" y="689" type="line"/>
      <point x="60" y="613" type="line"/>
      <point x="340" y="613" type="line"/>
      <point x="340" y="388" type="line"/>
      <point x="108" y="388" type="line"/>
      <point x="108" y="312" type="line"/>
      <point x="340" y="312" type="line"/>
      <point x="340" y="76" type="line"/>
      <point x="54" y="76" type="line"/>
      <point x="54" y="0" type="line"/>
      <point x="435" y="0" type="line"/>
      <point x="435" y="689" type="line"/>
    </contour>
  </outline>
</glyph>
<glyph name="Iotaafrican" format="2">
  <advance width="366"/>
  <unicode hex="0196"/>
  <anchor x="203" y="0" name="bottom"/>
  <anchor x="138" y="689" name="top"/>
  <outline>
    <contour>
      <point x="185" y="689" type="line"/>
      <point x="90" y="689" type="line"/>
      <point x="90" y="201" type="line"/>
      <point x="185" y="201" type="line"/>
    </contour>
    <component base="hookHELPER.case" xScale="-1" xOffset="386" yOffset="201"/>
  </outline>
</glyph>
<glyph name="khook" format="2">
  <advance width="512"/>
  <unicode hex="0199"/>
  <outline>
    <contour>
      <point x="490" y="527" type="line"/>
      <point x="387" y="527" type="line"/>
      <point x="193" y="288" type="line"/>
      <point x="402" y="0" type="line"/>
      <point x="512" y="0" type="line"/>
      <point x="296" y="294" type="line"/>
    </contour>
    <contour>
      <point x="187" y="538" type="line"/>
      <point x="95" y="527" type="line"/>
      <point x="95" y="0" type="line"/>
      <point x="187" y="0" type="line"/>
    </contour>
    <component base="hookaboveHELPER" xOffset="65"/>
  </outline>
</glyph>
<glyph name="Nhookleft" format="2">
  <advance width="683"/>
  <unicode hex="019D"/>
  <anchor x="343" y="0" name="bottom"/>
  <anchor x="353" y="689" name="top"/>
  <outline>
    <contour>
      <point x="41" y="-213" type="curve" smooth="yes"/>
      <point x="130" y="-213"/>
      <point x="189" y="-161"/>
      <point x="189" y="-59" type="curve" smooth="yes"/>
      <point x="189" y="1" type="line"/>
      <point x="100" y="1" type="line"/>
      <point x="100" y="-65" type="line" smooth="yes"/>
      <point x="100" y="-118"/>
      <point x="75" y="-139"/>
      <point x="36" y="-139" type="curve" smooth="yes"/>
      <point x="3" y="-139"/>
      <point x="-15" y="-130"/>
      <point x="-38" y="-116" type="curve"/>
      <point x="-74" y="-175" type="line"/>
      <point x="-49" y="-194"/>
      <point x="-12" y="-213"/>
    </contour>
    <component base="N"/>
  </outline>
</glyph>
<glyph name="nlegrightlong" format="2">
  <advance width="586"/>
  <unicode hex="019E"/>
  <anchor x="293" y="0" name="bottom"/>
  <anchor x="298" y="527" name="top"/>
  <anchor x="85" y="527" name="topleft"/>
  <outline>
    <contour>
      <point x="496" y="1" type="line"/>
      <point x="404" y="1" type="line"/>
      <point x="404" y="-202" type="line"/>
      <point x="496" y="-213" type="line"/>
    </contour>
    <component base="n"/>
  </outline>
</glyph>
<glyph name="Yhook" format="2">
  <advance width="586"/>
  <unicode hex="01B3"/>
  <anchor x="293" y="0" name="bottom"/>
  <anchor x="293" y="689" name="top"/>
  <anchor x="5" y="689" name="topleft"/>
  <outline>
    <contour>
      <point x="227" y="0" type="line"/>
      <point x="323" y="0" type="line"/>
      <point x="323" y="265" type="line"/>
      <point x="467" y="561" type="line" smooth="yes"/>
      <point x="493" y="614"/>
      <point x="511" y="629"/>
      <point x="542" y="629" type="curve" smooth="yes"/>
      <point x="569" y="629"/>
      <point x="589" y="619"/>
      <point x="605" y="607" type="curve"/>
      <point x="641" y="661" type="line"/>
      <point x="612" y="684"/>
      <point x="580" y="701"/>
      <point x="536" y="701" type="curve" smooth="yes"/>
      <point x="465" y="701"/>
      <point x="425" y="668"/>
      <point x="388" y="587" type="curve" smooth="yes"/>
      <point x="278" y="348" type="line"/>
      <point x="110" y="689" type="line"/>
      <point x="5" y="689" type="line"/>
      <point x="227" y="264" type="line"/>
    </contour>
  </outline>
</glyph>
<glyph name="Zstroke" format="2">
  <advance width="522"/>
  <unicode hex="01B5"/>
  <anchor x="261" y="0" name="bottom"/>
  <anchor x="261" y="689" name="top"/>
  <outline>
    <contour>
      <point x="477" y="689" type="line"/>
      <point x="66" y="689" type="line"/>
      <point x="66" y="609" type="line"/>
      <point x="378" y="609" type="line"/>
      <point x="30" y="76" type="line"/>
      <point x="30" y="0" type="line"/>
      <point x="466" y="0" type="line"/>
      <point x="477" y="81" type="line"/>
      <point x="132" y="81" type="line"/>
      <point x="477" y="612" type="line"/>
    </contour>
    <component base="hyphen" xScale="1.2" yScale="0.95" xOffset="22" yOffset="50"/>
  </outline>
</glyph>
<glyph name="zstroke" format="2">
  <advance width="437"/>
  <unicode hex="01B6"/>
  <anchor x="218.5" y="0" name="bottom"/>
  <anchor x="218.5" y="527" name="top"/>
  <outline>
    <contour>
      <point x="404" y="527" type="line"/>
      <point x="48" y="527" type="line"/>
      <point x="48" y="449" type="line"/>
      <point x="302" y="449" type="line"/>
      <point x="25" y="69" type="line"/>
      <point x="25" y="0" type="line"/>
      <point x="396" y="0" type="line"/>
      <point x="407" y="77" type="line"/>
      <point x="126" y="77" type="line"/>
      <point x="404" y="457" type="line"/>
    </contour>
    <component base="hyphen" xScale="1.1" yScale="0.9" xOffset="-5" yOffset="-18"/>
  </outline>
</glyph>
<glyph name="glottalinvertedstroke" format="2">
  <advance width="513"/>
  <unicode hex="01BE"/>
  <anchor x="231" y="0" name="bottom"/>
  <anchor x="211" y="739" name="top"/>
  <outline>
    <contour>
      <point x="84" y="615" type="line"/>
      <point x="84" y="545" type="line"/>
      <point x="162" y="545" type="line"/>
      <point x="362" y="545" type="line"/>
      <point x="362" y="615" type="line"/>
    </contour>
    <component base="glottalstopinverted"/>
  </outline>
</glyph>
<glyph name="Nlongrightleg" format="2">
  <advance width="672"/>
  <unicode hex="0220"/>
  <anchor x="336" y="-202" name="bottom"/>
  <anchor x="336" y="689" name="top"/>
  <outline>
    <contour>
      <point x="394" y="701" type="curve" smooth="yes"/>
      <point x="300" y="701"/>
      <point x="235" y="657"/>
      <point x="179" y="594" type="curve"/>
      <point x="195" y="530" type="line"/>
      <point x="250" y="586"/>
      <point x="295" y="623"/>
      <point x="374" y="623" type="curve" smooth="yes"/>
      <point x="452" y="623"/>
      <point x="484" y="577"/>
      <point x="484" y="488" type="curve" smooth="yes"/>
      <point x="484" y="-202" type="line"/>
      <point x="579" y="-202" type="line"/>
      <point x="579" y="507" type="line" smooth="yes"/>
      <point x="579" y="617"/>
      <point x="522" y="701"/>
    </contour>
    <contour>
      <point x="182" y="689" type="line"/>
      <point x="100" y="689" type="line"/>
      <point x="100" y="0" type="line"/>
      <point x="195" y="0" type="line"/>
      <point x="195" y="560" type="line"/>
    </contour>
  </outline>
</glyph>
<glyph name="ou" format="2">
  <advance width="578"/>
  <unicode hex="0223"/>
  <anchor x="289" y="0" name="bottom"/>
  <anchor x="289" y="739" name="top"/>
  <outline>
    <contour>
      <point x="289" y="424" type="curve" smooth="yes"/>
      <point x="144" y="424"/>
      <point x="57" y="344"/>
      <point x="57" y="214" type="curve" smooth="yes"/>
      <point x="57" y="90"/>
      <point x="144" y="-12"/>
      <point x="289" y="-12" type="curve" smooth="yes"/>
      <point x="435" y="-12"/>
      <point x="521" y="94"/>
      <point x="521" y="215" type="curve" smooth="yes"/>
      <point x="521" y="350"/>
      <point x="435" y="424"/>
    </contour>
    <contour>
      <point x="289" y="366" type="curve" smooth="yes"/>
      <point x="380" y="366"/>
      <point x="422" y="314"/>
      <point x="422" y="215" type="curve" smooth="yes"/>
      <point x="422" y="108"/>
      <point x="378" y="62"/>
      <point x="289" y="62" type="curve" smooth="yes"/>
      <point x="204" y="62"/>
      <point x="156" y="108"/>
      <point x="156" y="214" type="curve" smooth="yes"/>
      <point x="156" y="314"/>
      <point x="201" y="366"/>
    </contour>
    <contour>
      <point x="485" y="739" type="line"/>
      <point x="393" y="739" type="line"/>
      <point x="393" y="557" type="line" smooth="yes"/>
      <point x="393" y="492"/>
      <point x="362" y="437"/>
      <point x="290" y="437" type="curve" smooth="yes"/>
      <point x="219" y="437"/>
      <point x="187" y="480"/>
      <point x="187" y="557" type="curve" smooth="yes"/>
      <point x="187" y="739" type="line"/>
      <point x="95" y="739" type="line"/>
      <point x="95" y="557" type="line" smooth="yes"/>
      <point x="95" y="458"/>
      <point x="160" y="389"/>
      <point x="290" y="379" type="curve"/>
      <point x="408" y="389"/>
      <point x="485" y="456"/>
      <point x="485" y="557" type="curve" smooth="yes"/>
    </contour>
  </outline>
</glyph>
<glyph name="Astroke" format="2">
  <advance width="573"/>
  <unicode hex="023A"/>
  <anchor x="286.5" y="0" name="bottom"/>
  <anchor x="286.5" y="689" name="top"/>
  <outline>
    <contour>
      <point x="384" y="750" type="line"/>
      <point x="169" y="-59" type="line"/>
      <point x="214" y="-70" type="line"/>
      <point x="429" y="739" type="line"/>
    </contour>
    <contour>
      <point x="347" y="689" type="line"/>
      <point x="227" y="689" type="line"/>
      <point x="6" y="0" type="line"/>
      <point x="99" y="0" type="line"/>
      <point x="285" y="620" type="line"/>
      <point x="470" y="0" type="line"/>
      <point x="567" y="0" type="line"/>
    </contour>
    <contour>
      <point x="407" y="247" type="line"/>
      <point x="162" y="247" type="line"/>
      <point x="139" y="173" type="line"/>
      <point x="430" y="173" type="line"/>
    </contour>
  </outline>
</glyph>
<glyph name="Cstroke" format="2">
  <advance width="560"/>
  <unicode hex="023B"/>
  <anchor x="280" y="0" name="bottom"/>
  <anchor x="341" y="346" name="center"/>
  <anchor x="280" y="689" name="top"/>
  <outline>
    <contour>
      <point x="419" y="750" type="line"/>
      <point x="204" y="-59" type="line"/>
      <point x="249" y="-70" type="line"/>
      <point x="464" y="739" type="line"/>
    </contour>
    <component base="C"/>
  </outline>
</glyph>
<glyph name="cstroke" format="2">
  <advance width="478"/>
  <unicode hex="023C"/>
  <anchor x="284" y="0" name="bottom"/>
  <anchor x="289" y="527" name="top"/>
  <outline>
    <contour>
      <point x="343" y="595" type="line"/>
      <point x="164" y="-59" type="line"/>
      <point x="207" y="-70" type="line"/>
      <point x="386" y="584" type="line"/>
    </contour>
    <component base="c"/>
  </outline>
</glyph>
<glyph name="Ubar" format="2">
  <advance width="690"/>
  <unicode hex="0244"/>
  <anchor x="345" y="0" name="bottom"/>
  <anchor x="442" y="0" name="ogonek"/>
  <anchor x="345" y="689" name="top"/>
  <anchor x="596" y="689" name="topright"/>
  <outline>
    <contour>
      <point x="655" y="577" type="line"/>
      <point x="586" y="577" type="line"/>
      <point x="35" y="577" type="line"/>
      <point x="35" y="508" type="line"/>
      <point x="104" y="508" type="line"/>
      <point x="655" y="508" type="line"/>
    </contour>
    <component base="U" xOffset="14"/>
  </outline>
</glyph>
<glyph name="Estroke" format="2">
  <advance width="535"/>
  <unicode hex="0246"/>
  <anchor x="267.5" y="0" name="bottom"/>
  <anchor x="451" y="0" name="ogonek"/>
  <anchor x="267.5" y="689" name="top"/>
  <anchor x="90" y="689" name="topleft"/>
  <outline>
    <contour>
      <point x="384" y="750" type="line"/>
      <point x="169" y="-59" type="line"/>
      <point x="214" y="-70" type="line"/>
      <point x="429" y="739" type="line"/>
    </contour>
    <component base="E"/>
  </outline>
</glyph>
<glyph name="Rstroke" format="2">
  <advance width="616"/>
  <unicode hex="024C"/>
  <anchor x="320" y="0" name="bottom"/>
  <anchor x="310" y="689" name="top"/>
  <outline>
    <contour>
      <point x="251" y="292" type="line"/>
      <point x="233" y="365" type="line"/>
      <point x="112" y="365" type="line"/>
      <point x="20" y="365" type="line"/>
      <point x="20" y="292" type="line"/>
    </contour>
    <component base="R" xOffset="11"/>
  </outline>
</glyph>
<glyph name="jdotlessstroke" format="2">
  <advance width="313"/>
  <unicode hex="025F"/>
  <anchor x="156" y="-202" name="bottom"/>
  <anchor x="157" y="527" name="top"/>
  <outline>
    <contour>
      <point x="15" y="217" type="line"/>
      <point x="298" y="217" type="line"/>
      <point x="298" y="287" type="line"/>
      <point x="15" y="287" type="line"/>
    </contour>
    <component base="dotlessj" xOffset="17"/>
  </outline>
</glyph>
<glyph name="hhook" format="2">
  <advance width="586"/>
  <unicode hex="0266"/>
  <anchor x="293" y="0" name="bottom"/>
  <anchor x="293" y="739" name="top"/>
  <outline>
    <contour>
      <point x="343" y="539" type="curve" smooth="yes"/>
      <point x="267" y="539"/>
      <point x="209" y="495"/>
      <point x="171" y="430" type="curve"/>
      <point x="187" y="375" type="line"/>
      <point x="222" y="430"/>
      <point x="263" y="467"/>
      <point x="320" y="467" type="curve" smooth="yes"/>
      <point x="370" y="467"/>
      <point x="404" y="444"/>
      <point x="404" y="365" type="curve" smooth="yes"/>
      <point x="404" y="0" type="line"/>
      <point x="496" y="0" type="line"/>
      <point x="496" y="378" type="line" smooth="yes"/>
      <point x="496" y="477"/>
      <point x="439" y="539"/>
    </contour>
    <contour>
      <point x="187" y="537" type="line"/>
      <point x="95" y="527" type="line"/>
      <point x="95" y="0" type="line"/>
      <point x="187" y="0" type="line"/>
    </contour>
    <component base="hookaboveHELPER" xOffset="65"/>
  </outline>
</glyph>
<glyph name="Ismall" format="2">
  <advance width="333"/>
  <unicode hex="026A"/>
  <anchor x="167" y="0" name="bottom"/>
  <anchor x="167" y="527" name="top"/>
  <outline>
    <contour>
      <point x="120" y="0" type="line"/>
      <point x="212" y="0" type="line"/>
      <point x="212" y="527" type="line"/>
      <point x="120" y="527" type="line"/>
    </contour>
    <contour>
      <point x="25" y="0" type="line"/>
      <point x="308" y="0" type="line"/>
      <point x="308" y="72" type="line"/>
      <point x="25" y="72" type="line"/>
    </contour>
    <contour>
      <point x="25" y="455" type="line"/>
      <point x="308" y="455" type="line"/>
      <point x="308" y="527" type="line"/>
      <point x="25" y="527" type="line"/>
    </contour>
  </outline>
</glyph>
<glyph name="lhookretroflex" format="2">
  <advance width="282"/>
  <unicode hex="026D"/>
  <anchor x="243" y="-202" name="bottom"/>
  <anchor x="141" y="739" name="top"/>
  <outline>
    <contour>
      <point x="95" y="0" type="line"/>
      <point x="187" y="0" type="line"/>
      <point x="187" y="750" type="line"/>
      <point x="95" y="739" type="line"/>
    </contour>
    <component base="hookHELPER" xScale="-1" xOffset="391"/>
  </outline>
</glyph>
<glyph name="mlonglegturned" format="2">
  <advance width="857"/>
  <unicode hex="0270"/>
  <anchor x="429" y="527" name="top"/>
  <anchor x="429" y="-202" name="bottom"/>
  <outline>
    <contour>
      <point x="670" y="109" type="line"/>
      <point x="670" y="-202" type="line"/>
      <point x="762" y="-213" type="line"/>
      <point x="762" y="109" type="line"/>
    </contour>
    <component base="mturned"/>
  </outline>
</glyph>
<glyph name="rlonglegturned" format="2">
  <advance width="386"/>
  <unicode hex="027A"/>
  <anchor x="245" y="739" name="top"/>
  <anchor x="157" y="0" name="bottom"/>
  <outline>
    <contour>
      <point x="199" y="526" type="line"/>
      <point x="291" y="526" type="line"/>
      <point x="291" y="739" type="line"/>
      <point x="199" y="750" type="line"/>
    </contour>
    <component base="rturned"/>
  </outline>
</glyph>
<glyph name="rhookturned" format="2">
  <advance width="386"/>
  <unicode hex="027B"/>
  <anchor x="220" y="-202" name="bottom"/>
  <anchor x="245" y="527" name="top"/>
  <outline>
    <contour>
      <point x="62" y="-12" type="curve" smooth="yes"/>
      <point x="129" y="-12"/>
      <point x="180" y="32"/>
      <point x="207" y="120" type="curve"/>
      <point x="204" y="252" type="line"/>
      <point x="183" y="133"/>
      <point x="144" y="78"/>
      <point x="73" y="78" type="curve" smooth="yes"/>
      <point x="54" y="78"/>
      <point x="43" y="80"/>
      <point x="27" y="84" type="curve"/>
      <point x="10" y="-6" type="line"/>
      <point x="26" y="-10"/>
      <point x="45" y="-12"/>
    </contour>
    <contour>
      <point x="199" y="0" type="line"/>
      <point x="291" y="0" type="line"/>
      <point x="291" y="527" type="line"/>
      <point x="199" y="527" type="line"/>
      <point x="199" y="212" type="line"/>
      <point x="199" y="117" type="line"/>
    </contour>
    <component base="hookHELPER" xScale="-1" xOffset="495"/>
  </outline>
</glyph>
<glyph name="rlongleg" format="2">
  <advance width="386"/>
  <unicode hex="027C"/>
  <anchor x="141" y="-202" name="bottom"/>
  <anchor x="238" y="527" name="top"/>
  <outline>
    <contour>
      <point x="95" y="1" type="line"/>
      <point x="95" y="-213" type="line"/>
      <point x="187" y="-202" type="line"/>
      <point x="187" y="1" type="line"/>
    </contour>
    <component base="r"/>
  </outline>
</glyph>
<glyph name="rfishhook" format="2">
  <advance width="368"/>
  <unicode hex="027E"/>
  <anchor x="136" y="0" name="bottom"/>
  <anchor x="241" y="527" name="top"/>
  <outline>
    <contour>
      <point x="182" y="328" type="line"/>
      <point x="90" y="328" type="line"/>
      <point x="90" y="0" type="line"/>
      <point x="182" y="0" type="line"/>
    </contour>
    <component base="hookHELPER" xScale="-1" yScale="-1" xOffset="386" yOffset="328"/>
  </outline>
</glyph>
<glyph name="esh" format="2">
  <advance width="300"/>
  <unicode hex="0283"/>
  <anchor x="51" y="-202" name="bottom"/>
  <anchor x="258" y="739" name="top"/>
  <outline>
    <contour>
      <point x="196" y="527" type="line"/>
      <point x="104" y="527" type="line"/>
      <point x="104" y="0" type="line"/>
      <point x="196" y="0" type="line"/>
    </contour>
    <component base="hookaboveHELPER2" xOffset="74"/>
    <component base="hookHELPER" xOffset="-100"/>
  </outline>
</glyph>
<glyph name="jdotlessstrokehook" format="2">
  <advance width="313"/>
  <unicode hex="0284"/>
  <anchor x="156" y="-202" name="bottom"/>
  <anchor x="258" y="739" name="top"/>
  <outline>
    <contour>
      <point x="35" y="-212" type="line"/>
      <point x="147" y="-162"/>
      <point x="202" y="-117"/>
      <point x="202" y="32" type="curve" smooth="yes"/>
      <point x="202" y="527" type="line"/>
      <point x="110" y="527" type="line"/>
      <point x="110" y="16" type="line" smooth="yes"/>
      <point x="110" y="-87"/>
      <point x="77" y="-113"/>
      <point x="8" y="-145" type="curve"/>
    </contour>
    <contour>
      <point x="15" y="0" type="line"/>
      <point x="298" y="0" type="line"/>
      <point x="298" y="70" type="line"/>
      <point x="15" y="70" type="line"/>
    </contour>
    <component base="hookaboveHELPER2" xOffset="80"/>
  </outline>
</glyph>
<glyph name="tretroflexhook" format="2">
  <advance width="361"/>
  <unicode hex="0288"/>
  <anchor x="252" y="-202" name="bottom"/>
  <anchor x="147" y="641" name="top"/>
  <outline>
    <contour>
      <point x="101" y="0" type="line"/>
      <point x="193" y="0" type="line"/>
      <point x="193" y="657" type="line"/>
      <point x="101" y="646" type="line"/>
    </contour>
    <contour>
      <point x="9" y="456" type="line"/>
      <point x="308" y="456" type="line"/>
      <point x="318" y="527" type="line"/>
      <point x="9" y="527" type="line"/>
    </contour>
    <component base="hookHELPER" xScale="-1" xOffset="397"/>
  </outline>
</glyph>
<glyph name="ubar" format="2">
  <advance width="607"/>
  <unicode hex="0289"/>
  <anchor x="304" y="0" name="bottom"/>
  <anchor x="507" y="0" name="ogonek"/>
  <anchor x="304" y="527" name="top"/>
  <anchor x="507" y="527" name="topright"/>
  <outline>
    <contour>
      <point x="15" y="317" type="line"/>
      <point x="100" y="317" type="line"/>
      <point x="582" y="317" type="line"/>
      <point x="582" y="387" type="line"/>
      <point x="497" y="387" type="line"/>
      <point x="15" y="387" type="line"/>
    </contour>
    <component base="u" xOffset="10"/>
  </outline>
</glyph>
<glyph name="bilabialclick" format="2">
  <advance width="792"/>
  <unicode hex="0298"/>
  <anchor x="394" y="348" name="_center"/>
  <anchor x="396" y="689" name="top"/>
  <anchor x="396" y="0" name="bottom"/>
  <outline>
    <contour>
      <point x="396" y="701" type="curve" smooth="yes"/>
      <point x="199" y="701"/>
      <point x="55" y="566"/>
      <point x="55" y="344" type="curve" smooth="yes"/>
      <point x="55" y="116"/>
      <point x="199" y="-12"/>
      <point x="396" y="-12" type="curve" smooth="yes"/>
      <point x="594" y="-12"/>
      <point x="737" y="120"/>
      <point x="737" y="345" type="curve" smooth="yes"/>
      <point x="737" y="572"/>
      <point x="594" y="701"/>
    </contour>
    <contour>
      <point x="396" y="627" type="curve" smooth="yes"/>
      <point x="546" y="627"/>
      <point x="648" y="538"/>
      <point x="648" y="345" type="curve" smooth="yes"/>
      <point x="648" y="147"/>
      <point x="544" y="62"/>
      <point x="396" y="62" type="curve" smooth="yes"/>
      <point x="252" y="62"/>
      <point x="144" y="147"/>
      <point x="144" y="344" type="curve" smooth="yes"/>
      <point x="144" y="538"/>
      <point x="249" y="627"/>
    </contour>
    <component base="dotaccentcomb" xOffset="300" yOffset="-372"/>
  </outline>
</glyph>
<glyph name="qhook" format="2">
  <advance width="593"/>
  <unicode hex="02A0"/>
  <anchor x="297" y="-202" name="bottom"/>
  <anchor x="297" y="739" name="top"/>
  <outline>
    <contour>
      <point x="256" y="-12" type="curve" smooth="yes"/>
      <point x="327" y="-12"/>
      <point x="384" y="26"/>
      <point x="417" y="88" type="curve"/>
      <point x="414" y="151" type="line"/>
      <point x="376" y="94"/>
      <point x="339" y="61"/>
      <point x="276" y="61" type="curve" smooth="yes"/>
      <point x="200" y="61"/>
      <point x="156" y="124"/>
      <point x="156" y="263" type="curve" smooth="yes"/>
      <point x="156" y="400"/>
      <point x="205" y="466"/>
      <point x="284" y="466" type="curve" smooth="yes"/>
      <point x="341" y="466"/>
      <point x="380" y="434"/>
      <point x="415" y="385" type="curve"/>
      <point x="416" y="458" type="line"/>
      <point x="380" y="505"/>
      <point x="332" y="539"/>
      <point x="264" y="539" type="curve" smooth="yes"/>
      <point x="135" y="539"/>
      <point x="57" y="422"/>
      <point x="57" y="261" type="curve" smooth="yes"/>
      <point x="57" y="97"/>
      <point x="128" y="-12"/>
    </contour>
    <contour>
      <point x="498" y="-213" type="line"/>
      <point x="498" y="527" type="line"/>
      <point x="406" y="527" type="line"/>
      <point x="406" y="-202" type="line"/>
    </contour>
    <component base="hookaboveHELPER2" xOffset="376"/>
  </outline>
</glyph>
<glyph name="glottalstopstroke" format="2">
  <advance width="441"/>
  <unicode hex="02A1"/>
  <anchor x="178" y="0" name="bottom"/>
  <anchor x="191" y="739" name="top"/>
  <outline>
    <contour>
      <point x="64" y="215" type="line"/>
      <point x="64" y="145" type="line"/>
      <point x="132" y="145" type="line"/>
      <point x="332" y="145" type="line"/>
      <point x="332" y="215" type="line"/>
    </contour>
    <component base="glottalstop"/>
  </outline>
</glyph>
<glyph name="glottalstopstrokereversed" format="2">
  <advance width="442"/>
  <unicode hex="02A2"/>
  <anchor x="264" y="0" name="bottom"/>
  <anchor x="257" y="739" name="top"/>
  <outline>
    <contour>
      <point x="378" y="215" type="line"/>
      <point x="110" y="215" type="line"/>
      <point x="110" y="145" type="line"/>
      <point x="310" y="145" type="line"/>
      <point x="378" y="145" type="line"/>
    </contour>
    <component base="glottalstopreversed"/>
  </outline>
</glyph>
<glyph name="dzaltone" format="2">
  <advance width="915"/>
  <unicode hex="02A3"/>
  <anchor x="457.5" y="0" name="bottom"/>
  <anchor x="303" y="264" name="center"/>
  <anchor x="457.5" y="739" name="top"/>
  <anchor x="513" y="739" name="topright"/>
  <outline>
    <contour>
      <point x="882" y="527" type="line"/>
      <point x="496" y="527" type="line"/>
      <point x="496" y="449" type="line"/>
      <point x="782" y="449" type="line"/>
      <point x="503" y="69" type="line"/>
      <point x="503" y="0" type="line"/>
      <point x="874" y="0" type="line"/>
      <point x="885" y="77" type="line"/>
      <point x="602" y="77" type="line"/>
      <point x="882" y="457" type="line"/>
    </contour>
    <component base="d"/>
  </outline>
</glyph>
<glyph name="dzcurl" format="2">
  <advance width="929"/>
  <unicode hex="02A5"/>
  <anchor x="464.5" y="-202" name="bottom"/>
  <anchor x="303" y="264" name="center"/>
  <anchor x="464.5" y="739" name="top"/>
  <anchor x="513" y="739" name="topright"/>
  <outline>
    <contour>
      <point x="502" y="0" type="line"/>
      <point x="744" y="0" type="line"/>
      <point x="755" y="77" type="line"/>
      <point x="606" y="77" type="line"/>
      <point x="881" y="457" type="line"/>
      <point x="881" y="527" type="line"/>
      <point x="495" y="527" type="line"/>
      <point x="495" y="449" type="line"/>
      <point x="776" y="449" type="line"/>
      <point x="502" y="69" type="line"/>
    </contour>
    <contour>
      <point x="692" y="-122" type="curve"/>
      <point x="760" y="-122" type="line"/>
      <point x="760" y="-73"/>
      <point x="760" y="-31"/>
      <point x="767" y="16" type="curve"/>
      <point x="774" y="46" type="line"/>
      <point x="784" y="134"/>
      <point x="811" y="153"/>
      <point x="840" y="153" type="curve" smooth="yes"/>
      <point x="860" y="153"/>
      <point x="872" y="142"/>
      <point x="872" y="120" type="curve" smooth="yes"/>
      <point x="872" y="82"/>
      <point x="838" y="77"/>
      <point x="749" y="77" type="curve"/>
      <point x="758" y="0" type="line"/>
      <point x="879" y="0"/>
      <point x="949" y="35"/>
      <point x="949" y="119" type="curve" smooth="yes"/>
      <point x="949" y="180"/>
      <point x="904" y="214"/>
      <point x="846" y="214" type="curve" smooth="yes"/>
      <point x="775" y="214"/>
      <point x="723" y="170"/>
      <point x="707" y="66" type="curve"/>
      <point x="697" y="0" type="line"/>
      <point x="693" y="-41"/>
      <point x="692" y="-79"/>
    </contour>
    <component base="d"/>
  </outline>
</glyph>
<glyph name="tesh" format="2">
  <advance width="592"/>
  <unicode hex="02A7"/>
  <anchor x="280" y="-202" name="bottom"/>
  <anchor x="281" y="739" name="top"/>
  <outline>
    <contour>
      <point x="193" y="657" type="line"/>
      <point x="101" y="646" type="line"/>
      <point x="101" y="148" type="line" smooth="yes"/>
      <point x="101" y="40"/>
      <point x="157" y="-12"/>
      <point x="273" y="-12" type="curve" smooth="yes"/>
      <point x="328" y="-12"/>
      <point x="365" y="0"/>
      <point x="401" y="14" type="curve"/>
      <point x="417" y="83" type="line"/>
      <point x="370" y="72"/>
      <point x="329" y="64"/>
      <point x="276" y="64" type="curve" smooth="yes"/>
      <point x="218" y="64"/>
      <point x="193" y="89"/>
      <point x="193" y="152" type="curve" smooth="yes"/>
    </contour>
    <contour>
      <point x="418" y="527" type="line"/>
      <point x="9" y="527" type="line"/>
      <point x="9" y="456" type="line"/>
      <point x="408" y="456" type="line"/>
    </contour>
    <component base="esh" xOffset="292"/>
  </outline>
</glyph>
<glyph name="primemod" format="2">
  <advance width="304"/>
  <unicode hex="02B9"/>
  <outline>
    <contour>
      <point x="60" y="427" type="line"/>
      <point x="129" y="427" type="line"/>
      <point x="244" y="689" type="line"/>
      <point x="145" y="689" type="line"/>
    </contour>
  </outline>
</glyph>
<glyph name="colontriangularhalfmod" format="2">
  <advance width="247"/>
  <unicode hex="02D1"/>
  <outline>
    <contour>
      <point x="110" y="333" type="line"/>
      <point x="135" y="333" type="line"/>
      <point x="196" y="487" type="line"/>
      <point x="50" y="487" type="line"/>
    </contour>
  </outline>
</glyph>
<glyph name="uptackmod" format="2">
  <advance width="424"/>
  <unicode hex="02D4"/>
  <outline>
    <contour>
      <point x="362" y="249" type="line"/>
      <point x="243" y="249" type="line"/>
      <point x="243" y="409" type="line"/>
      <point x="180" y="409" type="line"/>
      <point x="180" y="249" type="line"/>
      <point x="62" y="249" type="line"/>
      <point x="62" y="190" type="line"/>
      <point x="362" y="190" type="line"/>
    </contour>
  </outline>
</glyph>
<glyph name="tonebarextralowmod" format="2">
  <advance width="344"/>
  <unicode hex="02E9"/>
  <outline>
    <contour>
      <point x="240" y="689" type="line"/>
      <point x="240" y="67" type="line"/>
      <point x="30" y="67" type="line"/>
      <point x="30" y="0" type="line"/>
      <point x="314" y="0" type="line"/>
      <point x="314" y="689" type="line"/>
    </contour>
  </outline>
</glyph>
<glyph name="gravecomb" format="2">
  <unicode hex="0300"/>
  <anchor x="140" y="527" name="_top"/>
  <anchor x="152" y="801" name="top"/>
  <outline>
    <contour>
      <point x="71" y="801" type="line"/>
      <point x="30" y="724" type="line"/>
      <point x="242" y="638" type="line"/>
      <point x="270" y="687" type="line"/>
    </contour>
  </outline>
</glyph>
<glyph name="acutecomb" format="2">
  <unicode hex="0301"/>
  <anchor x="150" y="527" name="_top"/>
  <anchor x="152" y="801" name="top"/>
  <outline>
    <contour>
      <point x="229" y="801" type="line"/>
      <point x="30" y="687" type="line"/>
      <point x="58" y="638" type="line"/>
      <point x="270" y="724" type="line"/>
    </contour>
  </outline>
</glyph>
<glyph name="circumflexcomb" format="2">
  <unicode hex="0302"/>
  <anchor x="196" y="527" name="_top"/>
  <anchor x="198" y="792" name="top"/>
  <outline>
    <contour>
      <point x="69" y="634" type="line"/>
      <point x="196" y="718" type="line"/>
      <point x="322" y="634" type="line"/>
      <point x="362" y="679" type="line"/>
      <point x="226" y="792" type="line"/>
      <point x="165" y="792" type="line"/>
      <point x="30" y="679" type="line"/>
    </contour>
  </outline>
</glyph>
<glyph name="macroncomb" format="2">
  <unicode hex="0304"/>
  <anchor x="167" y="527" name="_top"/>
  <anchor x="169" y="736" name="top"/>
  <outline>
    <contour>
      <point x="303" y="667" type="line"/>
      <point x="303" y="736" type="line"/>
      <point x="30" y="736" type="line"/>
      <point x="30" y="667" type="line"/>
    </contour>
  </outline>
</glyph>
<glyph name="dotaccentcomb" format="2">
  <unicode hex="0307"/>
  <anchor x="94" y="720" name="_center"/>
  <anchor x="95" y="527" name="_top"/>
  <anchor x="97" y="780" name="top"/>
  <outline>
    <contour>
      <point x="94" y="780" type="curve" smooth="yes"/>
      <point x="56" y="780"/>
      <point x="30" y="753"/>
      <point x="30" y="717" type="curve" smooth="yes"/>
      <point x="30" y="682"/>
      <point x="56" y="655"/>
      <point x="94" y="655" type="curve" smooth="yes"/>
      <point x="133" y="655"/>
      <point x="159" y="682"/>
      <point x="159" y="717" type="curve" smooth="yes"/>
      <point x="159" y="753"/>
      <point x="133" y="780"/>
    </contour>
  </outline>
</glyph>
<glyph name="caroncomb" format="2">
  <unicode hex="030C"/>
  <anchor x="196" y="527" name="_top"/>
  <anchor x="198" y="785" name="top"/>
  <outline>
    <contour>
      <point x="323" y="785" type="line"/>
      <point x="196" y="701" type="line"/>
      <point x="70" y="785" type="line"/>
      <point x="30" y="740" type="line"/>
      <point x="166" y="627" type="line"/>
      <point x="227" y="627" type="line"/>
      <point x="362" y="740" type="line"/>
    </contour>
  </outline>
</glyph>
<glyph name="lefttackbelowcomb" format="2">
  <unicode hex="0318"/>
  <anchor x="132" y="0" name="_bottom"/>
  <anchor x="134" y="-353" name="bottom"/>
  <outline>
    <contour>
      <point x="170" y="-63" type="line"/>
      <point x="170" y="-180" type="line"/>
      <point x="30" y="-180" type="line"/>
      <point x="30" y="-237" type="line"/>
      <point x="170" y="-237" type="line"/>
      <point x="170" y="-353" type="line"/>
      <point x="234" y="-353" type="line"/>
      <point x="234" y="-63" type="line"/>
    </contour>
  </outline>
</glyph>
<glyph name="leftangleabovecomb" format="2">
  <unicode hex="031A"/>
  <anchor x="122" y="527" name="_top"/>
  <anchor x="124" y="779" name="top"/>
  <outline>
    <contour>
      <point x="30" y="779" type="line"/>
      <point x="30" y="720" type="line"/>
      <point x="150" y="720" type="line"/>
      <point x="150" y="594" type="line"/>
      <point x="213" y="594" type="line"/>
      <point x="213" y="779" type="line"/>
    </contour>
  </outline>
</glyph>
<glyph name="commaaccentcomb" format="2">
  <unicode hex="0326"/>
  <anchor x="90" y="0" name="_bottom"/>
  <outline>
    <contour>
      <point x="93" y="-77" type="curve" smooth="yes"/>
      <point x="61" y="-77"/>
      <point x="35" y="-101"/>
      <point x="35" y="-133" type="curve" smooth="yes"/>
      <point x="35" y="-152"/>
      <point x="45" y="-168"/>
      <point x="59" y="-180" type="curve"/>
      <point x="30" y="-296" type="line"/>
      <point x="83" y="-296" type="line"/>
      <point x="124" y="-210" type="line" smooth="yes"/>
      <point x="145" y="-166"/>
      <point x="150" y="-150"/>
      <point x="150" y="-133" type="curve" smooth="yes"/>
      <point x="150" y="-101"/>
      <point x="125" y="-77"/>
    </contour>
  </outline>
</glyph>
<glyph name="bridgebelowcomb" format="2">
  <unicode hex="032A"/>
  <anchor x="170" y="0" name="_bottom"/>
  <anchor x="172" y="-240" name="bottom"/>
  <outline>
    <contour>
      <point x="30" y="-240" type="line"/>
      <point x="93" y="-240" type="line"/>
      <point x="93" y="-150" type="line"/>
      <point x="247" y="-150" type="line"/>
      <point x="247" y="-240" type="line"/>
      <point x="310" y="-240" type="line"/>
      <point x="310" y="-91" type="line"/>
      <point x="30" y="-91" type="line"/>
    </contour>
  </outline>
</glyph>
<glyph name="circumflexbelowcomb" format="2">
  <unicode hex="032D"/>
  <anchor x="196" y="0" name="_bottom"/>
  <anchor x="198" y="-206" name="bottom"/>
  <outline>
    <contour>
      <point x="69" y="-226" type="line"/>
      <point x="196" y="-142" type="line"/>
      <point x="322" y="-226" type="line"/>
      <point x="362" y="-181" type="line"/>
      <point x="226" y="-68" type="line"/>
      <point x="165" y="-68" type="line"/>
      <point x="30" y="-181" type="line"/>
    </contour>
  </outline>
</glyph>
<glyph name="squarebelowcomb" format="2">
  <unicode hex="033B"/>
  <anchor x="170" y="0" name="_bottom"/>
  <anchor x="172" y="-240" name="bottom"/>
  <outline>
    <contour>
      <point x="30" y="-240" type="line"/>
      <point x="310" y="-240" type="line"/>
      <point x="310" y="-68" type="line"/>
      <point x="30" y="-68" type="line"/>
    </contour>
    <contour>
      <point x="90" y="-186" type="line"/>
      <point x="90" y="-122" type="line"/>
      <point x="250" y="-122" type="line"/>
      <point x="250" y="-186" type="line"/>
    </contour>
  </outline>
</glyph>
<glyph name="ypogegrammenicomb" format="2">
  <unicode hex="0345"/>
  <anchor x="70" y="0" name="_bottom"/>
  <anchor x="145" y="-190" name="bottom"/>
  <outline>
    <contour>
      <point x="142" y="-190" type="curve" smooth="yes"/>
      <point x="189" y="-190"/>
      <point x="220" y="-171"/>
      <point x="241" y="-155" type="curve"/>
      <point x="207" y="-108" type="line"/>
      <point x="189" y="-119"/>
      <point x="175" y="-125"/>
      <point x="151" y="-125" type="curve" smooth="yes"/>
      <point x="123" y="-125"/>
      <point x="109" y="-111"/>
      <point x="109" y="-83" type="curve" smooth="yes"/>
      <point x="109" y="-39" type="line"/>
      <point x="30" y="-39" type="line"/>
      <point x="30" y="-85" type="line" smooth="yes"/>
      <point x="30" y="-148"/>
      <point x="71" y="-190"/>
    </contour>
  </outline>
</glyph>
<glyph name="Heta" format="2">
  <advance width="521"/>
  <unicode hex="0370"/>
  <anchor x="260.5" y="0" name="bottom"/>
  <anchor x="260.5" y="689" name="top"/>
  <outline>
    <contour>
      <point x="496" y="323" type="line"/>
      <point x="496" y="401" type="line"/>
      <point x="195" y="401" type="line"/>
      <point x="195" y="689" type="line"/>
      <point x="100" y="689" type="line"/>
      <point x="100" y="0" type="line"/>
      <point x="195" y="0" type="line"/>
      <point x="195" y="323" type="line"/>
    </contour>
  </outline>
</glyph>
<glyph name="archaicsampi" format="2">
  <advance width="519"/>
  <unicode hex="0373"/>
  <anchor x="259.5" y="-202" name="bottom"/>
  <anchor x="259.5" y="527" name="top"/>
  <outline>
    <contour>
      <point x="313" y="484" type="line"/>
      <point x="221" y="484" type="line"/>
      <point x="221" y="-213" type="line"/>
      <point x="313" y="-202" type="line"/>
    </contour>
    <contour>
      <point x="21" y="440" type="line"/>
      <point x="54" y="449"/>
      <point x="67" y="451"/>
      <point x="110" y="451" type="curve" smooth="yes"/>
      <point x="515" y="452" type="line"/>
      <point x="515" y="527" type="line"/>
      <point x="112" y="527" type="line" smooth="yes"/>
      <point x="63" y="527"/>
      <point x="41" y="525"/>
      <point x="5" y="512" type="curve"/>
    </contour>
  </outline>
</glyph>
<glyph name="tonos" format="2">
  <advance width="193"/>
  <unicode hex="0384"/>
  <anchor x="62" y="527" name="_top"/>
  <outline>
    <contour>
      <point x="67" y="812" type="line"/>
      <point x="30" y="606" type="line"/>
      <point x="95" y="595" type="line"/>
      <point x="163" y="794" type="line"/>
    </contour>
  </outline>
</glyph>
<glyph name="Lambda" format="2">
  <advance width="573"/>
  <unicode hex="039B"/>
  <anchor x="283" y="0" name="bottom"/>
  <anchor x="283" y="689" name="top"/>
  <outline>
    <contour>
      <point x="347" y="689" type="line"/>
      <point x="227" y="689" type="line"/>
      <point x="6" y="0" type="line"/>
      <point x="102" y="0" type="line"/>
      <point x="285" y="610" type="line"/>
      <point x="467" y="0" type="line"/>
      <point x="567" y="0" type="line"/>
    </contour>
  </outline>
</glyph>
<glyph name="Xi" format="2">
  <advance width="511"/>
  <unicode hex="039E"/>
  <anchor x="255.5" y="0" name="bottom"/>
  <anchor x="255.5" y="689" name="top"/>
  <outline>
    <contour>
      <point x="466" y="88" type="line"/>
      <point x="45" y="88" type="line"/>
      <point x="45" y="0" type="line"/>
      <point x="466" y="0" type="line"/>
    </contour>
    <contour>
      <point x="397" y="392" type="line"/>
      <point x="106" y="392" type="line"/>
      <point x="106" y="307" type="line"/>
      <point x="397" y="307" type="line"/>
    </contour>
    <contour>
      <point x="458" y="689" type="line"/>
      <point x="45" y="689" type="line"/>
      <point x="45" y="603" type="line"/>
      <point x="445" y="603" type="line"/>
    </contour>
  </outline>
</glyph>
<glyph name="rho" format="2">
  <advance width="584"/>
  <unicode hex="03C1"/>
  <anchor x="290" y="-202" name="bottom"/>
  <anchor x="300" y="527" name="top"/>
  <outline>
    <contour>
      <point x="300" y="539" type="curve" smooth="yes"/>
      <point x="159" y="539"/>
      <point x="85" y="448"/>
      <point x="85" y="271" type="curve" smooth="yes"/>
      <point x="85" y="-213" type="line"/>
      <point x="177" y="-202" type="line"/>
      <point x="177" y="256" type="line" smooth="yes"/>
      <point x="177" y="392"/>
      <point x="208" y="467"/>
      <point x="302" y="467" type="curve" smooth="yes"/>
      <point x="381" y="467"/>
      <point x="423" y="405"/>
      <point x="423" y="264" type="curve" smooth="yes"/>
      <point x="423" y="133"/>
      <point x="377" y="63"/>
      <point x="293" y="63" type="curve" smooth="yes"/>
      <point x="239" y="63"/>
      <point x="193" y="92"/>
      <point x="168" y="152" type="curve"/>
      <point x="165" y="73" type="line"/>
      <point x="199" y="11"/>
      <point x="252" y="-12"/>
      <point x="315" y="-12" type="curve" smooth="yes"/>
      <point x="451" y="-12"/>
      <point x="522" y="115"/>
      <point x="522" y="264" type="curve" smooth="yes"/>
      <point x="522" y="440"/>
      <point x="446" y="539"/>
    </contour>
  </outline>
</glyph>
<glyph name="KaiSymbol" format="2">
  <advance width="609"/>
  <unicode hex="03CF"/>
  <anchor x="304.5" y="-202" name="bottom"/>
  <anchor x="328" y="689" name="top"/>
  <outline>
    <contour>
      <point x="483" y="78" type="line"/>
      <point x="483" y="0" type="line"/>
      <point x="599" y="0" type="line"/>
      <point x="599" y="78" type="line"/>
    </contour>
    <component base="Kappa"/>
    <component base="hookHELPER.case" xOffset="303"/>
  </outline>
</glyph>
<glyph name="KoppaArchaic" format="2">
  <advance width="692"/>
  <unicode hex="03D8"/>
  <anchor x="346" y="-202" name="bottom"/>
  <anchor x="445" y="0" name="ogonek"/>
  <anchor x="346" y="689" name="top"/>
  <anchor x="113" y="689" name="topleft"/>
  <anchor x="549" y="689" name="topright"/>
  <outline>
    <contour>
      <point x="298" y="-202" type="line"/>
      <point x="395" y="-202" type="line"/>
      <point x="395" y="0" type="line"/>
      <point x="298" y="0" type="line"/>
    </contour>
    <component base="O"/>
  </outline>
</glyph>
<glyph name="koppaArchaic" format="2">
  <advance width="584"/>
  <unicode hex="03D9"/>
  <anchor x="292" y="-202" name="bottom"/>
  <anchor x="380" y="0" name="ogonek"/>
  <anchor x="292" y="527" name="top"/>
  <anchor x="476" y="527" name="topright"/>
  <outline>
    <contour>
      <point x="335" y="0" type="line"/>
      <point x="249" y="0" type="line"/>
      <point x="249" y="-213" type="line"/>
      <point x="335" y="-202" type="line"/>
    </contour>
    <component base="o"/>
  </outline>
</glyph>
<glyph name="Digamma" format="2">
  <advance width="523"/>
  <unicode hex="03DC"/>
  <anchor x="148" y="0" name="bottom"/>
  <anchor x="205" y="0" name="bottomright"/>
  <anchor x="316" y="689" name="top"/>
  <outline>
    <contour>
      <point x="423" y="293" type="curve"/>
      <point x="448" y="363" type="line"/>
      <point x="417" y="378"/>
      <point x="391" y="385"/>
      <point x="342" y="385" type="curve" smooth="yes"/>
      <point x="154" y="385" type="line"/>
      <point x="154" y="307" type="line"/>
      <point x="334" y="307" type="line" smooth="yes"/>
      <point x="377" y="307"/>
      <point x="400" y="301"/>
    </contour>
    <component base="Gamma"/>
  </outline>
</glyph>
<glyph name="digamma" format="2">
  <advance width="441"/>
  <unicode hex="03DD"/>
  <anchor x="220.5" y="-202" name="bottom"/>
  <anchor x="220.5" y="527" name="top"/>
  <outline>
    <contour>
      <point x="241" y="527" type="line"/>
      <point x="149" y="527"/>
      <point x="90" y="475"/>
      <point x="90" y="371" type="curve" smooth="yes"/>
      <point x="90" y="-214" type="line"/>
      <point x="182" y="-201" type="line"/>
      <point x="182" y="377" type="line" smooth="yes"/>
      <point x="182" y="430"/>
      <point x="207" y="451"/>
      <point x="246" y="452" type="curve"/>
      <point x="424" y="452" type="line"/>
      <point x="436" y="527" type="line"/>
    </contour>
    <contour>
      <point x="372" y="156" type="curve"/>
      <point x="395" y="223" type="line"/>
      <point x="366" y="238"/>
      <point x="340" y="245"/>
      <point x="291" y="245" type="curve" smooth="yes"/>
      <point x="103" y="245" type="line"/>
      <point x="103" y="170" type="line"/>
      <point x="283" y="170" type="line" smooth="yes"/>
      <point x="326" y="170"/>
      <point x="349" y="164"/>
    </contour>
  </outline>
</glyph>
<glyph name="Koppa" format="2">
  <advance width="455"/>
  <unicode hex="03DE"/>
  <anchor x="227.5" y="0" name="bottom"/>
  <anchor x="227.5" y="689" name="top"/>
  <outline>
    <contour>
      <point x="143" y="0" type="line"/>
      <point x="249" y="0" type="line"/>
      <point x="445" y="307" type="line"/>
      <point x="363" y="340" type="line"/>
    </contour>
    <contour>
      <point x="40" y="307" type="line"/>
      <point x="445" y="307" type="line"/>
      <point x="425" y="392" type="line"/>
      <point x="20" y="392" type="line"/>
    </contour>
    <contour>
      <point x="102" y="359" type="line"/>
      <point x="321" y="689" type="line"/>
      <point x="215" y="689" type="line"/>
      <point x="20" y="392" type="line"/>
    </contour>
  </outline>
</glyph>
<glyph name="Sampi" format="2">
  <advance width="586"/>
  <unicode hex="03E0"/>
  <anchor x="293" y="0" name="bottom"/>
  <anchor x="293" y="689" name="top"/>
  <outline>
    <contour>
      <point x="484" y="0" type="line"/>
      <point x="580" y="0" type="line"/>
      <point x="306" y="689" type="line"/>
      <point x="218" y="689" type="line"/>
      <point x="280" y="542" type="line"/>
    </contour>
    <contour>
      <point x="6" y="0" type="line"/>
      <point x="102" y="0" type="line"/>
      <point x="332" y="605" type="line"/>
      <point x="263" y="621" type="line"/>
    </contour>
    <contour>
      <point x="206" y="0" type="line"/>
      <point x="291" y="0" type="line"/>
      <point x="425" y="386" type="line"/>
      <point x="359" y="405" type="line"/>
    </contour>
  </outline>
</glyph>
<glyph name="sampi" format="2">
  <advance width="640"/>
  <unicode hex="03E1"/>
  <anchor x="320" y="-202" name="bottom"/>
  <anchor x="320" y="739" name="top"/>
  <outline>
    <contour>
      <point x="5" y="0" type="line"/>
      <point x="96" y="0" type="line"/>
      <point x="370" y="508" type="line"/>
      <point x="313" y="572" type="line" smooth="yes"/>
    </contour>
    <contour>
      <point x="220" y="0" type="line"/>
      <point x="310" y="0" type="line"/>
      <point x="475" y="333" type="line"/>
      <point x="417" y="387" type="line"/>
    </contour>
    <contour>
      <point x="458" y="-201" type="curve"/>
      <point x="540" y="-212" type="line"/>
      <point x="562" y="-133"/>
      <point x="583" y="-8"/>
      <point x="583" y="98" type="curve" smooth="yes"/>
      <point x="583" y="426"/>
      <point x="423" y="611"/>
      <point x="115" y="750" type="curve"/>
      <point x="81" y="685" type="line"/>
      <point x="353" y="539"/>
      <point x="489" y="384"/>
      <point x="489" y="98" type="curve" smooth="yes"/>
      <point x="489" y="-18"/>
      <point x="476" y="-119"/>
    </contour>
  </outline>
</glyph>
<glyph name="rhoStrokeSymbol" format="2">
  <advance width="589"/>
  <unicode hex="03FC"/>
  <anchor x="290" y="-202" name="bottom"/>
  <anchor x="300" y="527" name="top"/>
  <outline>
    <contour>
      <point x="11" y="-64" type="line"/>
      <point x="11" y="-134" type="line"/>
      <point x="90" y="-134" type="line"/>
      <point x="340" y="-134" type="line"/>
      <point x="340" y="-64" type="line"/>
    </contour>
    <component base="rho"/>
  </outline>
</glyph>
<glyph name="Tshe-cy" format="2">
  <advance width="717"/>
  <unicode hex="040B"/>
  <anchor x="414" y="0" name="bottom"/>
  <anchor x="692" y="0" name="bottomright"/>
  <anchor x="414" y="689" name="top"/>
  <outline>
    <contour>
      <point x="507" y="689" type="line"/>
      <point x="15" y="689" type="line"/>
      <point x="15" y="608" type="line"/>
      <point x="497" y="608" type="line"/>
    </contour>
    <component base="Shha-cy" xOffset="111"/>
  </outline>
</glyph>
<glyph name="Ge-cy" format="2">
  <advance width="508"/>
  <unicode hex="0413"/>
  <anchor x="148" y="0" name="bottom"/>
  <anchor x="205" y="0" name="bottomright"/>
  <anchor x="316" y="689" name="top"/>
  <outline>
    <contour>
      <point x="100" y="689" type="line"/>
      <point x="100" y="0" type="line"/>
      <point x="195" y="0" type="line"/>
      <point x="195" y="623" type="line"/>
    </contour>
    <contour>
      <point x="498" y="689" type="line"/>
      <point x="100" y="689" type="line"/>
      <point x="179" y="607" type="line"/>
      <point x="484" y="607" type="line"/>
    </contour>
  </outline>
</glyph>
<glyph name="De-cy" format="2">
  <advance width="611"/>
  <unicode hex="0414"/>
  <anchor x="522" y="0" name="_bottom"/>
  <anchor x="305.5" y="-202" name="bottom"/>
  <anchor x="305.5" y="689" name="top"/>
  <outline>
    <contour>
      <point x="511" y="689" type="line"/>
      <point x="161" y="689" type="line"/>
      <point x="136" y="489" type="line" smooth="yes"/>
      <point x="99" y="201"/>
      <point x="91" y="131"/>
      <point x="37" y="78" type="curve"/>
      <point x="37" y="0" type="line"/>
      <point x="511" y="0" type="line"/>
    </contour>
    <contour>
      <point x="416" y="611" type="line"/>
      <point x="416" y="78" type="line"/>
      <point x="117" y="78" type="line"/>
      <point x="187" y="133"/>
      <point x="199" y="213"/>
      <point x="230" y="485" type="curve" smooth="yes"/>
      <point x="244" y="611" type="line"/>
    </contour>
    <component base="descStraight-cy.case" xOffset="408"/>
    <component base="descStraight-cy.case" xScale="-1" xOffset="149"/>
  </outline>
</glyph>
<glyph name="Zhe-cy" format="2">
  <advance width="821"/>
  <unicode hex="0416"/>
  <anchor x="410.5" y="0" name="bottom"/>
  <anchor x="773" y="0" name="bottomright"/>
  <anchor x="411" y="689" name="top"/>
  <outline>
    <contour>
      <point x="797" y="689" type="line"/>
      <point x="697" y="689" type="line"/>
      <point x="538" y="401" type="line"/>
      <point x="456" y="401" type="line"/>
      <point x="456" y="689" type="line"/>
      <point x="365" y="689" type="line"/>
      <point x="365" y="401" type="line"/>
      <point x="283" y="401" type="line"/>
      <point x="126" y="689" type="line"/>
      <point x="24" y="689" type="line"/>
      <point x="206" y="366" type="line"/>
      <point x="5" y="0" type="line"/>
      <point x="110" y="0" type="line"/>
      <point x="282" y="323" type="line"/>
      <point x="365" y="323" type="line"/>
      <point x="365" y="0" type="line"/>
      <point x="456" y="0" type="line"/>
      <point x="456" y="323" type="line"/>
      <point x="538" y="323" type="line"/>
      <point x="709" y="0" type="line"/>
      <point x="816" y="0" type="line"/>
      <point x="615" y="366" type="line"/>
    </contour>
  </outline>
</glyph>
<glyph name="Ii-cy" format="2">
  <advance width="683"/>
  <unicode hex="0418"/>
  <anchor x="341.5" y="0" name="bottom"/>
  <anchor x="593" y="0" name="bottomright"/>
  <anchor x="342" y="689" name="top"/>
  <outline>
    <contour>
      <point x="583" y="689" type="line"/>
      <point x="464" y="689" type="line"/>
      <point x="182" y="103" type="line"/>
      <point x="189" y="162"/>
      <point x="195" y="229"/>
      <point x="195" y="353" type="curve" smooth="yes"/>
      <point x="195" y="689" type="line"/>
      <point x="100" y="689" type="line"/>
      <point x="100" y="0" type="line"/>
      <point x="222" y="0" type="line"/>
      <point x="501" y="583" type="line"/>
      <point x="496" y="533"/>
      <point x="488" y="444"/>
      <point x="488" y="336" type="curve" smooth="yes"/>
      <point x="488" y="0" type="line"/>
      <point x="583" y="0" type="line"/>
    </contour>
  </outline>
</glyph>
<glyph name="Ka-cy" format="2">
  <advance width="589"/>
  <unicode hex="041A"/>
  <anchor x="294.5" y="0" name="bottom"/>
  <anchor x="528" y="0" name="bottomright"/>
  <anchor x="292" y="689" name="top"/>
  <outline>
    <contour>
      <point x="560" y="689" type="line"/>
      <point x="460" y="689" type="line"/>
      <point x="290" y="401" type="line"/>
      <point x="195" y="401" type="line"/>
      <point x="195" y="689" type="line"/>
      <point x="100" y="689" type="line"/>
      <point x="100" y="0" type="line"/>
      <point x="195" y="0" type="line"/>
      <point x="195" y="323" type="line"/>
      <point x="289" y="323" type="line"/>
      <point x="469" y="0" type="line"/>
      <point x="579" y="0" type="line"/>
      <point x="369" y="366" type="line"/>
    </contour>
  </outline>
</glyph>
<glyph name="El-cy" format="2">
  <advance width="659"/>
  <unicode hex="041B"/>
  <anchor x="329.5" y="0" name="bottom"/>
  <anchor x="569" y="0" name="bottomright"/>
  <anchor x="329.5" y="689" name="top"/>
  <outline>
    <contour>
      <point x="559" y="689" type="line"/>
      <point x="165" y="689" type="line"/>
      <point x="232" y="609" type="line"/>
      <point x="464" y="609" type="line"/>
      <point x="464" y="0" type="line"/>
      <point x="559" y="0" type="line"/>
    </contour>
    <contour>
      <point x="165" y="689" type="line"/>
      <point x="120" y="305" type="line" smooth="yes"/>
      <point x="99" y="126"/>
      <point x="89" y="90"/>
      <point x="14" y="62" type="curve"/>
      <point x="37" y="-12" type="line"/>
      <point x="152" y="25"/>
      <point x="188" y="66"/>
      <point x="215" y="312" type="curve" smooth="yes"/>
      <point x="248" y="609" type="line"/>
    </contour>
  </outline>
</glyph>
<glyph name="Pe-cy" format="2">
  <advance width="675"/>
  <unicode hex="041F"/>
  <anchor x="337.5" y="0" name="bottom"/>
  <anchor x="585" y="0" name="bottomright"/>
  <anchor x="337.5" y="689" name="top"/>
  <outline>
    <contour>
      <point x="575" y="689" type="line"/>
      <point x="100" y="689" type="line"/>
      <point x="100" y="0" type="line"/>
      <point x="195" y="0" type="line"/>
      <point x="195" y="608" type="line"/>
      <point x="480" y="608" type="line"/>
      <point x="480" y="0" type="line"/>
      <point x="575" y="0" type="line"/>
    </contour>
  </outline>
</glyph>
<glyph name="U-cy" format="2">
  <advance width="540"/>
  <unicode hex="0423"/>
  <anchor x="270" y="0" name="bottom"/>
  <anchor x="270" y="689" name="top"/>
  <outline>
    <contour>
      <point x="545" y="689" type="line"/>
      <point x="449" y="689" type="line"/>
      <point x="284" y="247" type="line"/>
      <point x="99" y="689" type="line"/>
      <point x="0" y="689" type="line"/>
      <point x="221" y="189" type="line"/>
      <point x="256" y="189" type="line"/>
      <point x="226" y="104"/>
      <point x="188" y="75"/>
      <point x="96" y="57" type="curve"/>
      <point x="110" y="-12" type="line"/>
      <point x="236" y="7"/>
      <point x="292" y="53"/>
      <point x="345" y="186" type="curve" smooth="yes"/>
    </contour>
  </outline>
</glyph>
<glyph name="Hardsign-cy" format="2">
  <advance width="642"/>
  <unicode hex="042A"/>
  <anchor x="355" y="0" name="bottom"/>
  <anchor x="355" y="689" name="top"/>
  <outline>
    <contour>
      <point x="168" y="608" type="line"/>
      <point x="263" y="689" type="line"/>
      <point x="0" y="689" type="line"/>
      <point x="0" y="608" type="line"/>
    </contour>
    <component base="Softsign-cy" xOffset="68"/>
  </outline>
</glyph>
<glyph name="Ia-cy" format="2">
  <advance width="606"/>
  <unicode hex="042F"/>
  <anchor x="308" y="0" name="bottom"/>
  <anchor x="308" y="689" name="top"/>
  <outline>
    <contour>
      <point x="278" y="285" type="line"/>
      <point x="189" y="306" type="line"/>
      <point x="30" y="0" type="line"/>
      <point x="138" y="0" type="line"/>
    </contour>
    <contour>
      <point x="185" y="286" type="curve"/>
      <point x="242" y="271" type="line"/>
      <point x="427" y="271" type="line"/>
      <point x="427" y="346" type="line"/>
      <point x="287" y="346" type="line" smooth="yes"/>
      <point x="206" y="346"/>
      <point x="149" y="388"/>
      <point x="149" y="477" type="curve" smooth="yes"/>
      <point x="149" y="569"/>
      <point x="196" y="615"/>
      <point x="317" y="615" type="curve" smooth="yes"/>
      <point x="411" y="615" type="line"/>
      <point x="411" y="0" type="line"/>
      <point x="506" y="0" type="line"/>
      <point x="506" y="689" type="line"/>
      <point x="311" y="689" type="line" smooth="yes"/>
      <point x="136" y="689"/>
      <point x="48" y="609"/>
      <point x="48" y="477" type="curve" smooth="yes"/>
      <point x="48" y="389"/>
      <point x="94" y="319"/>
    </contour>
  </outline>
</glyph>
<glyph name="el-cy" format="2">
  <advance width="576"/>
  <unicode hex="043B"/>
  <anchor x="288" y="0" name="bottom"/>
  <anchor x="491" y="0" name="bottomright"/>
  <anchor x="288" y="527" name="top"/>
  <outline>
    <contour>
      <point x="142" y="527" type="line"/>
      <point x="209" y="452" type="line"/>
      <point x="389" y="452" type="line"/>
      <point x="389" y="0" type="line"/>
      <point x="481" y="0" type="line"/>
      <point x="481" y="527" type="line"/>
    </contour>
    <contour>
      <point x="226" y="452" type="line"/>
      <point x="142" y="527" type="line"/>
      <point x="121" y="286" type="line" smooth="yes"/>
      <point x="106" y="112"/>
      <point x="102" y="85"/>
      <point x="37" y="61" type="curve"/>
      <point x="60" y="-12" type="line"/>
      <point x="174" y="23"/>
      <point x="194" y="75"/>
      <point x="211" y="276" type="curve" smooth="yes"/>
    </contour>
  </outline>
</glyph>
<glyph name="en-cy" format="2">
  <advance width="593"/>
  <unicode hex="043D"/>
  <anchor x="297" y="0" name="bottom"/>
  <anchor x="508" y="0" name="bottomright"/>
  <anchor x="297" y="527" name="top"/>
  <outline>
    <contour>
      <point x="406" y="0" type="line"/>
      <point x="498" y="0" type="line"/>
      <point x="498" y="527" type="line"/>
      <point x="406" y="527" type="line"/>
      <point x="406" y="306" type="line"/>
      <point x="187" y="306" type="line"/>
      <point x="187" y="527" type="line"/>
      <point x="95" y="527" type="line"/>
      <point x="95" y="0" type="line"/>
      <point x="187" y="0" type="line"/>
      <point x="187" y="232" type="line"/>
      <point x="406" y="232" type="line"/>
    </contour>
  </outline>
</glyph>
<glyph name="sha-cy" format="2">
  <advance width="796"/>
  <unicode hex="0448"/>
  <anchor x="398" y="0" name="bottom"/>
  <anchor x="711" y="0" name="bottomright"/>
  <anchor x="398" y="527" name="top"/>
  <outline>
    <contour>
      <point x="701" y="527" type="line"/>
      <point x="611" y="527" type="line"/>
      <point x="611" y="74" type="line"/>
      <point x="442" y="74" type="line"/>
      <point x="442" y="527" type="line"/>
      <point x="354" y="527" type="line"/>
      <point x="354" y="74" type="line"/>
      <point x="185" y="74" type="line"/>
      <point x="185" y="527" type="line"/>
      <point x="95" y="527" type="line"/>
      <point x="95" y="0" type="line"/>
      <point x="701" y="0" type="line"/>
    </contour>
  </outline>
</glyph>
<glyph name="hardsign-cy" format="2">
  <advance width="569"/>
  <unicode hex="044A"/>
  <anchor x="311" y="0" name="bottom"/>
  <anchor x="311" y="527" name="top"/>
  <outline>
    <contour>
      <point x="148" y="457" type="line"/>
      <point x="230" y="527" type="line"/>
      <point x="0" y="527" type="line"/>
      <point x="0" y="457" type="line"/>
    </contour>
    <component base="softsign-cy" xOffset="53"/>
  </outline>
</glyph>
<glyph name="Eiotified-cy" format="2">
  <advance width="792"/>
  <unicode hex="0464"/>
  <anchor x="396" y="0" name="bottom"/>
  <anchor x="396" y="689" name="top"/>
  <outline>
    <contour>
      <point x="195" y="689" type="line"/>
      <point x="100" y="689" type="line"/>
      <point x="100" y="0" type="line"/>
      <point x="195" y="0" type="line"/>
      <point x="195" y="315" type="line"/>
      <point x="325" y="315" type="line"/>
      <point x="325" y="395" type="line"/>
      <point x="195" y="395" type="line"/>
    </contour>
    <component base="E-cy" xOffset="227"/>
  </outline>
</glyph>
<glyph name="eiotified-cy" format="2">
  <advance width="705"/>
  <unicode hex="0465"/>
  <anchor x="352.5" y="0" name="bottom"/>
  <anchor x="352.5" y="527" name="top"/>
  <outline>
    <contour>
      <point x="187" y="527" type="line"/>
      <point x="95" y="527" type="line"/>
      <point x="95" y="0" type="line"/>
      <point x="187" y="0" type="line"/>
      <point x="187" y="233" type="line"/>
      <point x="297" y="233" type="line"/>
      <point x="298" y="307" type="line"/>
      <point x="187" y="307" type="line"/>
    </contour>
    <component base="e-cy" xOffset="223"/>
  </outline>
</glyph>
<glyph name="yuslittle-cy" format="2">
  <advance width="513"/>
  <unicode hex="0467"/>
  <anchor x="256.5" y="0" name="bottom"/>
  <anchor x="256.5" y="527" name="top"/>
  <outline>
    <contour>
      <point x="311" y="527" type="line"/>
      <point x="203" y="527" type="line"/>
      <point x="10" y="0" type="line"/>
      <point x="102" y="0" type="line"/>
      <point x="255" y="458" type="line"/>
      <point x="408" y="0" type="line"/>
      <point x="503" y="0" type="line"/>
    </contour>
    <contour>
      <point x="379" y="273" type="line"/>
      <point x="134" y="273" type="line"/>
      <point x="134" y="202" type="line"/>
      <point x="379" y="202" type="line"/>
    </contour>
    <contour>
      <point x="216" y="245" type="line"/>
      <point x="216" y="0" type="line"/>
      <point x="292" y="0" type="line"/>
      <point x="292" y="245" type="line"/>
    </contour>
  </outline>
</glyph>
<glyph name="Yuslittleiotified-cy" format="2">
  <advance width="825"/>
  <unicode hex="0468"/>
  <anchor x="412.5" y="0" name="bottom"/>
  <anchor x="412.5" y="689" name="top"/>
  <outline>
    <contour>
      <point x="413" y="285" type="line"/>
      <point x="413" y="363" type="line"/>
      <point x="195" y="363" type="line"/>
      <point x="195" y="689" type="line"/>
      <point x="100" y="689" type="line"/>
      <point x="100" y="0" type="line"/>
      <point x="195" y="0" type="line"/>
      <point x="195" y="285" type="line"/>
    </contour>
    <component base="Yuslittle-cy" xOffset="242"/>
  </outline>
</glyph>
<glyph name="yuslittleiotified-cy" format="2">
  <advance width="709"/>
  <unicode hex="0469"/>
  <anchor x="354.5" y="0" name="bottom"/>
  <anchor x="354.5" y="527" name="top"/>
  <outline>
    <contour>
      <point x="518" y="527" type="line"/>
      <point x="408" y="527" type="line"/>
      <point x="226" y="0" type="line"/>
      <point x="316" y="0" type="line"/>
      <point x="461" y="456" type="line"/>
      <point x="606" y="0" type="line"/>
      <point x="699" y="0" type="line"/>
    </contour>
    <contour>
      <point x="422" y="243" type="line"/>
      <point x="422" y="0" type="line"/>
      <point x="498" y="0" type="line"/>
      <point x="498" y="243" type="line"/>
    </contour>
    <contour>
      <point x="585" y="274" type="line"/>
      <point x="187" y="274" type="line"/>
      <point x="187" y="527" type="line"/>
      <point x="95" y="527" type="line"/>
      <point x="95" y="0" type="line"/>
      <point x="187" y="0" type="line"/>
      <point x="187" y="202" type="line"/>
      <point x="585" y="202" type="line"/>
    </contour>
  </outline>
</glyph>
<glyph name="Yusbig-cy" format="2">
  <advance width="761"/>
  <unicode hex="046A"/>
  <anchor x="380.5" y="0" name="bottom"/>
  <anchor x="380.5" y="689" name="top"/>
  <outline>
    <contour>
      <point x="5" y="0" type="line"/>
      <point x="110" y="0" type="line"/>
      <point x="252" y="311" type="line"/>
      <point x="335" y="311" type="line"/>
      <point x="335" y="0" type="line"/>
      <point x="426" y="0" type="line"/>
      <point x="426" y="311" type="line"/>
      <point x="508" y="311" type="line"/>
      <point x="649" y="0" type="line"/>
      <point x="756" y="0" type="line"/>
      <point x="566" y="389" type="line"/>
      <point x="195" y="389" type="line"/>
    </contour>
    <contour>
      <point x="327" y="325" type="line"/>
      <point x="432" y="325" type="line"/>
      <point x="644" y="622" type="line"/>
      <point x="644" y="689" type="line"/>
      <point x="585" y="689" type="line"/>
      <point x="383" y="389" type="line"/>
      <point x="181" y="689" type="line"/>
      <point x="120" y="689" type="line"/>
      <point x="120" y="622" type="line"/>
    </contour>
    <contour>
      <point x="155" y="617" type="line"/>
      <point x="619" y="617" type="line"/>
      <point x="619" y="689" type="line"/>
      <point x="155" y="689" type="line"/>
    </contour>
  </outline>
</glyph>
<glyph name="Gheupturn-cy" format="2">
  <advance width="508"/>
  <unicode hex="0490"/>
  <anchor x="148" y="0" name="bottom"/>
  <anchor x="205" y="0" name="bottomright"/>
  <anchor x="316" y="689" name="top"/>
  <outline>
    <contour>
      <point x="406" y="679" type="line"/>
      <point x="498" y="689" type="line"/>
      <point x="498" y="816" type="line"/>
      <point x="406" y="816" type="line"/>
    </contour>
    <component base="Ge-cy"/>
  </outline>
</glyph>
<glyph name="gheupturn-cy" format="2">
  <advance width="429"/>
  <unicode hex="0491"/>
  <anchor x="141" y="0" name="bottom"/>
  <anchor x="197" y="0" name="bottomright"/>
  <anchor x="260" y="527" name="top"/>
  <outline>
    <contour>
      <point x="332" y="517" type="line"/>
      <point x="424" y="527" type="line"/>
      <point x="424" y="662" type="line"/>
      <point x="332" y="662" type="line"/>
    </contour>
    <component base="ge-cy"/>
  </outline>
</glyph>
<glyph name="Ghestroke-cy" format="2">
  <advance width="516"/>
  <unicode hex="0492"/>
  <anchor x="156" y="0" name="bottom"/>
  <anchor x="213" y="0" name="bottomright"/>
  <anchor x="324" y="689" name="top"/>
  <outline>
    <contour>
      <point x="359" y="413" type="line"/>
      <point x="10" y="413" type="line"/>
      <point x="10" y="343" type="line"/>
      <point x="108" y="343" type="line"/>
      <point x="359" y="343" type="line"/>
    </contour>
    <component base="Ge-cy" xOffset="8"/>
  </outline>
</glyph>
<glyph name="ghestroke-cy" format="2">
  <advance width="441"/>
  <unicode hex="0493"/>
  <anchor x="153" y="0" name="bottom"/>
  <anchor x="209" y="0" name="bottomright"/>
  <anchor x="272" y="527" name="top"/>
  <outline>
    <contour>
      <point x="313" y="303" type="line"/>
      <point x="107" y="303" type="line"/>
      <point x="25" y="303" type="line"/>
      <point x="25" y="233" type="line"/>
      <point x="313" y="233" type="line"/>
    </contour>
    <component base="ge-cy" xOffset="12"/>
  </outline>
</glyph>
<glyph name="Kaverticalstroke-cy" format="2">
  <advance width="594"/>
  <unicode hex="049C"/>
  <anchor x="294.5" y="0" name="bottom"/>
  <anchor x="294.5" y="689" name="top"/>
  <outline>
    <contour>
      <point x="560" y="689" type="line"/>
      <point x="460" y="689" type="line"/>
      <point x="309" y="400" type="line"/>
      <point x="193" y="400" type="line"/>
      <point x="193" y="689" type="line"/>
      <point x="100" y="689" type="line"/>
      <point x="100" y="0" type="line"/>
      <point x="193" y="0" type="line"/>
      <point x="193" y="324" type="line"/>
      <point x="308" y="324" type="line"/>
      <point x="471" y="0" type="line"/>
      <point x="579" y="0" type="line"/>
      <point x="382" y="366" type="line"/>
    </contour>
    <contour>
      <point x="288" y="570" type="line"/>
      <point x="234" y="570" type="line"/>
      <point x="234" y="150" type="line"/>
      <point x="288" y="150" type="line"/>
    </contour>
  </outline>
</glyph>
<glyph name="Kastroke-cy" format="2">
  <advance width="593"/>
  <unicode hex="049E"/>
  <anchor x="298.5" y="0.0" name="bottom"/>
  <anchor x="532" y="0" name="bottomright"/>
  <anchor x="296" y="689" name="top"/>
  <outline>
    <contour>
      <point x="20" y="524" type="line"/>
      <point x="299" y="524" type="line"/>
      <point x="299" y="597" type="line"/>
      <point x="104" y="597" type="line"/>
      <point x="20" y="597" type="line"/>
    </contour>
    <component base="Ka-cy" xOffset="4"/>
  </outline>
</glyph>
<glyph name="Kabashkir-cy" format="2">
  <advance width="657"/>
  <unicode hex="04A0"/>
  <anchor x="362.5" y="0.0" name="bottom"/>
  <anchor x="596" y="0" name="bottomright"/>
  <anchor x="360" y="689" name="top"/>
  <outline>
    <contour>
      <point x="243" y="689" type="line"/>
      <point x="0" y="689" type="line"/>
      <point x="0" y="608" type="line"/>
      <point x="188" y="608" type="line"/>
    </contour>
    <component base="Ka-cy" xOffset="68"/>
  </outline>
</glyph>
<glyph name="kabashkir-cy" format="2">
  <advance width="572"/>
  <unicode hex="04A1"/>
  <anchor x="312.5" y="0.0" name="bottom"/>
  <anchor x="509" y="0" name="bottomright"/>
  <anchor x="333" y="527" name="top"/>
  <outline>
    <contour>
      <point x="148" y="457" type="line"/>
      <point x="240" y="527" type="line"/>
      <point x="0" y="527" type="line"/>
      <point x="0" y="457" type="line"/>
    </contour>
    <component base="ka-cy" xOffset="53"/>
  </outline>
</glyph>
<glyph name="Enghe-cy" format="2">
  <advance width="772"/>
  <unicode hex="04A4"/>
  <anchor x="340" y="0" name="bottom"/>
  <anchor x="590" y="0" name="bottomright"/>
  <anchor x="340" y="345" name="center"/>
  <anchor x="340" y="689" name="top"/>
  <anchor x="90" y="689" name="topleft"/>
  <outline>
    <contour>
      <point x="524" y="689" type="line"/>
      <point x="579" y="608" type="line"/>
      <point x="762" y="608" type="line"/>
      <point x="772" y="689" type="line"/>
    </contour>
    <component base="H"/>
  </outline>
</glyph>
<glyph name="enghe-cy" format="2">
  <advance width="651"/>
  <unicode hex="04A5"/>
  <anchor x="297" y="0" name="bottom"/>
  <anchor x="508" y="0" name="bottomright"/>
  <anchor x="297" y="527" name="top"/>
  <outline>
    <contour>
      <point x="498" y="457" type="line"/>
      <point x="641" y="457" type="line"/>
      <point x="651" y="527" type="line"/>
      <point x="406" y="527" type="line"/>
    </contour>
    <component base="en-cy"/>
  </outline>
</glyph>
<glyph name="ustrait-cy" format="2">
  <advance width="492"/>
  <unicode hex="04AF"/>
  <anchor x="246" y="-202" name="bottom"/>
  <anchor x="246" y="527" name="top"/>
  <outline>
    <contour>
      <point x="482" y="527" type="line"/>
      <point x="387" y="527" type="line"/>
      <point x="248" y="101" type="line"/>
      <point x="108" y="527" type="line"/>
      <point x="10" y="527" type="line"/>
      <point x="201" y="15" type="line"/>
      <point x="201" y="-213" type="line"/>
      <point x="291" y="-202" type="line"/>
      <point x="291" y="15" type="line"/>
    </contour>
  </outline>
</glyph>
<glyph name="Ustraitstroke-cy" format="2">
  <advance width="550"/>
  <unicode hex="04B0"/>
  <anchor x="275" y="0" name="bottom"/>
  <anchor x="275" y="689" name="top"/>
  <anchor x="5" y="689" name="topleft"/>
  <outline>
    <contour>
      <point x="443" y="306" type="line"/>
      <point x="323" y="306" type="line"/>
      <point x="107" y="306" type="line"/>
      <point x="107" y="236" type="line"/>
      <point x="227" y="236" type="line"/>
      <point x="443" y="236" type="line"/>
    </contour>
    <component base="Y"/>
  </outline>
</glyph>
<glyph name="ustraitstroke-cy" format="2">
  <advance width="492"/>
  <unicode hex="04B1"/>
  <anchor x="246" y="-202" name="bottom"/>
  <anchor x="246" y="527" name="top"/>
  <outline>
    <contour>
      <point x="201" y="2" type="line"/>
      <point x="291" y="2" type="line"/>
      <point x="395" y="2" type="line"/>
      <point x="395" y="72" type="line"/>
      <point x="97" y="72" type="line"/>
      <point x="97" y="2" type="line"/>
    </contour>
    <component base="ustrait-cy"/>
  </outline>
</glyph>
<glyph name="Tetse-cy" format="2">
  <advance width="786"/>
  <unicode hex="04B4"/>
  <anchor x="393" y="-202" name="bottom"/>
  <anchor x="686" y="0" name="bottomright"/>
  <anchor x="393" y="689" name="top"/>
  <outline>
    <contour>
      <point x="487" y="689" type="line"/>
      <point x="15" y="689" type="line"/>
      <point x="15" y="608" type="line"/>
      <point x="211" y="608" type="line"/>
      <point x="306" y="608" type="line"/>
      <point x="477" y="608" type="line"/>
    </contour>
    <component base="Tse-cy" xOffset="111"/>
  </outline>
</glyph>
<glyph name="tetse-cy" format="2">
  <advance width="679"/>
  <unicode hex="04B5"/>
  <anchor x="339.5" y="-202" name="bottom"/>
  <anchor x="584" y="0" name="bottomright"/>
  <anchor x="339.5" y="527" name="top"/>
  <outline>
    <contour>
      <point x="401" y="527" type="line"/>
      <point x="5" y="527" type="line"/>
      <point x="5" y="457" type="line"/>
      <point x="179" y="457" type="line"/>
      <point x="271" y="457" type="line"/>
      <point x="390" y="457" type="line"/>
    </contour>
    <component base="tse-cy" xOffset="84"/>
  </outline>
</glyph>
<glyph name="Cheverticalstroke-cy" format="2">
  <advance width="612"/>
  <unicode hex="04B8"/>
  <anchor x="306" y="0" name="bottom"/>
  <anchor x="397" y="0" name="bottomleft"/>
  <anchor x="522" y="0" name="bottomright"/>
  <anchor x="276" y="689" name="top"/>
  <outline>
    <contour>
      <point x="310" y="540" type="line"/>
      <point x="251" y="540" type="line"/>
      <point x="251" y="120" type="line"/>
      <point x="310" y="120" type="line"/>
    </contour>
    <component base="Che-cy"/>
  </outline>
</glyph>
<glyph name="cheverticalstroke-cy" format="2">
  <advance width="552"/>
  <unicode hex="04B9"/>
  <anchor x="276" y="0" name="bottom"/>
  <anchor x="355" y="0" name="bottomleft"/>
  <anchor x="467" y="0" name="bottomright"/>
  <anchor x="256" y="527" name="top"/>
  <outline>
    <contour>
      <point x="280" y="390" type="line"/>
      <point x="225" y="390" type="line"/>
      <point x="225" y="90" type="line"/>
      <point x="280" y="90" type="line"/>
    </contour>
    <component base="che-cy"/>
  </outline>
</glyph>
<glyph name="Shha-cy" format="2">
  <advance width="606"/>
  <unicode hex="04BA"/>
  <anchor x="303" y="0" name="bottom"/>
  <anchor x="581" y="0" name="bottomright"/>
  <anchor x="303" y="689" name="top"/>
  <outline>
    <contour>
      <point x="367" y="452" type="curve" smooth="yes"/>
      <point x="282" y="452"/>
      <point x="226" y="421"/>
      <point x="185" y="372" type="curve"/>
      <point x="185" y="284" type="line"/>
      <point x="224" y="338"/>
      <point x="270" y="371"/>
      <point x="345" y="371" type="curve" smooth="yes"/>
      <point x="436" y="371"/>
      <point x="476" y="323"/>
      <point x="476" y="234" type="curve" smooth="yes"/>
      <point x="476" y="0" type="line"/>
      <point x="571" y="0" type="line"/>
      <point x="571" y="235" type="line" smooth="yes"/>
      <point x="571" y="371"/>
      <point x="497" y="452"/>
    </contour>
    <contour>
      <point x="195" y="689" type="line"/>
      <point x="100" y="689" type="line"/>
      <point x="100" y="0" type="line"/>
      <point x="195" y="0" type="line"/>
    </contour>
  </outline>
</glyph>
<glyph name="cheabkhasian-cy" format="2">
  <advance width="638"/>
  <unicode hex="04BD"/>
  <anchor x="381" y="0" name="bottom"/>
  <anchor x="487" y="6" name="ogonek"/>
  <anchor x="367" y="527" name="top"/>
  <outline>
    <contour>
      <point x="5" y="347" type="curve" smooth="yes"/>
      <point x="5" y="279"/>
      <point x="51" y="233"/>
      <point x="145" y="233" type="curve" smooth="yes"/>
      <point x="203" y="233" type="line"/>
      <point x="203" y="300" type="line"/>
      <point x="134" y="300" type="line" smooth="yes"/>
      <point x="97" y="300"/>
      <point x="80" y="319"/>
      <point x="80" y="351" type="curve" smooth="yes"/>
      <point x="80" y="376"/>
      <point x="89" y="397"/>
      <point x="100" y="421" type="curve"/>
      <point x="43" y="448" type="line"/>
      <point x="24" y="422"/>
      <point x="5" y="390"/>
    </contour>
    <component base="e" xOffset="88"/>
  </outline>
</glyph>
<glyph name="Kahook-cy" format="2">
  <advance width="595"/>
  <unicode hex="04C3"/>
  <anchor x="297.5" y="-202" name="bottom"/>
  <anchor x="297.5" y="689" name="top"/>
  <outline>
    <contour>
      <point x="100" y="0" type="line"/>
      <point x="195" y="0" type="line"/>
      <point x="195" y="310" type="line"/>
      <point x="335" y="310" type="line"/>
      <point x="360" y="353" type="line"/>
      <point x="560" y="689" type="line"/>
      <point x="460" y="689" type="line"/>
      <point x="290" y="388" type="line"/>
      <point x="195" y="388" type="line"/>
      <point x="195" y="689" type="line"/>
      <point x="100" y="689" type="line"/>
    </contour>
    <contour>
      <point x="461" y="0" type="line"/>
      <point x="556" y="0" type="line"/>
      <point x="556" y="174" type="line" smooth="yes"/>
      <point x="556" y="310"/>
      <point x="488" y="388"/>
      <point x="339" y="388" type="curve"/>
      <point x="335" y="310" type="line"/>
      <point x="421" y="310"/>
      <point x="461" y="266"/>
      <point x="461" y="173" type="curve" smooth="yes"/>
    </contour>
    <component base="hookHELPER.case" xOffset="260"/>
  </outline>
</glyph>
<glyph name="kahook-cy" format="2">
  <advance width="540"/>
  <unicode hex="04C4"/>
  <anchor x="270" y="-202" name="bottom"/>
  <anchor x="270" y="527" name="top"/>
  <outline>
    <contour>
      <point x="490" y="527" type="line"/>
      <point x="389" y="527" type="line"/>
      <point x="256" y="302" type="line"/>
      <point x="187" y="302" type="line"/>
      <point x="187" y="527" type="line"/>
      <point x="95" y="527" type="line"/>
      <point x="95" y="0" type="line"/>
      <point x="187" y="0" type="line"/>
      <point x="187" y="230" type="line"/>
      <point x="294" y="230" type="line"/>
      <point x="324" y="270" type="line"/>
    </contour>
    <contour>
      <point x="313" y="302" type="curve"/>
      <point x="291" y="230" type="line"/>
      <point x="365" y="230"/>
      <point x="394" y="204"/>
      <point x="394" y="128" type="curve" smooth="yes"/>
      <point x="394" y="0" type="line"/>
      <point x="486" y="0" type="line"/>
      <point x="486" y="137" type="line" smooth="yes"/>
      <point x="486" y="250"/>
      <point x="422" y="302"/>
    </contour>
    <component base="hookHELPER" xOffset="190"/>
  </outline>
</glyph>
<glyph name="schwa-cy" format="2">
  <advance width="554"/>
  <unicode hex="04D9"/>
  <anchor x="270" y="0" name="bottom"/>
  <anchor x="269" y="527" name="top"/>
  <outline>
    <contour>
      <point x="269" y="539" type="curve" smooth="yes"/>
      <point x="198" y="539"/>
      <point x="138" y="515"/>
      <point x="90" y="476" type="curve"/>
      <point x="132" y="415" type="line"/>
      <point x="177" y="452"/>
      <point x="219" y="464"/>
      <point x="267" y="464" type="curve" smooth="yes"/>
      <point x="352" y="464"/>
      <point x="398" y="407"/>
      <point x="400" y="270" type="curve"/>
      <point x="400" y="251" type="line"/>
      <point x="401" y="111"/>
      <point x="353" y="61"/>
      <point x="271" y="61" type="curve" smooth="yes"/>
      <point x="191" y="61"/>
      <point x="142" y="118"/>
      <point x="142" y="219" type="curve" smooth="yes"/>
      <point x="142" y="222"/>
      <point x="142" y="224"/>
      <point x="142" y="227" type="curve"/>
      <point x="415" y="227" type="line"/>
      <point x="415" y="295" type="line"/>
      <point x="54" y="295" type="line"/>
      <point x="52" y="281"/>
      <point x="52" y="265"/>
      <point x="52" y="248" type="curve" smooth="yes"/>
      <point x="52" y="85"/>
      <point x="138" y="-12"/>
      <point x="271" y="-12" type="curve" smooth="yes"/>
      <point x="409" y="-12"/>
      <point x="497" y="94"/>
      <point x="497" y="264" type="curve" smooth="yes"/>
      <point x="497" y="431"/>
      <point x="426" y="539"/>
    </contour>
  </outline>
</glyph>
<glyph name="Gestrokehook-cy" format="2">
  <advance width="516"/>
  <unicode hex="04FA"/>
  <anchor x="156" y="0" name="bottom"/>
  <anchor x="213" y="0" name="bottomright"/>
  <anchor x="324" y="689" name="top"/>
  <outline>
    <contour>
      <point x="118" y="78" type="line"/>
      <point x="118" y="0" type="line"/>
      <point x="297" y="0" type="line"/>
      <point x="297" y="78" type="line"/>
    </contour>
    <component base="Ghestroke-cy"/>
    <component base="hookHELPER.case" xOffset="1"/>
  </outline>
</glyph>
<glyph name="gestrokehook-cy" format="2">
  <advance width="441"/>
  <unicode hex="04FB"/>
  <anchor x="220.5" y="-202" name="bottom"/>
  <anchor x="209" y="0" name="bottomright"/>
  <anchor x="220.5" y="527" name="top"/>
  <outline>
    <contour>
      <point x="195" y="74" type="line"/>
      <point x="195" y="0" type="line"/>
      <point x="291" y="0" type="line"/>
      <point x="291" y="74" type="line"/>
    </contour>
    <component base="ghestroke-cy"/>
    <component base="hookHELPER" xOffset="-5"/>
  </outline>
</glyph>
<glyph name="Hahook-cy" format="2">
  <advance width="560"/>
  <unicode hex="04FC"/>
  <anchor x="270" y="0" name="bottom"/>
  <anchor x="486" y="0" name="bottomright"/>
  <anchor x="270" y="689" name="top"/>
  <outline>
    <contour>
      <point x="459" y="78" type="line"/>
      <point x="459" y="0" type="line"/>
      <point x="555" y="0" type="line"/>
      <point x="555" y="78" type="line"/>
    </contour>
    <component base="hookHELPER.case" xOffset="259"/>
    <component base="X"/>
  </outline>
</glyph>
<glyph name="hahook-cy" format="2">
  <advance width="505"/>
  <unicode hex="04FD"/>
  <anchor x="252.5" y="-202" name="bottom"/>
  <anchor x="436" y="0" name="bottomright"/>
  <anchor x="252.5" y="527" name="top"/>
  <outline>
    <contour>
      <point x="369" y="74" type="line"/>
      <point x="369" y="0" type="line"/>
      <point x="495" y="0" type="line"/>
      <point x="495" y="74" type="line"/>
    </contour>
    <component base="hookHELPER" xOffset="199"/>
    <component base="x"/>
  </outline>
</glyph>
<glyph name="Hastroke-cy" format="2">
  <advance width="540"/>
  <unicode hex="04FE"/>
  <anchor x="270" y="0" name="bottom"/>
  <anchor x="270" y="689" name="top"/>
  <outline>
    <contour>
      <point x="131" y="689" type="line"/>
      <point x="23" y="689" type="line"/>
      <point x="212" y="367" type="line"/>
      <point x="268" y="310" type="line"/>
      <point x="427" y="0" type="line"/>
      <point x="535" y="0" type="line"/>
      <point x="325" y="372" type="line"/>
      <point x="270" y="425" type="line"/>
    </contour>
    <contour>
      <point x="512" y="689" type="line"/>
      <point x="410" y="689" type="line"/>
      <point x="270" y="425" type="line"/>
      <point x="212" y="367" type="line"/>
      <point x="5" y="0" type="line"/>
      <point x="107" y="0" type="line"/>
      <point x="268" y="310" type="line"/>
      <point x="325" y="372" type="line"/>
    </contour>
    <component base="hyphen" xScale="1.5" yScale="0.9" xOffset="-32" yOffset="86"/>
  </outline>
</glyph>
<glyph name="komidzje-cy" format="2">
  <advance width="453"/>
  <unicode hex="0507"/>
  <anchor x="398" y="0" name="_bottom"/>
  <anchor x="226.5" y="-202" name="bottom"/>
  <anchor x="226.5" y="527" name="top"/>
  <outline>
    <contour>
      <point x="79" y="202" type="line"/>
      <point x="194" y="202" type="line"/>
      <point x="316" y="221"/>
      <point x="383" y="270"/>
      <point x="383" y="366" type="curve" smooth="yes"/>
      <point x="383" y="471"/>
      <point x="305" y="527"/>
      <point x="163" y="527" type="curve" smooth="yes"/>
      <point x="40" y="527" type="line"/>
      <point x="40" y="457" type="line"/>
      <point x="162" y="457" type="line" smooth="yes"/>
      <point x="245" y="457"/>
      <point x="287" y="430"/>
      <point x="287" y="366" type="curve" smooth="yes"/>
      <point x="287" y="298"/>
      <point x="245" y="272"/>
      <point x="175" y="272" type="curve" smooth="yes"/>
      <point x="79" y="272" type="line"/>
    </contour>
    <contour>
      <point x="258" y="238" type="line"/>
      <point x="171" y="225" type="line"/>
      <point x="313" y="0" type="line"/>
      <point x="417" y="0" type="line"/>
    </contour>
    <component base="descStraight-cy" xOffset="284"/>
  </outline>
</glyph>
<glyph name="Lha-cy" format="2">
  <advance width="820"/>
  <unicode hex="0514"/>
  <anchor x="410" y="0" name="bottom"/>
  <anchor x="766" y="0" name="bottomright"/>
  <anchor x="410" y="689" name="top"/>
  <outline>
    <contour>
      <point x="37" y="-12" type="line"/>
      <point x="148" y="24"/>
      <point x="196" y="60"/>
      <point x="215" y="312" type="curve" smooth="yes"/>
      <point x="237" y="609" type="line"/>
      <point x="152" y="689" type="line"/>
      <point x="120" y="305" type="line" smooth="yes"/>
      <point x="105" y="126"/>
      <point x="89" y="90"/>
      <point x="14" y="62" type="curve"/>
    </contour>
    <contour>
      <point x="219" y="610" type="line"/>
      <point x="409" y="610" type="line"/>
      <point x="409" y="689" type="line"/>
      <point x="152" y="689" type="line"/>
    </contour>
    <component base="X" xOffset="280"/>
  </outline>
</glyph>
<glyph name="lha-cy" format="2">
  <advance width="712"/>
  <unicode hex="0515"/>
  <anchor x="356" y="0" name="bottom"/>
  <anchor x="663" y="0" name="bottomright"/>
  <anchor x="356" y="527" name="top"/>
  <outline>
    <contour>
      <point x="135" y="527" type="line"/>
      <point x="202" y="454" type="line"/>
      <point x="329" y="454" type="line"/>
      <point x="329" y="527" type="line"/>
    </contour>
    <contour>
      <point x="219" y="454" type="line"/>
      <point x="135" y="527" type="line"/>
      <point x="121" y="286" type="line" smooth="yes"/>
      <point x="111" y="112"/>
      <point x="102" y="85"/>
      <point x="37" y="61" type="curve"/>
      <point x="60" y="-12" type="line"/>
      <point x="174" y="23"/>
      <point x="202" y="75"/>
      <point x="211" y="276" type="curve" smooth="yes"/>
    </contour>
    <component base="x" xOffset="227"/>
  </outline>
</glyph>
<glyph name="rha-cy" format="2">
  <advance width="800"/>
  <unicode hex="0517"/>
  <anchor x="400" y="-202" name="bottom"/>
  <anchor x="400" y="527" name="top"/>
  <outline>
    <contour>
      <point x="775" y="527" type="line"/>
      <point x="674" y="527" type="line"/>
      <point x="526" y="301" type="line"/>
      <point x="526" y="234" type="line"/>
      <point x="681" y="0" type="line"/>
      <point x="790" y="0" type="line"/>
      <point x="601" y="271" type="line"/>
    </contour>
    <component base="p"/>
  </outline>
</glyph>
<glyph name="Aleutka-cy" format="2">
  <advance width="589"/>
  <unicode hex="051E"/>
  <anchor x="294.5" y="0.0" name="bottom"/>
  <anchor x="528" y="0" name="bottomright"/>
  <anchor x="292" y="689" name="top"/>
  <outline>
    <contour>
      <point x="242" y="577" type="line"/>
      <point x="540" y="390" type="line"/>
      <point x="578" y="449" type="line"/>
      <point x="280" y="636" type="line"/>
    </contour>
    <component base="Ka-cy"/>
  </outline>
</glyph>
<glyph name="aleutka-cy" format="2">
  <advance width="519"/>
  <unicode hex="051F"/>
  <anchor x="259.5" y="0" name="bottom"/>
  <anchor x="456" y="0" name="bottomright"/>
  <anchor x="259.5" y="527" name="top"/>
  <outline>
    <contour>
      <point x="222" y="440" type="line"/>
      <point x="464" y="288" type="line"/>
      <point x="500" y="344" type="line"/>
      <point x="258" y="496" type="line"/>
    </contour>
    <component base="ka-cy"/>
  </outline>
</glyph>
<glyph name="elmiddlehook-cy" format="2">
  <advance width="840"/>
  <unicode hex="0521"/>
  <anchor x="420" y="-202" name="bottom"/>
  <anchor x="491" y="0" name="bottomright"/>
  <anchor x="420" y="527" name="top"/>
  <outline>
    <contour>
      <point x="698" y="0" type="line"/>
      <point x="790" y="0" type="line"/>
      <point x="790" y="183" type="line" smooth="yes"/>
      <point x="790" y="292"/>
      <point x="727" y="349"/>
      <point x="638" y="349" type="curve" smooth="yes"/>
      <point x="560" y="349"/>
      <point x="500" y="305"/>
      <point x="465" y="252" type="curve"/>
      <point x="480" y="195" type="line"/>
      <point x="516" y="240"/>
      <point x="556" y="277"/>
      <point x="617" y="277" type="curve" smooth="yes"/>
      <point x="666" y="277"/>
      <point x="698" y="251"/>
      <point x="698" y="175" type="curve" smooth="yes"/>
    </contour>
    <component base="el-cy"/>
    <component base="hookHELPER" xOffset="494"/>
  </outline>
</glyph>
<glyph name="enmiddlehook-cy" format="2">
  <advance width="857"/>
  <unicode hex="0523"/>
  <anchor x="428.5" y="-202" name="bottom"/>
  <anchor x="508" y="0" name="bottomright"/>
  <anchor x="428.5" y="527" name="top"/>
  <outline>
    <contour>
      <point x="715" y="0" type="line"/>
      <point x="807" y="0" type="line"/>
      <point x="807" y="183" type="line" smooth="yes"/>
      <point x="807" y="292"/>
      <point x="744" y="349"/>
      <point x="655" y="349" type="curve" smooth="yes"/>
      <point x="577" y="349"/>
      <point x="517" y="305"/>
      <point x="482" y="252" type="curve"/>
      <point x="497" y="195" type="line"/>
      <point x="533" y="240"/>
      <point x="573" y="277"/>
      <point x="634" y="277" type="curve" smooth="yes"/>
      <point x="683" y="277"/>
      <point x="715" y="251"/>
      <point x="715" y="175" type="curve" smooth="yes"/>
    </contour>
    <component base="en-cy"/>
    <component base="hookHELPER" xOffset="511"/>
  </outline>
</glyph>
<glyph name="dzzhe-cy" format="2">
  <advance width="837"/>
  <unicode hex="052B"/>
  <anchor x="401" y="0" name="_bottom"/>
  <anchor x="418.5" y="-202" name="bottom"/>
  <anchor x="418.5" y="527" name="top"/>
  <outline>
    <contour>
      <point x="37" y="0" type="line"/>
      <point x="391" y="0" type="line"/>
      <point x="391" y="527" type="line"/>
      <point x="133" y="527" type="line"/>
      <point x="119" y="331" type="line" smooth="yes"/>
      <point x="104" y="125"/>
      <point x="76" y="100"/>
      <point x="37" y="74" type="curve"/>
      <point x="109" y="67" type="line"/>
      <point x="176" y="112"/>
      <point x="194" y="150"/>
      <point x="208" y="343" type="curve" smooth="yes"/>
      <point x="216" y="454" type="line"/>
      <point x="299" y="454" type="line"/>
      <point x="299" y="74" type="line"/>
      <point x="37" y="74" type="line"/>
    </contour>
    <contour>
      <point x="326" y="243" type="line"/>
      <point x="542" y="243" type="line"/>
      <point x="542" y="315" type="line"/>
      <point x="326" y="315" type="line"/>
    </contour>
    <contour>
      <point x="474" y="0" type="line"/>
      <point x="566" y="0" type="line"/>
      <point x="566" y="243" type="line"/>
      <point x="592" y="243" type="line"/>
      <point x="718" y="0" type="line"/>
      <point x="827" y="0" type="line"/>
      <point x="668" y="283" type="line"/>
      <point x="808" y="527" type="line"/>
      <point x="707" y="527" type="line"/>
      <point x="594" y="315" type="line"/>
      <point x="566" y="315" type="line"/>
      <point x="566" y="527" type="line"/>
      <point x="474" y="527" type="line"/>
    </contour>
    <contour>
      <point x="397" y="0" type="line"/>
      <point x="513" y="0" type="line"/>
      <point x="513" y="74" type="line"/>
      <point x="397" y="74" type="line"/>
    </contour>
    <component base="descStraight-cy" xOffset="287"/>
    <component base="descStraight-cy" xScale="-1" xOffset="159"/>
  </outline>
</glyph>
<glyph name="uni1D6D" format="2">
  <advance width="686"/>
  <unicode hex="1D6D"/>
  <anchor x="303" y="0" name="bottom"/>
  <anchor x="298" y="264" name="center"/>
  <anchor x="296" y="739" name="top"/>
  <anchor x="508" y="739" name="topright"/>
  <outline>
    <contour>
      <point x="527" y="563" type="curve" smooth="yes"/>
      <point x="600" y="563"/>
      <point x="640" y="613"/>
      <point x="661" y="654" type="curve"/>
      <point x="606" y="684" type="line"/>
      <point x="590" y="658"/>
      <point x="566" y="636"/>
      <point x="533" y="636" type="curve" smooth="yes"/>
      <point x="491" y="636"/>
      <point x="457" y="697"/>
      <point x="380" y="697" type="curve" smooth="yes"/>
      <point x="305" y="697"/>
      <point x="264" y="641"/>
      <point x="243" y="600" type="curve"/>
      <point x="299" y="571" type="line"/>
      <point x="315" y="597"/>
      <point x="338" y="625"/>
      <point x="374" y="625" type="curve" smooth="yes"/>
      <point x="413" y="625"/>
      <point x="447" y="563"/>
    </contour>
    <component base="d" xOffset="-5"/>
  </outline>
</glyph>
<glyph name="uni1D74" format="2">
  <advance width="467"/>
  <unicode hex="1D74"/>
  <anchor x="235" y="0" name="bottom"/>
  <anchor x="245" y="527" name="top"/>
  <outline>
    <contour>
      <point x="86" y="204" type="line"/>
      <point x="102" y="232"/>
      <point x="120" y="260"/>
      <point x="166" y="260" type="curve"/>
      <point x="172" y="322" type="line"/>
      <point x="87" y="332"/>
      <point x="46" y="276"/>
      <point x="25" y="235" type="curve"/>
    </contour>
    <contour>
      <point x="309" y="218" type="line"/>
      <point x="392" y="208"/>
      <point x="432" y="258"/>
      <point x="453" y="299" type="curve"/>
      <point x="392" y="331" type="line"/>
      <point x="376" y="303"/>
      <point x="358" y="281"/>
      <point x="315" y="281" type="curve"/>
    </contour>
    <component base="s"/>
  </outline>
</glyph>
<glyph name="acutemacron" format="2">
  <unicode hex="1DC7"/>
  <anchor x="206" y="527" name="_top"/>
  <anchor x="208" y="746" name="top"/>
  <outline>
    <contour>
      <point x="66" y="589" type="line"/>
      <point x="232" y="685" type="line"/>
      <point x="179" y="746" type="line"/>
      <point x="30" y="635" type="line"/>
    </contour>
    <contour>
      <point x="118" y="677" type="line"/>
      <point x="381" y="677" type="line"/>
      <point x="381" y="746" type="line"/>
      <point x="179" y="746" type="line"/>
    </contour>
  </outline>
</glyph>
<glyph name="acutegraveacute" format="2">
  <unicode hex="1DC9"/>
  <anchor x="236" y="527" name="_top"/>
  <anchor x="238" y="795" name="top"/>
  <outline>
    <contour>
      <point x="283" y="653" type="line"/>
      <point x="441" y="738" type="line"/>
      <point x="400" y="795" type="line"/>
      <point x="283" y="717" type="line"/>
      <point x="165" y="795" type="line"/>
      <point x="30" y="698" type="line"/>
      <point x="58" y="653" type="line"/>
      <point x="166" y="715" type="line"/>
    </contour>
  </outline>
</glyph>
<glyph name="psilivaria" format="2">
  <advance width="342"/>
  <unicode hex="1FCD"/>
  <anchor x="163" y="527" name="_top"/>
  <outline>
    <contour>
      <point x="246" y="799" type="line"/>
      <point x="163" y="778" type="line"/>
      <point x="233" y="577" type="line"/>
      <point x="293" y="593" type="line"/>
    </contour>
    <component base="psili"/>
  </outline>
</glyph>
<glyph name="psiliperispomeni" format="2">
  <advance width="394"/>
  <unicode hex="1FCF"/>
  <anchor x="171" y="527" name="_top"/>
  <anchor x="369" y="860" name="_topleft"/>
  <anchor x="199" y="869" name="top"/>
  <outline>
    <contour>
      <point x="153" y="577" type="line"/>
      <point x="206" y="577" type="line"/>
      <point x="226" y="613" type="line" smooth="yes"/>
      <point x="250" y="656"/>
      <point x="255" y="673"/>
      <point x="255" y="690" type="curve" smooth="yes"/>
      <point x="255" y="722"/>
      <point x="231" y="746"/>
      <point x="198" y="746" type="curve" smooth="yes"/>
      <point x="165" y="746"/>
      <point x="140" y="722"/>
      <point x="140" y="690" type="curve" smooth="yes"/>
      <point x="140" y="668"/>
      <point x="150" y="652"/>
      <point x="172" y="639" type="curve"/>
    </contour>
    <component base="perispomeni" yOffset="95"/>
  </outline>
</glyph>
<glyph name="dasiaoxia" format="2">
  <advance width="343"/>
  <unicode hex="1FDE"/>
  <anchor x="156" y="527" name="_top"/>
  <outline>
    <contour>
      <point x="210" y="799" type="line"/>
      <point x="163" y="593" type="line"/>
      <point x="223" y="577" type="line"/>
      <point x="293" y="778" type="line"/>
    </contour>
    <component base="dasia"/>
  </outline>
</glyph>
<glyph name="daggerdbl" format="2">
  <advance width="510"/>
  <unicode hex="2021"/>
  <outline>
    <contour>
      <point x="468" y="236" type="line"/>
      <point x="42" y="236" type="line"/>
      <point x="42" y="159" type="line"/>
      <point x="468" y="159" type="line"/>
    </contour>
    <component base="dagger"/>
  </outline>
</glyph>
<glyph name="drachma" format="2">
  <advance width="1181"/>
  <unicode hex="20AF"/>
  <anchor x="887" y="-202" name="bottom"/>
  <anchor x="897" y="527" name="top"/>
  <outline>
    <contour>
      <point x="101" y="0" type="line"/>
      <point x="308" y="0" type="line" smooth="yes"/>
      <point x="457" y="0"/>
      <point x="632" y="67"/>
      <point x="632" y="338" type="curve" smooth="yes"/>
      <point x="632" y="614"/>
      <point x="463" y="669"/>
      <point x="287" y="669" type="curve"/>
      <point x="184" y="669" type="line"/>
      <point x="184" y="594" type="line"/>
      <point x="308" y="594" type="line"/>
      <point x="418" y="593"/>
      <point x="531" y="561"/>
      <point x="531" y="338" type="curve" smooth="yes"/>
      <point x="531" y="121"/>
      <point x="423" y="76"/>
      <point x="315" y="75" type="curve" smooth="yes"/>
      <point x="135" y="73" type="line"/>
    </contour>
    <contour>
      <point x="101" y="0" type="line"/>
      <point x="208" y="74" type="line"/>
      <point x="263" y="105"/>
      <point x="278" y="139"/>
      <point x="278" y="204" type="curve" smooth="yes"/>
      <point x="278" y="547" type="line"/>
      <point x="184" y="547" type="line"/>
      <point x="183" y="205" type="line" smooth="yes"/>
      <point x="183" y="123"/>
      <point x="169" y="98"/>
      <point x="101" y="73" type="curve"/>
    </contour>
    <component base="rho" xOffset="597"/>
    <component base="hookaboveHELPER2.case" yOffset="-20"/>
  </outline>
</glyph>
<glyph name="rupeeIndian" format="2">
  <advance width="531"/>
  <unicode hex="20B9"/>
  <outline>
    <contour>
      <point x="60" y="257" type="line"/>
      <point x="190" y="257" type="line"/>
      <point x="345" y="277"/>
      <point x="424" y="337"/>
      <point x="424" y="467" type="curve" smooth="yes"/>
      <point x="424" y="532"/>
      <point x="397" y="582"/>
      <point x="345" y="607" type="curve"/>
      <point x="501" y="607" type="line"/>
      <point x="501" y="669" type="line"/>
      <point x="60" y="669" type="line"/>
      <point x="60" y="600" type="line"/>
      <point x="161" y="600" type="line" smooth="yes"/>
      <point x="274" y="600"/>
      <point x="323" y="560"/>
      <point x="323" y="467" type="curve" smooth="yes"/>
      <point x="323" y="366"/>
      <point x="268" y="330"/>
      <point x="172" y="330" type="curve" smooth="yes"/>
      <point x="60" y="330" type="line"/>
    </contour>
    <contour>
      <point x="348" y="0" type="line"/>
      <point x="461" y="0" type="line"/>
      <point x="270" y="282" type="line"/>
      <point x="175" y="271" type="line"/>
    </contour>
    <contour>
      <point x="60" y="455" type="line"/>
      <point x="501" y="455" type="line"/>
      <point x="501" y="517" type="line"/>
      <point x="60" y="517" type="line"/>
    </contour>
  </outline>
</glyph>
<glyph name="liraTurkish" format="2">
  <advance width="545"/>
  <unicode hex="20BA"/>
  <outline>
    <contour>
      <point x="121" y="0" type="line"/>
      <point x="121" y="669" type="line"/>
      <point x="212" y="669" type="line"/>
      <point x="212" y="78" type="line"/>
      <point x="280" y="78" type="line" smooth="yes"/>
      <point x="374" y="78"/>
      <point x="429" y="109"/>
      <point x="472" y="201" type="curve"/>
      <point x="540" y="173" type="line"/>
      <point x="498" y="63"/>
      <point x="421" y="0"/>
      <point x="276" y="0" type="curve" smooth="yes"/>
    </contour>
    <contour>
      <point x="65" y="178" type="line"/>
      <point x="40" y="233" type="line"/>
      <point x="376" y="390" type="line"/>
      <point x="402" y="334" type="line"/>
    </contour>
    <contour>
      <point x="67" y="320" type="line"/>
      <point x="40" y="377" type="line"/>
      <point x="377" y="533" type="line"/>
      <point x="403" y="477" type="line"/>
    </contour>
  </outline>
</glyph>
<glyph name="numero" format="2">
  <advance width="1122"/>
  <unicode hex="2116"/>
  <anchor x="343" y="0" name="bottom"/>
  <anchor x="353" y="689" name="top"/>
  <outline>
    <contour>
      <point x="873" y="689" type="curve" smooth="yes"/>
      <point x="750" y="689"/>
      <point x="678" y="605"/>
      <point x="678" y="480" type="curve" smooth="yes"/>
      <point x="678" y="351"/>
      <point x="749" y="271"/>
      <point x="872" y="271" type="curve" smooth="yes"/>
      <point x="995" y="271"/>
      <point x="1066" y="356"/>
      <point x="1066" y="480" type="curve" smooth="yes"/>
      <point x="1066" y="609"/>
      <point x="996" y="689"/>
    </contour>
    <contour>
      <point x="873" y="620" type="curve" smooth="yes"/>
      <point x="937" y="620"/>
      <point x="971" y="577"/>
      <point x="971" y="480" type="curve" smooth="yes"/>
      <point x="971" y="384"/>
      <point x="937" y="340"/>
      <point x="872" y="340" type="curve" smooth="yes"/>
      <point x="808" y="340"/>
      <point x="773" y="384"/>
      <point x="773" y="480" type="curve" smooth="yes"/>
      <point x="773" y="576"/>
      <point x="808" y="620"/>
    </contour>
    <component base="N"/>
    <component base="minus" xOffset="622" yOffset="-294"/>
  </outline>
</glyph>
<glyph name="Whook" format="2">
  <advance width="866"/>
  <unicode hex="2C72"/>
  <anchor x="433" y="0" name="bottom"/>
  <anchor x="433" y="689" name="top"/>
  <outline>
    <contour>
      <point x="762" y="561" type="line" smooth="yes"/>
      <point x="771" y="612"/>
      <point x="786" y="629"/>
      <point x="825" y="629" type="curve" smooth="yes"/>
      <point x="850" y="629"/>
      <point x="869" y="619"/>
      <point x="885" y="607" type="curve"/>
      <point x="921" y="661" type="line"/>
      <point x="892" y="684"/>
      <point x="861" y="701"/>
      <point x="817" y="701" type="curve" smooth="yes"/>
      <point x="745" y="701"/>
      <point x="697" y="665"/>
      <point x="682" y="573" type="curve" smooth="yes"/>
      <point x="599" y="83" type="line"/>
      <point x="463" y="689" type="line"/>
      <point x="362" y="689" type="line"/>
      <point x="229" y="83" type="line"/>
      <point x="118" y="689" type="line"/>
      <point x="25" y="689" type="line"/>
      <point x="165" y="0" type="line"/>
      <point x="284" y="0" type="line"/>
      <point x="412" y="577" type="line"/>
      <point x="539" y="0" type="line"/>
      <point x="661" y="0" type="line"/>
    </contour>
  </outline>
</glyph>
<glyph name="Saltillo" format="2">
  <advance width="225"/>
  <unicode hex="A78B"/>
  <outline>
    <contour>
      <point x="74" y="347" type="line"/>
      <point x="150" y="347" type="line"/>
      <point x="165" y="689" type="line"/>
      <point x="60" y="689" type="line"/>
    </contour>
  </outline>
</glyph>
<glyph name="globeWithMeridians" format="2">
  <advance width="1216"/>
  <unicode hex="1F310"/>
  <outline>
    <contour>
      <point x="608" y="-227" type="curve" smooth="yes"/>
      <point x="893" y="-227"/>
      <point x="1122" y="1"/>
      <point x="1122" y="285" type="curve" smooth="yes"/>
      <point x="1122" y="569"/>
      <point x="893" y="797"/>
      <point x="608" y="797" type="curve" smooth="yes"/>
      <point x="323" y="797"/>
      <point x="94" y="569"/>
      <point x="94" y="285" type="curve" smooth="yes"/>
      <point x="94" y="1"/>
      <point x="323" y="-227"/>
    </contour>
    <contour>
      <point x="497" y="-141" type="curve"/>
      <point x="415" y="-119"/>
      <point x="343" y="-74"/>
      <point x="288" y="-13" type="curve"/>
      <point x="318" y="7"/>
      <point x="348" y="23"/>
      <point x="379" y="36" type="curve"/>
      <point x="408" y="-31"/>
      <point x="448" y="-91"/>
    </contour>
    <contour>
      <point x="243" y="46" type="curve"/>
      <point x="205" y="105"/>
      <point x="181" y="174"/>
      <point x="175" y="249" type="curve"/>
      <point x="327" y="249" type="line"/>
      <point x="330" y="199"/>
      <point x="339" y="150"/>
      <point x="353" y="103" type="curve"/>
      <point x="315" y="88"/>
      <point x="279" y="69"/>
    </contour>
    <contour>
      <point x="568" y="-115" type="line"/>
      <point x="520" y="-68"/>
      <point x="480" y="-7"/>
      <point x="452" y="59" type="curve"/>
      <point x="488" y="68"/>
      <point x="526" y="73"/>
      <point x="568" y="75" type="curve"/>
    </contour>
    <contour>
      <point x="428" y="127" type="curve"/>
      <point x="417" y="167"/>
      <point x="410" y="208"/>
      <point x="407" y="249" type="curve"/>
      <point x="568" y="249" type="line"/>
      <point x="568" y="147" type="line"/>
      <point x="519" y="145"/>
      <point x="472" y="138"/>
    </contour>
    <contour>
      <point x="648" y="-117" type="curve"/>
      <point x="648" y="75" type="line"/>
      <point x="690" y="73"/>
      <point x="729" y="68"/>
      <point x="765" y="59" type="curve"/>
      <point x="737" y="-9"/>
      <point x="697" y="-70"/>
    </contour>
    <contour>
      <point x="175" y="321" type="line"/>
      <point x="181" y="396"/>
      <point x="205" y="465"/>
      <point x="243" y="524" type="curve"/>
      <point x="279" y="501"/>
      <point x="315" y="482"/>
      <point x="353" y="467" type="curve"/>
      <point x="339" y="420"/>
      <point x="330" y="371"/>
      <point x="327" y="321" type="curve"/>
    </contour>
    <contour>
      <point x="722" y="-140" type="curve"/>
      <point x="770" y="-90"/>
      <point x="810" y="-31"/>
      <point x="839" y="35" type="curve"/>
      <point x="869" y="22"/>
      <point x="898" y="6"/>
      <point x="928" y="-13" type="curve"/>
      <point x="873" y="-73"/>
      <point x="802" y="-118"/>
    </contour>
    <contour>
      <point x="407" y="321" type="line"/>
      <point x="410" y="362"/>
      <point x="417" y="403"/>
      <point x="428" y="443" type="curve"/>
      <point x="472" y="432"/>
      <point x="519" y="425"/>
      <point x="568" y="423" type="curve"/>
      <point x="568" y="321" type="line"/>
    </contour>
    <contour>
      <point x="789" y="127" type="curve"/>
      <point x="745" y="138"/>
      <point x="698" y="145"/>
      <point x="648" y="147" type="curve"/>
      <point x="648" y="249" type="line"/>
      <point x="811" y="249" type="line"/>
      <point x="808" y="208"/>
      <point x="801" y="167"/>
    </contour>
    <contour>
      <point x="379" y="534" type="curve"/>
      <point x="348" y="547"/>
      <point x="318" y="563"/>
      <point x="288" y="583" type="curve"/>
      <point x="343" y="644"/>
      <point x="415" y="689"/>
      <point x="497" y="711" type="curve"/>
      <point x="448" y="661"/>
      <point x="408" y="601"/>
    </contour>
    <contour>
      <point x="568" y="495" type="line"/>
      <point x="526" y="497"/>
      <point x="488" y="502"/>
      <point x="452" y="511" type="curve"/>
      <point x="480" y="577"/>
      <point x="520" y="638"/>
      <point x="568" y="685" type="curve"/>
    </contour>
    <contour>
      <point x="973" y="46" type="curve"/>
      <point x="938" y="69"/>
      <point x="902" y="88"/>
      <point x="864" y="103" type="curve"/>
      <point x="879" y="150"/>
      <point x="888" y="199"/>
      <point x="891" y="249" type="curve"/>
      <point x="1041" y="249" type="line"/>
      <point x="1035" y="174"/>
      <point x="1011" y="105"/>
    </contour>
    <contour>
      <point x="648" y="321" type="line"/>
      <point x="648" y="423" type="line"/>
      <point x="698" y="425"/>
      <point x="745" y="432"/>
      <point x="789" y="443" type="curve"/>
      <point x="801" y="403"/>
      <point x="808" y="362"/>
      <point x="811" y="321" type="curve"/>
    </contour>
    <contour>
      <point x="648" y="495" type="curve"/>
      <point x="648" y="687" type="line"/>
      <point x="697" y="640"/>
      <point x="737" y="579"/>
      <point x="765" y="511" type="curve"/>
      <point x="729" y="502"/>
      <point x="690" y="497"/>
    </contour>
    <contour>
      <point x="891" y="321" type="line"/>
      <point x="888" y="371"/>
      <point x="879" y="420"/>
      <point x="864" y="467" type="curve"/>
      <point x="902" y="482"/>
      <point x="938" y="501"/>
      <point x="973" y="524" type="curve"/>
      <point x="1011" y="465"/>
      <point x="1035" y="396"/>
      <point x="1041" y="321" type="curve"/>
    </contour>
    <contour>
      <point x="839" y="535" type="curve"/>
      <point x="810" y="601"/>
      <point x="770" y="660"/>
      <point x="722" y="710" type="curve"/>
      <point x="802" y="688"/>
      <point x="873" y="643"/>
      <point x="928" y="583" type="curve"/>
      <point x="898" y="564"/>
      <point x="869" y="548"/>
    </contour>
  </outline>
</glyph>
<glyph name="Hturned.sc.ss02" format="2">
  <advance width="541"/>
  <anchor x="270.5" y="0" name="bottom"/>
  <anchor x="270.5" y="564" name="top"/>
  <outline>
    <contour>
      <point x="348" y="0" type="line"/>
      <point x="441" y="0" type="line"/>
      <point x="441" y="564" type="line"/>
      <point x="348" y="564" type="line"/>
      <point x="347" y="288" type="line"/>
      <point x="139" y="288" type="line"/>
      <point x="139" y="564" type="line"/>
      <point x="48" y="564" type="line"/>
      <point x="48" y="213" type="line"/>
      <point x="348" y="213" type="line"/>
    </contour>
  </outline>
</glyph>
<glyph name="Hturned.ss02" format="2">
  <advance width="601"/>
  <anchor x="300.5" y="0" name="bottom"/>
  <anchor x="300.5" y="689" name="top"/>
  <outline>
    <contour>
      <point x="406" y="0" type="line"/>
      <point x="501" y="0" type="line"/>
      <point x="501" y="689" type="line"/>
      <point x="406" y="689" type="line"/>
      <point x="406" y="346" type="line"/>
      <point x="143" y="346" type="line"/>
      <point x="143" y="689" type="line"/>
      <point x="48" y="689" type="line"/>
      <point x="48" y="268" type="line"/>
      <point x="406" y="268" type="line"/>
    </contour>
  </outline>
</glyph>
<glyph name="Iotaafrican.sc" format="2">
  <advance width="366"/>
  <anchor x="183" y="0" name="bottom"/>
  <anchor x="136" y="564" name="top"/>
  <outline>
    <contour>
      <point x="182" y="564" type="line"/>
      <point x="90" y="564" type="line"/>
      <point x="90" y="202" type="line"/>
      <point x="182" y="202" type="line"/>
    </contour>
    <component base="hookHELPER" xScale="-1" xOffset="386" yOffset="202"/>
  </outline>
</glyph>
<glyph name="TseHelper-cy" format="2">
  <advance width="665"/>
  <anchor x="327" y="0" name="bottom"/>
  <anchor x="575" y="0" name="bottomright"/>
  <outline>
    <contour>
      <point x="565" y="0" type="line"/>
      <point x="565" y="689" type="line"/>
      <point x="470" y="689" type="line"/>
      <point x="470" y="78" type="line"/>
      <point x="195" y="78" type="line"/>
      <point x="195" y="689" type="line"/>
      <point x="100" y="689" type="line"/>
      <point x="100" y="0" type="line"/>
    </contour>
  </outline>
</glyph>
<glyph name="a.sc" format="2">
  <advance width="505"/>
  <anchor x="251" y="0" name="bottom"/>
  <anchor x="479" y="0" name="ogonek"/>
  <anchor x="253" y="564" name="top"/>
  <outline>
    <contour>
      <point x="310" y="564" type="line"/>
      <point x="196" y="564" type="line"/>
      <point x="6" y="0" type="line"/>
      <point x="100" y="0" type="line"/>
      <point x="251" y="490" type="line"/>
      <point x="402" y="0" type="line"/>
      <point x="499" y="0" type="line"/>
    </contour>
    <contour>
      <point x="364" y="209" type="line"/>
      <point x="140" y="209" type="line"/>
      <point x="119" y="137" type="line"/>
      <point x="385" y="137" type="line"/>
    </contour>
  </outline>
</glyph>
<glyph name="acute.case.loclPLK" format="2">
  <advance width="237"/>
  <anchor x="83" y="689" name="_top"/>
  <outline>
    <contour>
      <point x="135" y="926" type="line"/>
      <point x="30" y="762" type="line"/>
      <point x="75" y="734" type="line"/>
      <point x="207" y="879" type="line"/>
    </contour>
  </outline>
</glyph>
<glyph name="acute.loclPLK" format="2">
  <advance width="236"/>
  <anchor x="83" y="527" name="_top"/>
  <outline>
    <contour>
      <point x="134" y="777" type="line"/>
      <point x="30" y="605" type="line"/>
      <point x="75" y="577" type="line"/>
      <point x="206" y="730" type="line"/>
    </contour>
  </outline>
</glyph>
<glyph name="acute.sc.loclPLK" format="2">
  <advance width="236"/>
  <anchor x="83" y="564" name="_top"/>
  <outline>
    <contour>
      <point x="134" y="819" type="line"/>
      <point x="30" y="647" type="line"/>
      <point x="75" y="619" type="line"/>
      <point x="206" y="772" type="line"/>
    </contour>
  </outline>
</glyph>
<glyph name="acutecomb.case" format="2">
  <anchor x="150" y="689" name="_top"/>
  <anchor x="152" y="911" name="top"/>
  <outline>
    <contour>
      <point x="230" y="911" type="line"/>
      <point x="30" y="804" type="line"/>
      <point x="54" y="755" type="line"/>
      <point x="270" y="834" type="line"/>
    </contour>
  </outline>
</glyph>
<glyph name="acutedbl" format="2">
  <advance width="248"/>
  <anchor x="70" y="527" name="_top"/>
  <anchor x="50" y="527" name="_topright"/>
  <outline>
    <contour>
      <point x="148" y="803" type="line"/>
      <point x="30" y="658" type="line"/>
      <point x="68" y="623" type="line"/>
      <point x="204" y="749" type="line"/>
    </contour>
  </outline>
</glyph>
<glyph name="aleutka-cy.sc" format="2">
  <advance width="564"/>
  <anchor x="282" y="0" name="bottom"/>
  <anchor x="503" y="0" name="bottomright"/>
  <anchor x="316" y="564" name="top"/>
  <outline>
    <contour>
      <point x="227" y="466" type="line"/>
      <point x="481" y="317" type="line"/>
      <point x="513" y="367" type="line"/>
      <point x="259" y="517" type="line"/>
    </contour>
    <component base="ka-cy.sc"/>
  </outline>
</glyph>
<glyph name="archaicsampi.sc" format="2">
  <advance width="512"/>
  <anchor x="256" y="0" name="bottom"/>
  <anchor x="256" y="564" name="top"/>
  <outline>
    <contour>
      <point x="210" y="0" type="line"/>
      <point x="302" y="0" type="line"/>
      <point x="302" y="490" type="line"/>
      <point x="497" y="490" type="line"/>
      <point x="497" y="564" type="line"/>
      <point x="16" y="564" type="line"/>
      <point x="16" y="490" type="line"/>
      <point x="210" y="490" type="line"/>
    </contour>
    <contour>
      <point x="416" y="332" type="line"/>
      <point x="497" y="332" type="line"/>
      <point x="497" y="519" type="line"/>
      <point x="416" y="519" type="line"/>
    </contour>
    <contour>
      <point x="15" y="332" type="line"/>
      <point x="96" y="332" type="line"/>
      <point x="96" y="519" type="line"/>
      <point x="15" y="519" type="line"/>
    </contour>
  </outline>
</glyph>
<glyph name="astroke.sc" format="2">
  <advance width="505"/>
  <anchor x="252.5" y="0" name="bottom"/>
  <anchor x="252.5" y="564" name="top"/>
  <outline>
    <contour>
      <point x="336" y="618" type="line"/>
      <point x="150" y="-52" type="line"/>
      <point x="193" y="-62" type="line"/>
      <point x="378" y="608" type="line"/>
    </contour>
    <contour>
      <point x="310" y="564" type="line"/>
      <point x="196" y="564" type="line"/>
      <point x="6" y="0" type="line"/>
      <point x="96" y="0" type="line"/>
      <point x="251" y="500" type="line"/>
      <point x="406" y="0" type="line"/>
      <point x="499" y="0" type="line"/>
    </contour>
    <contour>
      <point x="353" y="206" type="line"/>
      <point x="146" y="206" type="line"/>
      <point x="125" y="137" type="line"/>
      <point x="374" y="137" type="line"/>
    </contour>
  </outline>
</glyph>
<glyph name="caron.alt" format="2">
  <advance width="115"/>
  <anchor x="30" y="689" name="_topright"/>
  <outline>
    <contour>
      <point x="85" y="699" type="line"/>
      <point x="168" y="689" type="line"/>
      <point x="118" y="505" type="line"/>
      <point x="65" y="513" type="line"/>
    </contour>
  </outline>
</glyph>
<glyph name="caroncomb.case" format="2">
  <anchor x="196" y="689" name="_top"/>
  <anchor x="198" y="909" name="top"/>
  <outline>
    <contour>
      <point x="323" y="909" type="line"/>
      <point x="196" y="828" type="line"/>
      <point x="70" y="909" type="line"/>
      <point x="30" y="864" type="line"/>
      <point x="166" y="754" type="line"/>
      <point x="227" y="754" type="line"/>
      <point x="362" y="864" type="line"/>
    </contour>
  </outline>
</glyph>
<glyph name="che-cy.sc" format="2">
  <advance width="557"/>
  <anchor x="278.5" y="0" name="bottom"/>
  <anchor x="355" y="0" name="bottomleft"/>
  <anchor x="467" y="0" name="bottomright"/>
  <anchor x="249" y="564" name="top"/>
  <outline>
    <contour>
      <point x="132" y="564" type="line"/>
      <point x="40" y="564" type="line"/>
      <point x="40" y="351" type="line" smooth="yes"/>
      <point x="40" y="243"/>
      <point x="109" y="175"/>
      <point x="217" y="175" type="curve" smooth="yes"/>
      <point x="284" y="175"/>
      <point x="326" y="194"/>
      <point x="380" y="235" type="curve"/>
      <point x="373" y="301" type="line"/>
      <point x="346" y="273"/>
      <point x="304" y="250"/>
      <point x="240" y="250" type="curve" smooth="yes"/>
      <point x="170" y="250"/>
      <point x="132" y="282"/>
      <point x="132" y="356" type="curve" smooth="yes"/>
    </contour>
    <contour>
      <point x="457" y="564" type="line"/>
      <point x="365" y="564" type="line"/>
      <point x="365" y="0" type="line"/>
      <point x="457" y="0" type="line"/>
    </contour>
  </outline>
</glyph>
<glyph name="cheverticalstroke-cy.sc" format="2">
  <advance width="571"/>
  <anchor x="278.5" y="0.0" name="bottom"/>
  <anchor x="355" y="0" name="bottomleft"/>
  <anchor x="467" y="0" name="bottomright"/>
  <anchor x="249" y="564" name="top"/>
  <outline>
    <contour>
      <point x="273" y="427" type="line"/>
      <point x="218" y="427" type="line"/>
      <point x="218" y="92" type="line"/>
      <point x="273" y="92" type="line"/>
    </contour>
    <component base="che-cy.sc"/>
  </outline>
</glyph>
<glyph name="cstroke.sc" format="2">
  <advance width="502"/>
  <anchor x="310" y="0" name="bottom"/>
  <anchor x="311" y="564" name="top"/>
  <outline>
    <contour>
      <point x="359" y="618" type="line"/>
      <point x="173" y="-52" type="line"/>
      <point x="216" y="-62" type="line"/>
      <point x="401" y="608" type="line"/>
    </contour>
    <component base="c.sc"/>
  </outline>
</glyph>
<glyph name="d.sc" format="2">
  <advance width="587"/>
  <anchor x="289" y="0" name="bottom"/>
  <anchor x="298" y="283" name="center"/>
  <anchor x="279" y="564" name="top"/>
  <outline>
    <contour>
      <point x="232" y="564" type="curve" smooth="yes"/>
      <point x="100" y="564" type="line"/>
      <point x="100" y="0" type="line"/>
      <point x="249" y="0" type="line" smooth="yes"/>
      <point x="381" y="0"/>
      <point x="532" y="56"/>
      <point x="532" y="286" type="curve" smooth="yes"/>
      <point x="532" y="518"/>
      <point x="385" y="564"/>
    </contour>
    <contour>
      <point x="250" y="493" type="line" smooth="yes"/>
      <point x="344" y="493"/>
      <point x="435" y="465"/>
      <point x="435" y="286" type="curve" smooth="yes"/>
      <point x="435" y="108"/>
      <point x="348" y="70"/>
      <point x="256" y="70" type="curve" smooth="yes"/>
      <point x="192" y="70" type="line"/>
      <point x="192" y="493" type="line"/>
    </contour>
  </outline>
</glyph>
<glyph name="dasia.case" format="2">
  <advance width="100"/>
  <anchor x="192" y="689" name="_topleft"/>
  <anchor x="92" y="699" name="top"/>
  <outline>
    <contour>
      <point x="87" y="699" type="curve" smooth="yes"/>
      <point x="55" y="699"/>
      <point x="30" y="675"/>
      <point x="30" y="643" type="curve" smooth="yes"/>
      <point x="30" y="626"/>
      <point x="35" y="610"/>
      <point x="56" y="566" type="curve" smooth="yes"/>
      <point x="97" y="480" type="line"/>
      <point x="150" y="480" type="line"/>
      <point x="121" y="596" type="line"/>
      <point x="135" y="608"/>
      <point x="145" y="624"/>
      <point x="145" y="643" type="curve" smooth="yes"/>
      <point x="145" y="675"/>
      <point x="119" y="699"/>
    </contour>
  </outline>
</glyph>
<glyph name="dasiaoxia.case" format="2">
  <advance width="236"/>
  <anchor x="331" y="689" name="_topleft"/>
  <anchor x="166" y="693" name="top"/>
  <outline>
    <contour>
      <point x="213" y="690" type="line"/>
      <point x="166" y="484" type="line"/>
      <point x="226" y="468" type="line"/>
      <point x="296" y="669" type="line"/>
    </contour>
    <contour>
      <point x="87" y="693" type="curve" smooth="yes"/>
      <point x="55" y="693"/>
      <point x="30" y="669"/>
      <point x="30" y="637" type="curve" smooth="yes"/>
      <point x="30" y="620"/>
      <point x="35" y="604"/>
      <point x="56" y="560" type="curve" smooth="yes"/>
      <point x="97" y="474" type="line"/>
      <point x="150" y="474" type="line"/>
      <point x="121" y="590" type="line"/>
      <point x="135" y="602"/>
      <point x="145" y="618"/>
      <point x="145" y="637" type="curve" smooth="yes"/>
      <point x="145" y="669"/>
      <point x="119" y="693"/>
    </contour>
  </outline>
</glyph>
<glyph name="dasiaperispomeni.case" format="2">
  <advance width="241"/>
  <anchor x="316" y="689" name="_topleft"/>
  <anchor x="146" y="699" name="top"/>
  <outline>
    <contour>
      <point x="189" y="407" type="line"/>
      <point x="170" y="469" type="line"/>
      <point x="192" y="482"/>
      <point x="202" y="498"/>
      <point x="202" y="520" type="curve" smooth="yes"/>
      <point x="202" y="552"/>
      <point x="177" y="576"/>
      <point x="144" y="576" type="curve" smooth="yes"/>
      <point x="111" y="576"/>
      <point x="87" y="552"/>
      <point x="87" y="520" type="curve" smooth="yes"/>
      <point x="87" y="503"/>
      <point x="92" y="486"/>
      <point x="116" y="443" type="curve" smooth="yes"/>
      <point x="136" y="407" type="line"/>
    </contour>
    <component base="perispomeni" xOffset="-53" yOffset="-75"/>
  </outline>
</glyph>
<glyph name="de-cy.sc" format="2">
  <advance width="553"/>
  <anchor x="464" y="0" name="_bottom"/>
  <anchor x="276.5" y="-202" name="bottom"/>
  <anchor x="276.5" y="564" name="top"/>
  <outline>
    <contour>
      <point x="31" y="68" type="curve"/>
      <point x="105" y="68" type="line"/>
      <point x="173" y="112"/>
      <point x="183" y="175"/>
      <point x="211" y="399" type="curve" smooth="yes"/>
      <point x="223" y="491" type="line"/>
      <point x="361" y="491" type="line"/>
      <point x="361" y="74" type="line"/>
      <point x="37" y="74" type="line"/>
      <point x="37" y="0" type="line"/>
      <point x="453" y="0" type="line"/>
      <point x="453" y="564" type="line"/>
      <point x="143" y="564" type="line"/>
      <point x="121" y="398" type="line" smooth="yes"/>
      <point x="91" y="163"/>
      <point x="81" y="111"/>
    </contour>
    <component base="descStraight-cy" xOffset="350"/>
    <component base="descStraight-cy" xScale="-1" xOffset="149"/>
  </outline>
</glyph>
<glyph name="delta.sc" format="2">
  <advance width="514"/>
  <anchor x="257" y="0" name="bottom"/>
  <anchor x="257" y="564" name="top"/>
  <outline>
    <contour>
      <point x="255" y="490" type="line"/>
      <point x="390" y="73" type="line"/>
      <point x="120" y="73" type="line"/>
    </contour>
    <contour>
      <point x="314" y="564" type="line"/>
      <point x="200" y="564" type="line"/>
      <point x="6" y="0" type="line"/>
      <point x="508" y="0" type="line"/>
    </contour>
  </outline>
</glyph>
<glyph name="descStraight-cy.case" format="2">
  <advance width="194"/>
  <anchor x="114" y="0" name="_bottom"/>
  <anchor x="-11" y="0" name="_bottomleft"/>
  <anchor x="89" y="0" name="_bottomright"/>
  <outline>
    <contour>
      <point x="159" y="78" type="line"/>
      <point x="30" y="78" type="line"/>
      <point x="30" y="0" type="line"/>
      <point x="69" y="0" type="line"/>
      <point x="84" y="-150" type="line"/>
      <point x="159" y="-150" type="line"/>
    </contour>
  </outline>
</glyph>
<glyph name="descTail-cy.case" format="2">
  <advance width="194"/>
  <anchor x="114" y="0" name="_bottom"/>
  <anchor x="-11" y="0" name="_bottomleft"/>
  <anchor x="89" y="0" name="_bottomright"/>
  <outline>
    <contour>
      <point x="189" y="78" type="line"/>
      <point x="30" y="78" type="line"/>
      <point x="30" y="0" type="line"/>
      <point x="69" y="0" type="line"/>
      <point x="34" y="-150" type="line"/>
      <point x="109" y="-150" type="line"/>
    </contour>
  </outline>
</glyph>
<glyph name="descTail-cy" format="2">
  <advance width="194"/>
  <anchor x="114" y="0" name="_bottom"/>
  <anchor x="86" y="0" name="_bottomleft"/>
  <anchor x="89" y="0" name="_bottomright"/>
  <outline>
    <contour>
      <point x="179" y="74" type="line"/>
      <point x="33" y="74" type="line"/>
      <point x="33" y="0" type="line"/>
      <point x="69" y="0" type="line"/>
      <point x="34" y="-150" type="line"/>
      <point x="109" y="-150" type="line"/>
    </contour>
  </outline>
</glyph>
<glyph name="dieresisacutecomb.case" format="2">
  <advance width="385"/>
  <anchor x="193" y="689" name="_top"/>
  <outline>
    <contour>
      <point x="88" y="860" type="curve" smooth="yes"/>
      <point x="55" y="860"/>
      <point x="30" y="835"/>
      <point x="30" y="803" type="curve" smooth="yes"/>
      <point x="30" y="771"/>
      <point x="55" y="746"/>
      <point x="88" y="746" type="curve" smooth="yes"/>
      <point x="120" y="746"/>
      <point x="145" y="771"/>
      <point x="145" y="803" type="curve" smooth="yes"/>
      <point x="145" y="835"/>
      <point x="120" y="860"/>
    </contour>
    <contour>
      <point x="297" y="860" type="curve" smooth="yes"/>
      <point x="265" y="860"/>
      <point x="240" y="835"/>
      <point x="240" y="803" type="curve" smooth="yes"/>
      <point x="240" y="771"/>
      <point x="265" y="746"/>
      <point x="297" y="746" type="curve" smooth="yes"/>
      <point x="330" y="746"/>
      <point x="355" y="771"/>
      <point x="355" y="803" type="curve" smooth="yes"/>
      <point x="355" y="835"/>
      <point x="330" y="860"/>
    </contour>
    <component base="acutedbl" xOffset="127" yOffset="212"/>
  </outline>
</glyph>
<glyph name="dieresiscaroncomb.case" format="2">
  <advance width="385"/>
  <anchor x="192" y="1021" name="top"/>
  <anchor x="193" y="689" name="_top"/>
  <outline>
    <contour>
      <point x="297" y="860" type="curve" smooth="yes"/>
      <point x="265" y="860"/>
      <point x="240" y="835"/>
      <point x="240" y="803" type="curve" smooth="yes"/>
      <point x="240" y="771"/>
      <point x="265" y="746"/>
      <point x="297" y="746" type="curve" smooth="yes"/>
      <point x="330" y="746"/>
      <point x="355" y="771"/>
      <point x="355" y="803" type="curve" smooth="yes"/>
      <point x="355" y="835"/>
      <point x="330" y="860"/>
    </contour>
    <contour>
      <point x="88" y="860" type="curve" smooth="yes"/>
      <point x="55" y="860"/>
      <point x="30" y="835"/>
      <point x="30" y="803" type="curve" smooth="yes"/>
      <point x="30" y="771"/>
      <point x="55" y="746"/>
      <point x="88" y="746" type="curve" smooth="yes"/>
      <point x="120" y="746"/>
      <point x="145" y="771"/>
      <point x="145" y="803" type="curve" smooth="yes"/>
      <point x="145" y="835"/>
      <point x="120" y="860"/>
    </contour>
    <component base="caroncomb.case" xOffset="-6" yOffset="112"/>
  </outline>
</glyph>
<glyph name="dieresiscaroncomb" format="2">
  <advance width="392"/>
  <anchor x="198" y="899" name="top"/>
  <anchor x="199" y="527" name="_top"/>
  <outline>
    <contour>
      <point x="303" y="738" type="curve" smooth="yes"/>
      <point x="271" y="738"/>
      <point x="246" y="713"/>
      <point x="246" y="681" type="curve" smooth="yes"/>
      <point x="246" y="649"/>
      <point x="271" y="624"/>
      <point x="303" y="624" type="curve" smooth="yes"/>
      <point x="336" y="624"/>
      <point x="361" y="649"/>
      <point x="361" y="681" type="curve" smooth="yes"/>
      <point x="361" y="713"/>
      <point x="336" y="738"/>
    </contour>
    <contour>
      <point x="94" y="738" type="curve" smooth="yes"/>
      <point x="61" y="738"/>
      <point x="36" y="713"/>
      <point x="36" y="681" type="curve" smooth="yes"/>
      <point x="36" y="649"/>
      <point x="61" y="624"/>
      <point x="94" y="624" type="curve" smooth="yes"/>
      <point x="126" y="624"/>
      <point x="151" y="649"/>
      <point x="151" y="681" type="curve" smooth="yes"/>
      <point x="151" y="713"/>
      <point x="126" y="738"/>
    </contour>
    <component base="caroncomb.case" yOffset="-10"/>
  </outline>
</glyph>
<glyph name="dieresisgravecomb" format="2">
  <advance width="385"/>
  <anchor x="193" y="527" name="_top"/>
  <outline>
    <contour>
      <point x="297" y="738" type="curve" smooth="yes"/>
      <point x="265" y="738"/>
      <point x="240" y="713"/>
      <point x="240" y="681" type="curve" smooth="yes"/>
      <point x="240" y="649"/>
      <point x="265" y="624"/>
      <point x="297" y="624" type="curve" smooth="yes"/>
      <point x="330" y="624"/>
      <point x="355" y="649"/>
      <point x="355" y="681" type="curve" smooth="yes"/>
      <point x="355" y="713"/>
      <point x="330" y="738"/>
    </contour>
    <contour>
      <point x="88" y="738" type="curve" smooth="yes"/>
      <point x="55" y="738"/>
      <point x="30" y="713"/>
      <point x="30" y="681" type="curve" smooth="yes"/>
      <point x="30" y="649"/>
      <point x="55" y="624"/>
      <point x="88" y="624" type="curve" smooth="yes"/>
      <point x="120" y="624"/>
      <point x="145" y="649"/>
      <point x="145" y="681" type="curve" smooth="yes"/>
      <point x="145" y="713"/>
      <point x="120" y="738"/>
    </contour>
    <component base="gravedbl" xOffset="13" yOffset="90"/>
  </outline>
</glyph>
<glyph name="digamma.sc" format="2">
  <advance width="460"/>
  <anchor x="146" y="0" name="bottom"/>
  <anchor x="200" y="0" name="bottomright"/>
  <anchor x="273" y="564" name="top"/>
  <outline>
    <contour>
      <point x="372" y="229" type="curve"/>
      <point x="395" y="296" type="line"/>
      <point x="366" y="311"/>
      <point x="340" y="318"/>
      <point x="291" y="318" type="curve" smooth="yes"/>
      <point x="103" y="318" type="line"/>
      <point x="103" y="243" type="line"/>
      <point x="283" y="243" type="line" smooth="yes"/>
      <point x="326" y="243"/>
      <point x="349" y="237"/>
    </contour>
    <component base="gamma.sc"/>
  </outline>
</glyph>
<glyph name="eiotified-cy.sc" format="2">
  <advance width="728"/>
  <anchor x="364" y="0" name="bottom"/>
  <anchor x="364" y="564" name="top"/>
  <outline>
    <contour>
      <point x="192" y="564" type="line"/>
      <point x="100" y="564" type="line"/>
      <point x="100" y="0" type="line"/>
      <point x="192" y="0" type="line"/>
      <point x="192" y="253" type="line"/>
      <point x="302" y="253" type="line"/>
      <point x="302" y="328" type="line"/>
      <point x="192" y="328" type="line"/>
    </contour>
    <component base="e-cy.sc" xOffset="221"/>
  </outline>
</glyph>
<glyph name="el-cy.sc" format="2">
  <advance width="569"/>
  <anchor x="284.5" y="0" name="bottom"/>
  <anchor x="479" y="0" name="bottomright"/>
  <anchor x="284.5" y="564" name="top"/>
  <outline>
    <contour>
      <point x="123" y="564" type="line"/>
      <point x="190" y="489" type="line"/>
      <point x="377" y="489" type="line"/>
      <point x="377" y="0" type="line"/>
      <point x="469" y="0" type="line"/>
      <point x="469" y="564" type="line"/>
    </contour>
    <contour>
      <point x="207" y="489" type="line"/>
      <point x="123" y="564" type="line"/>
      <point x="98" y="296" type="line" smooth="yes"/>
      <point x="82" y="125"/>
      <point x="79" y="88"/>
      <point x="14" y="61" type="curve"/>
      <point x="37" y="-12" type="line"/>
      <point x="151" y="26"/>
      <point x="169" y="88"/>
      <point x="188" y="286" type="curve" smooth="yes"/>
    </contour>
  </outline>
</glyph>
<glyph name="elmiddlehook-cy.sc" format="2">
  <advance width="829"/>
  <anchor x="414.5" y="-202" name="bottom"/>
  <anchor x="479" y="0" name="bottomright"/>
  <anchor x="414.5" y="564" name="top"/>
  <outline>
    <contour>
      <point x="615" y="374" type="curve" smooth="yes"/>
      <point x="543" y="374"/>
      <point x="496" y="350"/>
      <point x="460" y="312" type="curve"/>
      <point x="461" y="235" type="line"/>
      <point x="493" y="275"/>
      <point x="531" y="300"/>
      <point x="593" y="300" type="curve" smooth="yes"/>
      <point x="668" y="300"/>
      <point x="702" y="262"/>
      <point x="702" y="191" type="curve" smooth="yes"/>
      <point x="702" y="0" type="line"/>
      <point x="794" y="0" type="line"/>
      <point x="794" y="191" type="line" smooth="yes"/>
      <point x="794" y="306"/>
      <point x="730" y="374"/>
    </contour>
    <component base="el-cy.sc"/>
    <component base="hookHELPER" xOffset="498"/>
  </outline>
</glyph>
<glyph name="enmiddlehook-cy.sc" format="2">
  <advance width="885"/>
  <anchor x="442.5" y="-202" name="bottom"/>
  <anchor x="533" y="0" name="bottomright"/>
  <anchor x="312" y="283" name="center"/>
  <anchor x="442.5" y="564" name="top"/>
  <outline>
    <contour>
      <point x="671" y="374" type="curve" smooth="yes"/>
      <point x="599" y="374"/>
      <point x="552" y="350"/>
      <point x="516" y="312" type="curve"/>
      <point x="517" y="235" type="line"/>
      <point x="549" y="275"/>
      <point x="587" y="300"/>
      <point x="649" y="300" type="curve" smooth="yes"/>
      <point x="724" y="300"/>
      <point x="758" y="262"/>
      <point x="758" y="191" type="curve" smooth="yes"/>
      <point x="758" y="0" type="line"/>
      <point x="850" y="0" type="line"/>
      <point x="850" y="191" type="line" smooth="yes"/>
      <point x="850" y="306"/>
      <point x="786" y="374"/>
    </contour>
    <component base="h.sc"/>
    <component base="hookHELPER" xOffset="554"/>
  </outline>
</glyph>
<glyph name="estroke.sc" format="2">
  <advance width="490"/>
  <anchor x="268" y="0" name="bottom"/>
  <anchor x="416" y="0" name="ogonek"/>
  <anchor x="268" y="564" name="top"/>
  <outline>
    <contour>
      <point x="345" y="618" type="line"/>
      <point x="159" y="-52" type="line"/>
      <point x="202" y="-62" type="line"/>
      <point x="387" y="608" type="line"/>
    </contour>
    <component base="e.sc"/>
  </outline>
</glyph>
<glyph name="eth.sc" format="2">
  <advance width="587"/>
  <anchor x="289" y="0" name="bottom"/>
  <anchor x="298" y="283" name="center"/>
  <anchor x="279" y="564" name="top"/>
  <outline>
    <contour>
      <point x="40" y="256" type="line"/>
      <point x="303" y="256" type="line"/>
      <point x="303" y="325" type="line"/>
      <point x="100" y="325" type="line"/>
      <point x="40" y="325" type="line"/>
    </contour>
    <component base="d.sc"/>
  </outline>
</glyph>
<glyph name="f.sc" format="2">
  <advance width="449"/>
  <anchor x="146" y="0" name="bottom"/>
  <anchor x="224.5" y="564" name="top"/>
  <outline>
    <contour>
      <point x="424" y="564" type="line"/>
      <point x="100" y="564" type="line"/>
      <point x="100" y="0" type="line"/>
      <point x="192" y="0" type="line"/>
      <point x="192" y="243" type="line"/>
      <point x="383" y="243" type="line"/>
      <point x="383" y="313" type="line"/>
      <point x="192" y="313" type="line"/>
      <point x="192" y="493" type="line"/>
      <point x="413" y="493" type="line"/>
    </contour>
  </outline>
</glyph>
<glyph name="ge-cy.sc" format="2">
  <advance width="445"/>
  <anchor x="146" y="0" name="bottom"/>
  <anchor x="200" y="0" name="bottomright"/>
  <anchor x="273" y="564" name="top"/>
  <outline>
    <contour>
      <point x="100" y="564" type="line"/>
      <point x="100" y="0" type="line"/>
      <point x="192" y="0" type="line"/>
      <point x="192" y="504" type="line"/>
    </contour>
    <contour>
      <point x="435" y="564" type="line"/>
      <point x="100" y="564" type="line"/>
      <point x="179" y="487" type="line"/>
      <point x="422" y="487" type="line"/>
    </contour>
  </outline>
</glyph>
<glyph name="gestrokehook-cy.sc" format="2">
  <advance width="442"/>
  <anchor x="143" y="0" name="bottom"/>
  <anchor x="197" y="0" name="bottomright"/>
  <anchor x="270" y="564" name="top"/>
  <outline>
    <contour>
      <point x="188" y="74" type="line"/>
      <point x="188" y="0" type="line"/>
      <point x="284" y="0" type="line"/>
      <point x="284" y="74" type="line"/>
    </contour>
    <component base="ghestroke-cy.sc"/>
    <component base="hookHELPER" xOffset="-12"/>
  </outline>
</glyph>
<glyph name="ghestroke-cy.sc" format="2">
  <advance width="442"/>
  <anchor x="143" y="0" name="bottom"/>
  <anchor x="197" y="0" name="bottomright"/>
  <anchor x="270" y="564" name="top"/>
  <outline>
    <contour>
      <point x="328" y="336" type="line"/>
      <point x="97" y="336" type="line"/>
      <point x="10" y="336" type="line"/>
      <point x="10" y="264" type="line"/>
      <point x="328" y="264" type="line"/>
    </contour>
    <component base="ge-cy.sc" xOffset="-3"/>
  </outline>
</glyph>
<glyph name="gheupturn-cy.sc" format="2">
  <advance width="445"/>
  <anchor x="146" y="0" name="bottom"/>
  <anchor x="200" y="0" name="bottomright"/>
  <anchor x="273" y="564" name="top"/>
  <outline>
    <contour>
      <point x="348" y="554" type="line"/>
      <point x="435" y="564" type="line"/>
      <point x="435" y="689" type="line"/>
      <point x="348" y="689" type="line"/>
    </contour>
    <component base="ge-cy.sc"/>
  </outline>
</glyph>
<glyph name="gravecomb.case" format="2">
  <anchor x="160" y="689" name="_top"/>
  <anchor x="160" y="911" name="top"/>
  <outline>
    <contour>
      <point x="69" y="911" type="line"/>
      <point x="30" y="834" type="line"/>
      <point x="246" y="755" type="line"/>
      <point x="270" y="804" type="line"/>
    </contour>
  </outline>
</glyph>
<glyph name="gravedbl" format="2">
  <advance width="248"/>
  <anchor x="179" y="527" name="_top"/>
  <anchor x="199" y="527" name="_topleft"/>
  <outline>
    <contour>
      <point x="100" y="803" type="line"/>
      <point x="44" y="749" type="line"/>
      <point x="180" y="623" type="line"/>
      <point x="218" y="658" type="line"/>
    </contour>
  </outline>
</glyph>
<glyph name="h.sc" format="2">
  <advance width="625"/>
  <anchor x="312" y="0" name="bottom"/>
  <anchor x="533" y="0" name="bottomright"/>
  <anchor x="312" y="283" name="center"/>
  <anchor x="312" y="564" name="top"/>
  <outline>
    <contour>
      <point x="525" y="564" type="line"/>
      <point x="433" y="564" type="line"/>
      <point x="433" y="334" type="line"/>
      <point x="192" y="334" type="line"/>
      <point x="192" y="564" type="line"/>
      <point x="100" y="564" type="line"/>
      <point x="100" y="0" type="line"/>
      <point x="192" y="0" type="line"/>
      <point x="192" y="259" type="line"/>
      <point x="433" y="259" type="line"/>
      <point x="433" y="0" type="line"/>
      <point x="525" y="0" type="line"/>
    </contour>
  </outline>
</glyph>
<glyph name="hahook-cy.sc" format="2">
  <advance width="499"/>
  <anchor x="249.5" y="-202" name="bottom"/>
  <anchor x="428" y="0" name="bottomright"/>
  <anchor x="238.5" y="564.0" name="top"/>
  <outline>
    <contour>
      <point x="368" y="74" type="line"/>
      <point x="368" y="0" type="line"/>
      <point x="494" y="0" type="line"/>
      <point x="494" y="74" type="line"/>
    </contour>
    <component base="hookHELPER" xOffset="198"/>
    <component base="x.sc"/>
  </outline>
</glyph>
<glyph name="hardsign-cy.sc" format="2">
  <advance width="569"/>
  <anchor x="307.5" y="0.0" name="bottom"/>
  <anchor x="307.5" y="564.0" name="top"/>
  <outline>
    <contour>
      <point x="146" y="492" type="line"/>
      <point x="238" y="564" type="line"/>
      <point x="0" y="564" type="line"/>
      <point x="0" y="492" type="line"/>
    </contour>
    <component base="softsign-cy.sc" xOffset="46"/>
  </outline>
</glyph>
<glyph name="hastroke-cy.sc" format="2">
  <advance width="477"/>
  <anchor x="238.5" y="0" name="bottom"/>
  <anchor x="238.5" y="564" name="top"/>
  <outline>
    <contour>
      <point x="124" y="564" type="line"/>
      <point x="21" y="564" type="line"/>
      <point x="187" y="301" type="line"/>
      <point x="237" y="247" type="line"/>
      <point x="368" y="0" type="line"/>
      <point x="472" y="0" type="line"/>
      <point x="287" y="305" type="line"/>
      <point x="238" y="356" type="line"/>
    </contour>
    <contour>
      <point x="453" y="564" type="line"/>
      <point x="354" y="564" type="line"/>
      <point x="238" y="356" type="line"/>
      <point x="187" y="301" type="line"/>
      <point x="5" y="0" type="line"/>
      <point x="104" y="0" type="line"/>
      <point x="237" y="247" type="line"/>
      <point x="287" y="305" type="line"/>
    </contour>
    <component base="hyphen" xScale="1.3" yScale="0.9" xOffset="-24" yOffset="20"/>
  </outline>
</glyph>
<glyph name="hbar.sc" format="2">
  <advance width="626"/>
  <anchor x="313" y="0" name="bottom"/>
  <anchor x="534" y="0" name="bottomright"/>
  <anchor x="313" y="283" name="center"/>
  <anchor x="313" y="564" name="top"/>
  <outline>
    <contour>
      <point x="584" y="490" type="line"/>
      <point x="525" y="490" type="line"/>
      <point x="42" y="490" type="line"/>
      <point x="42" y="422" type="line"/>
      <point x="101" y="422" type="line"/>
      <point x="584" y="422" type="line"/>
    </contour>
    <component base="h.sc" xOffset="1"/>
  </outline>
</glyph>
<glyph name="heta.sc" format="2">
  <advance width="463"/>
  <anchor x="231.5" y="0" name="bottom"/>
  <anchor x="231.5" y="564" name="top"/>
  <outline>
    <contour>
      <point x="438" y="258" type="line"/>
      <point x="438" y="333" type="line"/>
      <point x="192" y="333" type="line"/>
      <point x="192" y="564" type="line"/>
      <point x="100" y="564" type="line"/>
      <point x="100" y="0" type="line"/>
      <point x="192" y="0" type="line"/>
      <point x="192" y="258" type="line"/>
    </contour>
  </outline>
</glyph>
<glyph name="horncomb.case" format="2">
  <anchor x="40" y="689" name="_topright"/>
  <anchor x="92" y="689" name="topright"/>
  <outline>
    <contour>
      <point x="30" y="583" type="line"/>
      <point x="110" y="583"/>
      <point x="154" y="631"/>
      <point x="154" y="691" type="curve" smooth="yes"/>
      <point x="154" y="727"/>
      <point x="146" y="754"/>
      <point x="135" y="773" type="curve"/>
      <point x="63" y="758" type="line"/>
      <point x="71" y="738"/>
      <point x="77" y="720"/>
      <point x="77" y="686" type="curve" smooth="yes"/>
      <point x="77" y="657"/>
      <point x="59" y="639"/>
      <point x="20" y="635" type="curve"/>
    </contour>
  </outline>
</glyph>
<glyph name="i.sc" format="2">
  <advance width="292"/>
  <anchor x="146" y="0" name="bottom"/>
  <anchor x="202" y="0" name="ogonek"/>
  <anchor x="146" y="564" name="top"/>
  <outline>
    <contour>
      <point x="192" y="564" type="line"/>
      <point x="100" y="564" type="line"/>
      <point x="100" y="0" type="line"/>
      <point x="192" y="0" type="line"/>
    </contour>
  </outline>
</glyph>
<glyph name="ia-cy.sc" format="2">
  <advance width="541"/>
  <anchor x="270.5" y="0" name="bottom"/>
  <anchor x="270.5" y="564" name="top"/>
  <outline>
    <contour>
      <point x="242" y="229" type="line"/>
      <point x="157" y="248" type="line"/>
      <point x="20" y="0" type="line"/>
      <point x="124" y="0" type="line"/>
    </contour>
    <contour>
      <point x="155" y="232" type="curve"/>
      <point x="212" y="218" type="line"/>
      <point x="363" y="218" type="line"/>
      <point x="363" y="287" type="line"/>
      <point x="249" y="287" type="line" smooth="yes"/>
      <point x="182" y="287"/>
      <point x="134" y="320"/>
      <point x="134" y="389" type="curve" smooth="yes"/>
      <point x="134" y="458"/>
      <point x="174" y="495"/>
      <point x="273" y="495" type="curve" smooth="yes"/>
      <point x="349" y="495" type="line"/>
      <point x="349" y="0" type="line"/>
      <point x="441" y="0" type="line"/>
      <point x="441" y="564" type="line"/>
      <point x="267" y="564" type="line" smooth="yes"/>
      <point x="114" y="564"/>
      <point x="37" y="499"/>
      <point x="37" y="389" type="curve" smooth="yes"/>
      <point x="37" y="315"/>
      <point x="76" y="259"/>
    </contour>
  </outline>
</glyph>
<glyph name="ii-cy.sc" format="2">
  <advance width="625"/>
  <anchor x="312.5" y="0" name="bottom"/>
  <anchor x="535" y="0" name="bottomright"/>
  <anchor x="313" y="564" name="top"/>
  <outline>
    <contour>
      <point x="525" y="564" type="line"/>
      <point x="412" y="564" type="line"/>
      <point x="179" y="96" type="line"/>
      <point x="185" y="147"/>
      <point x="192" y="203"/>
      <point x="192" y="305" type="curve" smooth="yes"/>
      <point x="192" y="564" type="line"/>
      <point x="100" y="564" type="line"/>
      <point x="100" y="0" type="line"/>
      <point x="216" y="0" type="line"/>
      <point x="446" y="467" type="line"/>
      <point x="441" y="420"/>
      <point x="433" y="351"/>
      <point x="433" y="260" type="curve" smooth="yes"/>
      <point x="433" y="0" type="line"/>
      <point x="525" y="0" type="line"/>
    </contour>
  </outline>
</glyph>
<glyph name="j.sc" format="2">
  <advance width="286"/>
  <anchor x="143" y="-202" name="bottom"/>
  <anchor x="145" y="564" name="top"/>
  <outline>
    <contour>
      <point x="191" y="564" type="line"/>
      <point x="99" y="564" type="line"/>
      <point x="99" y="84" type="line" smooth="yes"/>
      <point x="99" y="11"/>
      <point x="83" y="-23"/>
      <point x="5" y="-53" type="curve"/>
      <point x="29" y="-119" type="line"/>
      <point x="127" y="-90"/>
      <point x="191" y="-44"/>
      <point x="191" y="81" type="curve" smooth="yes"/>
    </contour>
  </outline>
</glyph>
<glyph name="k.sc" format="2">
  <advance width="536"/>
  <anchor x="293" y="0" name="bottom"/>
  <anchor x="302" y="564" name="top"/>
  <outline>
    <contour>
      <point x="520" y="564" type="line"/>
      <point x="417" y="564" type="line"/>
      <point x="196" y="302" type="line"/>
      <point x="425" y="0" type="line"/>
      <point x="536" y="0" type="line"/>
      <point x="300" y="308" type="line"/>
    </contour>
    <contour>
      <point x="192" y="564" type="line"/>
      <point x="100" y="564" type="line"/>
      <point x="100" y="0" type="line"/>
      <point x="192" y="0" type="line"/>
    </contour>
  </outline>
</glyph>
<glyph name="ka-cy.sc" format="2">
  <advance width="564"/>
  <anchor x="282" y="0" name="bottom"/>
  <anchor x="503" y="0" name="bottomright"/>
  <anchor x="316" y="564" name="top"/>
  <outline>
    <contour>
      <point x="537" y="564" type="line"/>
      <point x="438" y="564" type="line"/>
      <point x="251" y="332" type="line"/>
      <point x="192" y="332" type="line"/>
      <point x="192" y="564" type="line"/>
      <point x="100" y="564" type="line"/>
      <point x="100" y="0" type="line"/>
      <point x="192" y="0" type="line"/>
      <point x="192" y="262" type="line"/>
      <point x="249" y="262" type="line"/>
      <point x="447" y="0" type="line"/>
      <point x="554" y="0" type="line"/>
      <point x="325" y="299" type="line"/>
    </contour>
  </outline>
</glyph>
<glyph name="kabashkir-cy.sc" format="2">
  <advance width="605"/>
  <anchor x="323" y="0" name="bottom"/>
  <anchor x="544" y="0" name="bottomright"/>
  <anchor x="357" y="564" name="top"/>
  <outline>
    <contour>
      <point x="146" y="492" type="line"/>
      <point x="238" y="564" type="line"/>
      <point x="0" y="564" type="line"/>
      <point x="0" y="492" type="line"/>
    </contour>
    <component base="ka-cy.sc" xOffset="41"/>
  </outline>
</glyph>
<glyph name="kahook-cy.sc" format="2">
  <advance width="545"/>
  <anchor x="272.5" y="-202" name="bottom"/>
  <anchor x="272.5" y="564" name="top"/>
  <outline>
    <contour>
      <point x="100" y="0" type="line"/>
      <point x="192" y="0" type="line"/>
      <point x="192" y="251" type="line"/>
      <point x="298" y="251" type="line"/>
      <point x="336" y="294" type="line"/>
      <point x="510" y="564" type="line"/>
      <point x="415" y="564" type="line"/>
      <point x="266" y="324" type="line"/>
      <point x="192" y="324" type="line"/>
      <point x="192" y="564" type="line"/>
      <point x="100" y="564" type="line"/>
    </contour>
    <contour>
      <point x="406" y="0" type="line"/>
      <point x="498" y="0" type="line"/>
      <point x="498" y="148" type="line" smooth="yes"/>
      <point x="498" y="271"/>
      <point x="436" y="324"/>
      <point x="307" y="324" type="curve"/>
      <point x="298" y="251" type="line"/>
      <point x="375" y="251"/>
      <point x="406" y="222"/>
      <point x="406" y="147" type="curve" smooth="yes"/>
    </contour>
    <component base="hookHELPER" xOffset="202"/>
  </outline>
</glyph>
<glyph name="kaiSymbol.sc" format="2">
  <advance width="556"/>
  <anchor x="278" y="-202" name="bottom"/>
  <anchor x="302" y="564" name="top"/>
  <outline>
    <contour>
      <point x="430" y="74" type="line"/>
      <point x="430" y="0" type="line"/>
      <point x="546" y="0" type="line"/>
      <point x="546" y="74" type="line"/>
    </contour>
    <component base="k.sc"/>
    <component base="hookHELPER" xOffset="250"/>
  </outline>
</glyph>
<glyph name="kastroke-cy.sc" format="2">
  <advance width="564"/>
  <anchor x="262" y="0" name="bottom"/>
  <anchor x="483" y="0" name="bottomright"/>
  <anchor x="296" y="564" name="top"/>
  <outline>
    <contour>
      <point x="20" y="426" type="line"/>
      <point x="253" y="426" type="line"/>
      <point x="253" y="495" type="line"/>
      <point x="80" y="495" type="line"/>
      <point x="20" y="495" type="line"/>
    </contour>
    <component base="ka-cy.sc" xOffset="-20"/>
  </outline>
</glyph>
<glyph name="kaverticalstroke-cy.sc" format="2">
  <advance width="537"/>
  <anchor x="268.5" y="0" name="bottom"/>
  <anchor x="268.5" y="564" name="top"/>
  <outline>
    <contour>
      <point x="512" y="564" type="line"/>
      <point x="416" y="564" type="line"/>
      <point x="289" y="331" type="line"/>
      <point x="190" y="331" type="line"/>
      <point x="190" y="564" type="line"/>
      <point x="100" y="564" type="line"/>
      <point x="100" y="0" type="line"/>
      <point x="190" y="0" type="line"/>
      <point x="190" y="262" type="line"/>
      <point x="289" y="262" type="line"/>
      <point x="424" y="0" type="line"/>
      <point x="527" y="0" type="line"/>
      <point x="360" y="303" type="line"/>
    </contour>
    <contour>
      <point x="273" y="468" type="line"/>
      <point x="224" y="468" type="line"/>
      <point x="224" y="122" type="line"/>
      <point x="273" y="122" type="line"/>
    </contour>
  </outline>
</glyph>
<glyph name="koppa.sc" format="2">
  <advance width="406"/>
  <anchor x="203" y="0" name="bottom"/>
  <anchor x="203" y="564" name="top"/>
  <outline>
    <contour>
      <point x="132" y="0" type="line"/>
      <point x="231" y="0" type="line"/>
      <point x="396" y="249" type="line"/>
      <point x="312" y="271" type="line"/>
    </contour>
    <contour>
      <point x="39" y="249" type="line"/>
      <point x="396" y="249" type="line"/>
      <point x="377" y="324" type="line"/>
      <point x="20" y="324" type="line"/>
    </contour>
    <contour>
      <point x="105" y="300" type="line"/>
      <point x="283" y="564" type="line"/>
      <point x="184" y="564" type="line"/>
      <point x="20" y="324" type="line"/>
    </contour>
  </outline>
</glyph>
<glyph name="koppaArchaic.sc" format="2">
  <advance width="619"/>
  <anchor x="309.5" y="-202" name="bottom"/>
  <anchor x="398" y="0" name="ogonek"/>
  <anchor x="310" y="564" name="top"/>
  <anchor x="107" y="564" name="topleft"/>
  <anchor x="501" y="564" name="topright"/>
  <outline>
    <contour>
      <point x="263" y="-202" type="line"/>
      <point x="355" y="-202" type="line"/>
      <point x="356" y="0" type="line"/>
      <point x="263" y="0" type="line"/>
    </contour>
    <component base="o.sc"/>
  </outline>
</glyph>
<glyph name="l.sc" format="2">
  <advance width="456"/>
  <anchor x="263" y="0" name="bottom"/>
  <anchor x="366" y="316" name="center"/>
  <anchor x="146" y="564" name="top"/>
  <anchor x="213" y="564" name="topright"/>
  <outline>
    <contour>
      <point x="192" y="564" type="line"/>
      <point x="100" y="564" type="line"/>
      <point x="100" y="0" type="line"/>
      <point x="425" y="0" type="line"/>
      <point x="436" y="78" type="line"/>
      <point x="192" y="78" type="line"/>
    </contour>
  </outline>
</glyph>
<glyph name="lambda.sc" format="2">
  <advance width="519"/>
  <anchor x="259.5" y="0" name="bottom"/>
  <anchor x="259.5" y="564" name="top"/>
  <outline>
    <contour>
      <point x="324" y="564" type="line"/>
      <point x="210" y="564" type="line"/>
      <point x="20" y="0" type="line"/>
      <point x="114" y="0" type="line"/>
      <point x="266" y="489" type="line"/>
      <point x="416" y="0" type="line"/>
      <point x="513" y="0" type="line"/>
    </contour>
  </outline>
</glyph>
<glyph name="lha-cy.sc" format="2">
  <advance width="724"/>
  <anchor x="362" y="0" name="bottom"/>
  <anchor x="675" y="0" name="bottomright"/>
  <anchor x="362" y="564" name="top"/>
  <outline>
    <contour>
      <point x="123" y="564" type="line"/>
      <point x="190" y="490" type="line"/>
      <point x="367" y="490" type="line"/>
      <point x="367" y="564" type="line"/>
    </contour>
    <contour>
      <point x="207" y="491" type="line"/>
      <point x="123" y="564" type="line"/>
      <point x="98" y="296" type="line" smooth="yes"/>
      <point x="82" y="125"/>
      <point x="79" y="88"/>
      <point x="14" y="61" type="curve"/>
      <point x="37" y="-12" type="line"/>
      <point x="151" y="26"/>
      <point x="169" y="88"/>
      <point x="188" y="286" type="curve" smooth="yes"/>
    </contour>
    <component base="x.sc" xOffset="247"/>
  </outline>
</glyph>
<glyph name="liraTurkish.tf" format="2">
  <advance width="560"/>
  <outline>
    <contour>
      <point x="141" y="0" type="line"/>
      <point x="141" y="689" type="line"/>
      <point x="232" y="689" type="line"/>
      <point x="232" y="78" type="line"/>
      <point x="280" y="78" type="line" smooth="yes"/>
      <point x="374" y="78"/>
      <point x="429" y="109"/>
      <point x="472" y="201" type="curve"/>
      <point x="540" y="173" type="line"/>
      <point x="498" y="63"/>
      <point x="421" y="0"/>
      <point x="276" y="0" type="curve" smooth="yes"/>
    </contour>
    <contour>
      <point x="85" y="198" type="line"/>
      <point x="60" y="253" type="line"/>
      <point x="396" y="410" type="line"/>
      <point x="422" y="354" type="line"/>
    </contour>
    <contour>
      <point x="87" y="340" type="line"/>
      <point x="60" y="397" type="line"/>
      <point x="397" y="553" type="line"/>
      <point x="423" y="497" type="line"/>
    </contour>
  </outline>
</glyph>
<glyph name="liraTurkish.tosf" format="2">
  <advance width="560"/>
  <outline>
    <contour>
      <point x="141" y="0" type="line"/>
      <point x="141" y="669" type="line"/>
      <point x="232" y="669" type="line"/>
      <point x="232" y="78" type="line"/>
      <point x="280" y="78" type="line" smooth="yes"/>
      <point x="374" y="78"/>
      <point x="429" y="109"/>
      <point x="472" y="201" type="curve"/>
      <point x="540" y="173" type="line"/>
      <point x="498" y="63"/>
      <point x="421" y="0"/>
      <point x="276" y="0" type="curve" smooth="yes"/>
    </contour>
    <contour>
      <point x="85" y="178" type="line"/>
      <point x="60" y="233" type="line"/>
      <point x="396" y="390" type="line"/>
      <point x="422" y="334" type="line"/>
    </contour>
    <contour>
      <point x="87" y="320" type="line"/>
      <point x="60" y="377" type="line"/>
      <point x="397" y="533" type="line"/>
      <point x="423" y="477" type="line"/>
    </contour>
  </outline>
</glyph>
<glyph name="lozenge.tosf" format="2">
  <advance width="560"/>
  <outline>
    <contour>
      <point x="334" y="669" type="line"/>
      <point x="227" y="669" type="line"/>
      <point x="45" y="336" type="line"/>
      <point x="227" y="0" type="line"/>
      <point x="334" y="0" type="line"/>
      <point x="516" y="337" type="line"/>
    </contour>
    <contour>
      <point x="280" y="602" type="line"/>
      <point x="420" y="336" type="line"/>
      <point x="280" y="68" type="line"/>
      <point x="140" y="337" type="line"/>
    </contour>
  </outline>
</glyph>
<glyph name="lslash.sc" format="2">
  <advance width="461"/>
  <anchor x="268" y="0" name="bottom"/>
  <anchor x="371" y="316" name="center"/>
  <anchor x="151" y="564" name="top"/>
  <anchor x="218" y="564" name="topright"/>
  <outline>
    <contour>
      <point x="339" y="414" type="line"/>
      <point x="107" y="271" type="line"/>
      <point x="22" y="218" type="line"/>
      <point x="57" y="162" type="line"/>
      <point x="374" y="358" type="line"/>
    </contour>
    <component base="l.sc" xOffset="5"/>
  </outline>
</glyph>
<glyph name="n.sc" format="2">
  <advance width="625"/>
  <anchor x="313" y="0" name="bottom"/>
  <anchor x="322" y="564" name="top"/>
  <outline>
    <contour>
      <point x="525" y="564" type="line"/>
      <point x="440" y="564" type="line"/>
      <point x="440" y="277" type="line" smooth="yes"/>
      <point x="440" y="203"/>
      <point x="449" y="109"/>
      <point x="453" y="89" type="curve"/>
      <point x="220" y="564" type="line"/>
      <point x="100" y="564" type="line"/>
      <point x="100" y="0" type="line"/>
      <point x="185" y="0" type="line"/>
      <point x="185" y="246" type="line" smooth="yes"/>
      <point x="185" y="351"/>
      <point x="177" y="416"/>
      <point x="172" y="473" type="curve"/>
      <point x="402" y="0" type="line"/>
      <point x="525" y="0" type="line"/>
    </contour>
  </outline>
</glyph>
<glyph name="nhookleft.sc" format="2">
  <advance width="625"/>
  <anchor x="313" y="0" name="bottom"/>
  <anchor x="322" y="564" name="top"/>
  <outline>
    <contour>
      <point x="39" y="-213" type="curve" smooth="yes"/>
      <point x="126" y="-213"/>
      <point x="185" y="-161"/>
      <point x="185" y="-57" type="curve" smooth="yes"/>
      <point x="185" y="1" type="line"/>
      <point x="100" y="1" type="line"/>
      <point x="100" y="-69" type="line" smooth="yes"/>
      <point x="100" y="-122"/>
      <point x="73" y="-143"/>
      <point x="38" y="-143" type="curve" smooth="yes"/>
      <point x="5" y="-143"/>
      <point x="-15" y="-134"/>
      <point x="-38" y="-120" type="curve"/>
      <point x="-74" y="-175" type="line"/>
      <point x="-49" y="-194"/>
      <point x="-14" y="-213"/>
    </contour>
    <component base="n.sc"/>
  </outline>
</glyph>
<glyph name="pe-cy.sc" format="2">
  <advance width="620"/>
  <anchor x="310" y="0" name="bottom"/>
  <anchor x="532" y="0" name="bottomright"/>
  <anchor x="310" y="564" name="top"/>
  <outline>
    <contour>
      <point x="520" y="564" type="line"/>
      <point x="100" y="564" type="line"/>
      <point x="100" y="0" type="line"/>
      <point x="192" y="0" type="line"/>
      <point x="192" y="488" type="line"/>
      <point x="428" y="488" type="line"/>
      <point x="428" y="0" type="line"/>
      <point x="520" y="0" type="line"/>
    </contour>
  </outline>
</glyph>
<glyph name="pemiddlehook-cy.sc" format="2">
  <advance width="880"/>
  <anchor x="440" y="-202" name="bottom"/>
  <anchor x="532" y="0" name="bottomright"/>
  <anchor x="440" y="564" name="top"/>
  <outline>
    <contour>
      <point x="666" y="374" type="curve" smooth="yes"/>
      <point x="594" y="374"/>
      <point x="547" y="350"/>
      <point x="511" y="312" type="curve"/>
      <point x="512" y="235" type="line"/>
      <point x="544" y="275"/>
      <point x="582" y="300"/>
      <point x="644" y="300" type="curve" smooth="yes"/>
      <point x="719" y="300"/>
      <point x="753" y="262"/>
      <point x="753" y="191" type="curve" smooth="yes"/>
      <point x="753" y="0" type="line"/>
      <point x="845" y="0" type="line"/>
      <point x="845" y="191" type="line" smooth="yes"/>
      <point x="845" y="306"/>
      <point x="781" y="374"/>
    </contour>
    <component base="pe-cy.sc"/>
    <component base="hookHELPER" xOffset="549"/>
  </outline>
</glyph>
<glyph name="product.tf" format="2">
  <advance width="560"/>
  <outline>
    <contour>
      <point x="510" y="689" type="line"/>
      <point x="50" y="689" type="line"/>
      <point x="50" y="613" type="line"/>
      <point x="122" y="613" type="line"/>
      <point x="122" y="-213" type="line"/>
      <point x="212" y="-202" type="line"/>
      <point x="212" y="613" type="line"/>
      <point x="353" y="613" type="line"/>
      <point x="353" y="-213" type="line"/>
      <point x="443" y="-202" type="line"/>
      <point x="443" y="613" type="line"/>
      <point x="510" y="613" type="line"/>
    </contour>
  </outline>
</glyph>
<glyph name="product.tosf" format="2">
  <advance width="460"/>
  <outline>
    <contour>
      <point x="460" y="593" type="line"/>
      <point x="460" y="669" type="line"/>
      <point x="0" y="669" type="line"/>
      <point x="0" y="593" type="line"/>
      <point x="72" y="593" type="line"/>
      <point x="72" y="-213" type="line"/>
      <point x="162" y="-202" type="line"/>
      <point x="162" y="593" type="line"/>
      <point x="303" y="593" type="line"/>
      <point x="303" y="-213" type="line"/>
      <point x="393" y="-202" type="line"/>
      <point x="393" y="593" type="line"/>
    </contour>
  </outline>
</glyph>
<glyph name="psiliperispomeni.case" format="2">
  <advance width="241"/>
  <anchor x="316" y="689" name="_topleft"/>
  <anchor x="146" y="698" name="top"/>
  <outline>
    <contour>
      <point x="100" y="406" type="line"/>
      <point x="153" y="406" type="line"/>
      <point x="173" y="442" type="line" smooth="yes"/>
      <point x="197" y="485"/>
      <point x="202" y="502"/>
      <point x="202" y="519" type="curve" smooth="yes"/>
      <point x="202" y="551"/>
      <point x="178" y="575"/>
      <point x="145" y="575" type="curve" smooth="yes"/>
      <point x="112" y="575"/>
      <point x="87" y="551"/>
      <point x="87" y="519" type="curve" smooth="yes"/>
      <point x="87" y="497"/>
      <point x="97" y="481"/>
      <point x="119" y="468" type="curve"/>
    </contour>
    <component base="perispomeni" xOffset="-53" yOffset="-76"/>
  </outline>
</glyph>
<glyph name="psilivaria.case" format="2">
  <advance width="241"/>
  <anchor x="336" y="689" name="_topleft"/>
  <anchor x="163" y="693" name="top"/>
  <outline>
    <contour>
      <point x="236" y="467" type="line"/>
      <point x="296" y="483" type="line"/>
      <point x="249" y="689" type="line"/>
      <point x="166" y="668" type="line"/>
    </contour>
    <contour>
      <point x="30" y="474" type="line"/>
      <point x="83" y="474" type="line"/>
      <point x="124" y="560" type="line" smooth="yes"/>
      <point x="145" y="604"/>
      <point x="150" y="620"/>
      <point x="150" y="637" type="curve" smooth="yes"/>
      <point x="150" y="669"/>
      <point x="125" y="693"/>
      <point x="93" y="693" type="curve" smooth="yes"/>
      <point x="61" y="693"/>
      <point x="35" y="669"/>
      <point x="35" y="637" type="curve" smooth="yes"/>
      <point x="35" y="618"/>
      <point x="45" y="602"/>
      <point x="59" y="590" type="curve"/>
    </contour>
  </outline>
</glyph>
<glyph name="r.sc" format="2">
  <advance width="552"/>
  <anchor x="286" y="0" name="bottom"/>
  <anchor x="279" y="564" name="top"/>
  <outline>
    <contour>
      <point x="263" y="564" type="curve" smooth="yes"/>
      <point x="100" y="564" type="line"/>
      <point x="100" y="0" type="line"/>
      <point x="192" y="0" type="line"/>
      <point x="192" y="495" type="line"/>
      <point x="262" y="495" type="line" smooth="yes"/>
      <point x="355" y="495"/>
      <point x="397" y="467"/>
      <point x="397" y="401" type="curve" smooth="yes"/>
      <point x="397" y="328"/>
      <point x="351" y="302"/>
      <point x="271" y="302" type="curve" smooth="yes"/>
      <point x="179" y="302" type="line"/>
      <point x="179" y="234" type="line"/>
      <point x="294" y="234" type="line"/>
      <point x="426" y="256"/>
      <point x="493" y="302"/>
      <point x="493" y="401" type="curve" smooth="yes"/>
      <point x="493" y="509"/>
      <point x="415" y="564"/>
    </contour>
    <contour>
      <point x="362" y="258" type="line"/>
      <point x="272" y="245" type="line"/>
      <point x="418" y="0" type="line"/>
      <point x="527" y="0" type="line"/>
    </contour>
  </outline>
</glyph>
<glyph name="rhoStrokeSymbol.sc" format="2">
  <advance width="548"/>
  <anchor x="164" y="0" name="bottom"/>
  <anchor x="283" y="564" name="top"/>
  <outline>
    <contour>
      <point x="40" y="144" type="line"/>
      <point x="40" y="74" type="line"/>
      <point x="118" y="74" type="line"/>
      <point x="365" y="74" type="line"/>
      <point x="365" y="144" type="line"/>
    </contour>
    <component base="rho.sc" xOffset="18"/>
  </outline>
</glyph>
<glyph name="rstroke.sc" format="2">
  <advance width="552"/>
  <anchor x="286" y="0" name="bottom"/>
  <anchor x="279" y="564" name="top"/>
  <outline>
    <contour>
      <point x="302" y="234" type="line"/>
      <point x="205" y="302" type="line"/>
      <point x="100" y="302" type="line"/>
      <point x="28" y="302" type="line"/>
      <point x="28" y="234" type="line"/>
    </contour>
    <component base="r.sc"/>
  </outline>
</glyph>
<glyph name="sha-cy.sc" format="2">
  <advance width="835"/>
  <anchor x="418" y="0" name="bottom"/>
  <anchor x="745" y="0" name="bottomright"/>
  <anchor x="417.5" y="564" name="top"/>
  <outline>
    <contour>
      <point x="735" y="564" type="line"/>
      <point x="645" y="564" type="line"/>
      <point x="645" y="74" type="line"/>
      <point x="460" y="74" type="line"/>
      <point x="460" y="564" type="line"/>
      <point x="374" y="564" type="line"/>
      <point x="374" y="74" type="line"/>
      <point x="190" y="74" type="line"/>
      <point x="190" y="564" type="line"/>
      <point x="100" y="564" type="line"/>
      <point x="100" y="0" type="line"/>
      <point x="735" y="0" type="line"/>
    </contour>
  </outline>
</glyph>
<glyph name="t.sc" format="2">
  <advance width="456"/>
  <anchor x="229" y="0" name="bottom"/>
  <anchor x="285" y="0" name="bottomright"/>
  <anchor x="229" y="283" name="center"/>
  <anchor x="229" y="564" name="top"/>
  <outline>
    <contour>
      <point x="446" y="564" type="line"/>
      <point x="15" y="564" type="line"/>
      <point x="15" y="488" type="line"/>
      <point x="183" y="488" type="line"/>
      <point x="183" y="0" type="line"/>
      <point x="275" y="0" type="line"/>
      <point x="275" y="488" type="line"/>
      <point x="437" y="488" type="line"/>
    </contour>
  </outline>
</glyph>
<glyph name="tbar.sc" format="2">
  <advance width="456"/>
  <anchor x="229" y="0" name="bottom"/>
  <anchor x="285" y="0" name="bottomright"/>
  <anchor x="229" y="283" name="center"/>
  <anchor x="229" y="564" name="top"/>
  <outline>
    <contour>
      <point x="391" y="283" type="line"/>
      <point x="391" y="347" type="line"/>
      <point x="275" y="347" type="line"/>
      <point x="67" y="347" type="line"/>
      <point x="67" y="283" type="line"/>
      <point x="183" y="283" type="line"/>
    </contour>
    <component base="t.sc"/>
  </outline>
</glyph>
<glyph name="tdiagonalstroke.sc" format="2">
  <advance width="456"/>
  <anchor x="228" y="0" name="bottom"/>
  <anchor x="228" y="564" name="top"/>
  <outline>
    <contour>
      <point x="127" y="-62" type="line"/>
      <point x="395" y="606" type="line"/>
      <point x="356" y="621" type="line"/>
      <point x="88" y="-47" type="line"/>
    </contour>
    <contour>
      <point x="446" y="564" type="line"/>
      <point x="15" y="564" type="line"/>
      <point x="15" y="488" type="line"/>
      <point x="186" y="488" type="line"/>
      <point x="186" y="0" type="line"/>
      <point x="272" y="0" type="line"/>
      <point x="272" y="488" type="line"/>
      <point x="437" y="488" type="line"/>
    </contour>
  </outline>
</glyph>
<glyph name="tonos.case" format="2">
  <advance width="102"/>
  <anchor x="182" y="689" name="_topleft"/>
  <outline>
    <contour>
      <point x="67" y="707" type="line"/>
      <point x="30" y="501" type="line"/>
      <point x="99" y="490" type="line"/>
      <point x="172" y="689" type="line"/>
    </contour>
  </outline>
</glyph>
<glyph name="tsehelper-cy" format="2">
  <advance width="585"/>
  <anchor x="293" y="0" name="bottom"/>
  <anchor x="500" y="0" name="bottomright"/>
  <outline>
    <contour>
      <point x="398" y="527" type="line"/>
      <point x="398" y="75" type="line"/>
      <point x="187" y="75" type="line"/>
      <point x="187" y="527" type="line"/>
      <point x="95" y="527" type="line"/>
      <point x="95" y="0" type="line"/>
      <point x="490" y="0" type="line"/>
      <point x="490" y="527" type="line"/>
    </contour>
  </outline>
</glyph>
<glyph name="tsehelper-cy.sc" format="2">
  <advance width="622"/>
  <anchor x="311" y="0" name="bottom"/>
  <anchor x="532" y="0" name="bottomright"/>
  <outline>
    <contour>
      <point x="430" y="564" type="line"/>
      <point x="430" y="75" type="line"/>
      <point x="192" y="75" type="line"/>
      <point x="192" y="564" type="line"/>
      <point x="100" y="564" type="line"/>
      <point x="100" y="0" type="line"/>
      <point x="522" y="0" type="line"/>
      <point x="522" y="564" type="line"/>
    </contour>
  </outline>
</glyph>
<glyph name="tshe-cy.sc" format="2">
  <advance width="620"/>
  <anchor x="344" y="0" name="bottom"/>
  <anchor x="595" y="0" name="bottomright"/>
  <anchor x="344" y="564" name="top"/>
  <outline>
    <contour>
      <point x="421" y="564" type="line"/>
      <point x="15" y="564" type="line"/>
      <point x="15" y="492" type="line"/>
      <point x="413" y="492" type="line"/>
    </contour>
    <component base="shha-cy.sc" xOffset="68"/>
  </outline>
</glyph>
<glyph name="u-cy.sc" format="2">
  <advance width="476"/>
  <anchor x="238" y="0" name="bottom"/>
  <anchor x="247" y="564" name="top"/>
  <outline>
    <contour>
      <point x="481" y="564" type="line"/>
      <point x="388" y="564" type="line"/>
      <point x="246" y="208" type="line"/>
      <point x="96" y="564" type="line"/>
      <point x="0" y="564" type="line"/>
      <point x="186" y="154" type="line"/>
      <point x="219" y="154" type="line"/>
      <point x="192" y="90"/>
      <point x="160" y="67"/>
      <point x="80" y="54" type="curve"/>
      <point x="93" y="-11" type="line"/>
      <point x="210" y="4"/>
      <point x="262" y="42"/>
      <point x="310" y="157" type="curve" smooth="yes"/>
    </contour>
  </outline>
</glyph>
<glyph name="ubar.sc" format="2">
  <advance width="611"/>
  <anchor x="305" y="0" name="bottom"/>
  <anchor x="396" y="0" name="ogonek"/>
  <anchor x="306" y="564" name="top"/>
  <anchor x="528" y="564" name="topright"/>
  <outline>
    <contour>
      <point x="576" y="444" type="line"/>
      <point x="518" y="444" type="line"/>
      <point x="35" y="444" type="line"/>
      <point x="35" y="375" type="line"/>
      <point x="93" y="375" type="line"/>
      <point x="576" y="375" type="line"/>
    </contour>
    <component base="u.sc" xOffset="3"/>
  </outline>
</glyph>
<glyph name="uniA7AE.sc" format="2">
  <advance width="363"/>
  <anchor x="181.5" y="0" name="bottom"/>
  <anchor x="181.5" y="564" name="top"/>
  <outline>
    <contour>
      <point x="135" y="0" type="line"/>
      <point x="227" y="0" type="line"/>
      <point x="227" y="564" type="line"/>
      <point x="135" y="564" type="line"/>
    </contour>
    <contour>
      <point x="30" y="0" type="line"/>
      <point x="333" y="0" type="line"/>
      <point x="333" y="72" type="line"/>
      <point x="30" y="72" type="line"/>
    </contour>
    <contour>
      <point x="30" y="492" type="line"/>
      <point x="333" y="492" type="line"/>
      <point x="333" y="564" type="line"/>
      <point x="30" y="564" type="line"/>
    </contour>
  </outline>
</glyph>
<glyph name="ustraitstroke-cy.sc" format="2">
  <advance width="488"/>
  <anchor x="244" y="0" name="bottom"/>
  <anchor x="246" y="564" name="top"/>
  <outline>
    <contour>
      <point x="399" y="252" type="line"/>
      <point x="88" y="252" type="line"/>
      <point x="88" y="182" type="line"/>
      <point x="399" y="182" type="line"/>
    </contour>
    <component base="y.sc"/>
  </outline>
</glyph>
<glyph name="v.sc" format="2">
  <advance width="490"/>
  <anchor x="246" y="0" name="bottom"/>
  <anchor x="245" y="564" name="top"/>
  <outline>
    <contour>
      <point x="484" y="564" type="line"/>
      <point x="391" y="564" type="line"/>
      <point x="248" y="89" type="line"/>
      <point x="104" y="564" type="line"/>
      <point x="6" y="564" type="line"/>
      <point x="195" y="0" type="line"/>
      <point x="297" y="0" type="line"/>
    </contour>
  </outline>
</glyph>
<glyph name="varia.case" format="2">
  <advance width="102"/>
  <anchor x="172" y="689" name="_topleft"/>
  <outline>
    <contour>
      <point x="115" y="707" type="line"/>
      <point x="10" y="689" type="line"/>
      <point x="83" y="490" type="line"/>
      <point x="152" y="501" type="line"/>
    </contour>
  </outline>
</glyph>
<glyph name="vturned.sc" format="2">
  <advance width="490"/>
  <anchor x="245" y="0" name="bottom"/>
  <anchor x="244" y="564" name="top"/>
  <outline>
    <contour>
      <point x="6" y="0" type="line"/>
      <point x="99" y="0" type="line"/>
      <point x="240" y="475" type="line"/>
      <point x="386" y="0" type="line"/>
      <point x="484" y="0" type="line"/>
      <point x="295" y="564" type="line"/>
      <point x="193" y="564" type="line"/>
    </contour>
  </outline>
</glyph>
<glyph name="w.sc" format="2">
  <advance width="729"/>
  <anchor x="364.5" y="0" name="bottom"/>
  <anchor x="365" y="564" name="top"/>
  <outline>
    <contour>
      <point x="704" y="564" type="line"/>
      <point x="619" y="564" type="line"/>
      <point x="527" y="74" type="line"/>
      <point x="413" y="564" type="line"/>
      <point x="316" y="564" type="line"/>
      <point x="205" y="76" type="line"/>
      <point x="116" y="564" type="line"/>
      <point x="25" y="564" type="line"/>
      <point x="142" y="0" type="line"/>
      <point x="258" y="0" type="line"/>
      <point x="364" y="455" type="line"/>
      <point x="467" y="0" type="line"/>
      <point x="586" y="0" type="line"/>
    </contour>
  </outline>
</glyph>
